<mxfile host="app.diagrams.net" modified="2024-05-08T07:43:23.545Z" agent="Mozilla/5.0 (Windows NT 10.0; Win64; x64) AppleWebKit/537.36 (KHTML, like Gecko) Chrome/123.0.0.0 Safari/537.36" etag="x-c1QGQnJ5bwPFLoKumx" version="24.2.5" type="github" pages="3">
  <diagram id="R2lEEEUBdFMjLlhIrx00" name="Обзор сервисов">
    <mxGraphModel dx="1434" dy="746" grid="1" gridSize="10" guides="1" tooltips="1" connect="1" arrows="1" fold="1" page="1" pageScale="1" pageWidth="850" pageHeight="1100" math="0" shadow="0" extFonts="Permanent Marker^https://fonts.googleapis.com/css?family=Permanent+Marker">
      <root>
        <mxCell id="0" />
        <mxCell id="1" parent="0" />
        <mxCell id="K44LboCoMZ2E5izH13b2-1" value="Аргус" style="rounded=0;whiteSpace=wrap;html=1;" parent="1" vertex="1">
          <mxGeometry x="80" y="75" width="120" height="30" as="geometry" />
        </mxCell>
        <mxCell id="K44LboCoMZ2E5izH13b2-2" value="Ввоз/вывоз/транзит&amp;nbsp;&lt;span style=&quot;color: rgb(32, 33, 34); font-size: 12px; background-color: rgb(255, 255, 255);&quot;&gt;подконтрольных товаров&lt;/span&gt;" style="text;html=1;align=left;verticalAlign=middle;whiteSpace=wrap;rounded=0;fontFamily=Helvetica;fontSize=12;" parent="1" vertex="1">
          <mxGeometry x="210" y="75" width="260" height="30" as="geometry" />
        </mxCell>
        <mxCell id="K44LboCoMZ2E5izH13b2-3" value="Ассоль" style="rounded=0;whiteSpace=wrap;html=1;" parent="1" vertex="1">
          <mxGeometry x="80" y="120" width="120" height="30" as="geometry" />
        </mxCell>
        <mxCell id="K44LboCoMZ2E5izH13b2-4" value="Сбор отчетности&amp;nbsp;&lt;span style=&quot;color: rgb(32, 33, 34); font-family: sans-serif; font-size: 12px; background-color: rgb(255, 255, 255);&quot;&gt;от подотчетных Россельхознадзору учреждений&lt;/span&gt;" style="text;html=1;align=left;verticalAlign=middle;whiteSpace=wrap;rounded=0;fontFamily=Helvetica;fontSize=12;" parent="1" vertex="1">
          <mxGeometry x="210" y="120" width="390" height="30" as="geometry" />
        </mxCell>
        <mxCell id="K44LboCoMZ2E5izH13b2-5" value="Атлас" style="rounded=0;whiteSpace=wrap;html=1;" parent="1" vertex="1">
          <mxGeometry x="80" y="160" width="120" height="30" as="geometry" />
        </mxCell>
        <mxCell id="K44LboCoMZ2E5izH13b2-6" value="Формирование отчетности" style="text;html=1;align=left;verticalAlign=middle;whiteSpace=wrap;rounded=0;fontFamily=Helvetica;fontSize=12;" parent="1" vertex="1">
          <mxGeometry x="210" y="160" width="250" height="30" as="geometry" />
        </mxCell>
        <mxCell id="K44LboCoMZ2E5izH13b2-7" value="Веста" style="rounded=0;whiteSpace=wrap;html=1;" parent="1" vertex="1">
          <mxGeometry x="80" y="200" width="120" height="30" as="geometry" />
        </mxCell>
        <mxCell id="K44LboCoMZ2E5izH13b2-8" value="Регистрирование лабораторных исследований" style="text;html=1;align=left;verticalAlign=middle;whiteSpace=wrap;rounded=0;fontFamily=Helvetica;fontSize=12;" parent="1" vertex="1">
          <mxGeometry x="210" y="200" width="250" height="30" as="geometry" />
        </mxCell>
        <mxCell id="K44LboCoMZ2E5izH13b2-9" value="Гален" style="rounded=0;whiteSpace=wrap;html=1;" parent="1" vertex="1">
          <mxGeometry x="80" y="240" width="120" height="30" as="geometry" />
        </mxCell>
        <mxCell id="K44LboCoMZ2E5izH13b2-10" value="&lt;span style=&quot;color: rgb(32, 33, 34); font-family: sans-serif; font-size: 12px; background-color: rgb(255, 255, 255);&quot;&gt;регистрации лекарственных препаратов для ветеринарного применения&lt;/span&gt;" style="text;html=1;align=left;verticalAlign=middle;whiteSpace=wrap;rounded=0;fontFamily=Helvetica;fontSize=12;" parent="1" vertex="1">
          <mxGeometry x="210" y="240" width="250" height="30" as="geometry" />
        </mxCell>
        <mxCell id="K44LboCoMZ2E5izH13b2-11" value="Гермес" style="rounded=0;whiteSpace=wrap;html=1;" parent="1" vertex="1">
          <mxGeometry x="80" y="280" width="120" height="30" as="geometry" />
        </mxCell>
        <mxCell id="K44LboCoMZ2E5izH13b2-12" value="&lt;span style=&quot;color: rgb(32, 33, 34); font-family: sans-serif; font-size: 12px; background-color: rgb(255, 255, 255);&quot;&gt;процесс лицензирования фармацевтической деятельности&lt;/span&gt;" style="text;html=1;align=left;verticalAlign=middle;whiteSpace=wrap;rounded=0;fontFamily=Helvetica;fontSize=12;" parent="1" vertex="1">
          <mxGeometry x="210" y="280" width="250" height="30" as="geometry" />
        </mxCell>
        <mxCell id="K44LboCoMZ2E5izH13b2-13" value="Дюма" style="rounded=0;whiteSpace=wrap;html=1;" parent="1" vertex="1">
          <mxGeometry x="80" y="320" width="120" height="30" as="geometry" />
        </mxCell>
        <mxCell id="K44LboCoMZ2E5izH13b2-14" value="&lt;span style=&quot;color: rgb(32, 33, 34); font-family: sans-serif; font-size: 12px; background-color: rgb(255, 255, 255);&quot;&gt;процесс формирования официальных писем&amp;nbsp;&lt;/span&gt;" style="text;html=1;align=left;verticalAlign=middle;whiteSpace=wrap;rounded=0;fontFamily=Helvetica;fontSize=12;" parent="1" vertex="1">
          <mxGeometry x="210" y="320" width="250" height="30" as="geometry" />
        </mxCell>
        <mxCell id="K44LboCoMZ2E5izH13b2-15" value="Икар" style="rounded=0;whiteSpace=wrap;html=1;" parent="1" vertex="1">
          <mxGeometry x="80" y="360" width="120" height="30" as="geometry" />
        </mxCell>
        <mxCell id="K44LboCoMZ2E5izH13b2-16" value="&lt;span style=&quot;color: rgb(32, 33, 34); font-family: sans-serif; font-size: 12px; background-color: rgb(255, 255, 255);&quot;&gt;единое хранилище адресных данных&lt;/span&gt;" style="text;html=1;align=left;verticalAlign=middle;whiteSpace=wrap;rounded=0;fontFamily=Helvetica;fontSize=12;" parent="1" vertex="1">
          <mxGeometry x="210" y="360" width="250" height="30" as="geometry" />
        </mxCell>
        <mxCell id="K44LboCoMZ2E5izH13b2-17" value="Ирена" style="rounded=0;whiteSpace=wrap;html=1;fillColor=#dae8fc;strokeColor=#6c8ebf;" parent="1" vertex="1">
          <mxGeometry x="540" y="240" width="120" height="30" as="geometry" />
        </mxCell>
        <mxCell id="K44LboCoMZ2E5izH13b2-18" value="&lt;span style=&quot;color: rgb(32, 33, 34); font-family: sans-serif; font-size: 12px; background-color: rgb(255, 255, 255);&quot;&gt;представления и получения информации о регистрации лекарственных препаратов для ветеринарного применения&lt;/span&gt;" style="text;html=1;align=left;verticalAlign=middle;whiteSpace=wrap;rounded=0;fontFamily=Helvetica;fontSize=12;" parent="1" vertex="1">
          <mxGeometry x="670" y="240" width="380" height="30" as="geometry" />
        </mxCell>
        <mxCell id="K44LboCoMZ2E5izH13b2-19" value="Меркурий" style="rounded=0;whiteSpace=wrap;html=1;" parent="1" vertex="1">
          <mxGeometry x="80" y="400" width="120" height="30" as="geometry" />
        </mxCell>
        <mxCell id="K44LboCoMZ2E5izH13b2-20" value="&lt;span style=&quot;color: rgb(32, 33, 34); font-family: sans-serif; font-size: 12px; background-color: rgb(255, 255, 255);&quot;&gt;регистрации результатов ветеринарно-санитарной экспертизы подконтрольных товаров и оформления ветеринарных сопроводительных документов&lt;/span&gt;" style="text;html=1;align=left;verticalAlign=middle;whiteSpace=wrap;rounded=0;fontFamily=Helvetica;fontSize=12;" parent="1" vertex="1">
          <mxGeometry x="210" y="400" width="470" height="30" as="geometry" />
        </mxCell>
        <mxCell id="K44LboCoMZ2E5izH13b2-21" value="Паспорт" style="rounded=0;whiteSpace=wrap;html=1;" parent="1" vertex="1">
          <mxGeometry x="80" y="450" width="120" height="30" as="geometry" />
        </mxCell>
        <mxCell id="K44LboCoMZ2E5izH13b2-22" value="&lt;span style=&quot;color: rgb(32, 33, 34); font-family: sans-serif; font-size: 12px; background-color: rgb(255, 255, 255);&quot;&gt;поддержания, сохранения и обработки данных о зарегистрированных пользователях ВетИС и установления им прав доступа&lt;/span&gt;" style="text;html=1;align=left;verticalAlign=middle;whiteSpace=wrap;rounded=0;fontFamily=Helvetica;fontSize=12;" parent="1" vertex="1">
          <mxGeometry x="210" y="450" width="470" height="30" as="geometry" />
        </mxCell>
        <mxCell id="K44LboCoMZ2E5izH13b2-23" value="Сирано" style="rounded=0;whiteSpace=wrap;html=1;" parent="1" vertex="1">
          <mxGeometry x="80" y="500" width="120" height="30" as="geometry" />
        </mxCell>
        <mxCell id="K44LboCoMZ2E5izH13b2-24" value="&lt;span style=&quot;color: rgb(32, 33, 34); font-family: sans-serif; font-size: 12px; background-color: rgb(255, 255, 255);&quot;&gt;&amp;nbsp;систему раннего оповещения о движении безкнтрольных грузов&lt;/span&gt;" style="text;html=1;align=left;verticalAlign=middle;whiteSpace=wrap;rounded=0;fontFamily=Helvetica;fontSize=12;" parent="1" vertex="1">
          <mxGeometry x="210" y="500" width="470" height="30" as="geometry" />
        </mxCell>
        <mxCell id="K44LboCoMZ2E5izH13b2-25" value="Тор" style="rounded=0;whiteSpace=wrap;html=1;" parent="1" vertex="1">
          <mxGeometry x="80" y="550" width="120" height="30" as="geometry" />
        </mxCell>
        <mxCell id="K44LboCoMZ2E5izH13b2-26" value="&lt;span style=&quot;color: rgb(32, 33, 34); font-family: sans-serif; font-size: 12px; background-color: rgb(255, 255, 255);&quot;&gt;единого хранилища информации обо всех учреждениях Россельхознадзора&lt;/span&gt;" style="text;html=1;align=left;verticalAlign=middle;whiteSpace=wrap;rounded=0;fontFamily=Helvetica;fontSize=12;" parent="1" vertex="1">
          <mxGeometry x="210" y="550" width="470" height="30" as="geometry" />
        </mxCell>
        <mxCell id="K44LboCoMZ2E5izH13b2-27" value="Хорриот" style="rounded=0;whiteSpace=wrap;html=1;" parent="1" vertex="1">
          <mxGeometry x="80" y="600" width="120" height="30" as="geometry" />
        </mxCell>
        <mxCell id="K44LboCoMZ2E5izH13b2-28" value="&lt;span style=&quot;color: rgb(32, 33, 34); font-family: sans-serif; font-size: 12px; background-color: rgb(255, 255, 255);&quot;&gt;&amp;nbsp;представления в ФГИС ВетИС информации об идентификации и учете животных&lt;/span&gt;" style="text;html=1;align=left;verticalAlign=middle;whiteSpace=wrap;rounded=0;fontFamily=Helvetica;fontSize=12;" parent="1" vertex="1">
          <mxGeometry x="210" y="600" width="470" height="30" as="geometry" />
        </mxCell>
        <mxCell id="K44LboCoMZ2E5izH13b2-29" value="Цербер" style="rounded=0;whiteSpace=wrap;html=1;" parent="1" vertex="1">
          <mxGeometry x="80" y="640" width="120" height="30" as="geometry" />
        </mxCell>
        <mxCell id="K44LboCoMZ2E5izH13b2-30" value="&lt;span style=&quot;color: rgb(32, 33, 34); font-family: sans-serif; font-size: 12px; background-color: rgb(255, 255, 255);&quot;&gt;поддержания, сохранения и обработки данных об объектах, связанных с содержанием животных&lt;/span&gt;" style="text;html=1;align=left;verticalAlign=middle;whiteSpace=wrap;rounded=0;fontFamily=Helvetica;fontSize=12;" parent="1" vertex="1">
          <mxGeometry x="210" y="640" width="470" height="30" as="geometry" />
        </mxCell>
        <mxCell id="K44LboCoMZ2E5izH13b2-31" value="eCert" style="rounded=0;whiteSpace=wrap;html=1;" parent="1" vertex="1">
          <mxGeometry x="80" y="690" width="120" height="30" as="geometry" />
        </mxCell>
        <mxCell id="K44LboCoMZ2E5izH13b2-32" value="&lt;span style=&quot;color: rgb(32, 33, 34); font-family: sans-serif; font-size: 12px; background-color: rgb(255, 255, 255);&quot;&gt;ветеринарной сертификации поднадзорных госветнадзору грузов. Экспорт&lt;/span&gt;" style="text;html=1;align=left;verticalAlign=middle;whiteSpace=wrap;rounded=0;fontFamily=Helvetica;fontSize=12;" parent="1" vertex="1">
          <mxGeometry x="210" y="690" width="470" height="30" as="geometry" />
        </mxCell>
        <mxCell id="K44LboCoMZ2E5izH13b2-33" value="Атлас" style="rounded=0;whiteSpace=wrap;html=1;" parent="1" vertex="1">
          <mxGeometry x="1450" y="245" width="120" height="30" as="geometry" />
        </mxCell>
        <mxCell id="K44LboCoMZ2E5izH13b2-34" value="Аргус" style="rounded=0;whiteSpace=wrap;html=1;" parent="1" vertex="1">
          <mxGeometry x="1280" y="150" width="120" height="30" as="geometry" />
        </mxCell>
        <mxCell id="K44LboCoMZ2E5izH13b2-35" value="Веста" style="rounded=0;whiteSpace=wrap;html=1;" parent="1" vertex="1">
          <mxGeometry x="1280" y="190" width="120" height="30" as="geometry" />
        </mxCell>
        <mxCell id="K44LboCoMZ2E5izH13b2-36" value="Ветис API" style="rounded=0;whiteSpace=wrap;html=1;" parent="1" vertex="1">
          <mxGeometry x="80" y="740" width="120" height="30" as="geometry" />
        </mxCell>
        <mxCell id="K44LboCoMZ2E5izH13b2-37" value="Ветис API" style="rounded=0;whiteSpace=wrap;html=1;" parent="1" vertex="1">
          <mxGeometry x="1280" y="230" width="120" height="30" as="geometry" />
        </mxCell>
        <mxCell id="K44LboCoMZ2E5izH13b2-38" value="Меркурий" style="rounded=0;whiteSpace=wrap;html=1;" parent="1" vertex="1">
          <mxGeometry x="1280" y="270" width="120" height="30" as="geometry" />
        </mxCell>
        <mxCell id="K44LboCoMZ2E5izH13b2-40" value="Паспорт" style="rounded=0;whiteSpace=wrap;html=1;" parent="1" vertex="1">
          <mxGeometry x="1280" y="310" width="120" height="30" as="geometry" />
        </mxCell>
        <mxCell id="K44LboCoMZ2E5izH13b2-41" value="Меркурий" style="rounded=0;whiteSpace=wrap;html=1;" parent="1" vertex="1">
          <mxGeometry x="830" y="1940" width="120" height="30" as="geometry" />
        </mxCell>
        <mxCell id="K44LboCoMZ2E5izH13b2-43" value="Цербер" style="rounded=0;whiteSpace=wrap;html=1;" parent="1" vertex="1">
          <mxGeometry x="1280" y="350" width="120" height="30" as="geometry" />
        </mxCell>
        <mxCell id="K44LboCoMZ2E5izH13b2-44" value="" style="shape=curlyBracket;whiteSpace=wrap;html=1;rounded=1;flipH=1;labelPosition=right;verticalLabelPosition=middle;align=left;verticalAlign=middle;" parent="1" vertex="1">
          <mxGeometry x="1410" y="130" width="20" height="260" as="geometry" />
        </mxCell>
        <mxCell id="K44LboCoMZ2E5izH13b2-45" value="" style="shape=note;whiteSpace=wrap;html=1;backgroundOutline=1;darkOpacity=0.05;" parent="1" vertex="1">
          <mxGeometry x="1590" y="220" width="80" height="100" as="geometry" />
        </mxCell>
        <mxCell id="K44LboCoMZ2E5izH13b2-46" value="Ветис API" style="rounded=0;whiteSpace=wrap;html=1;" parent="1" vertex="1">
          <mxGeometry x="1130" y="1075" width="120" height="30" as="geometry" />
        </mxCell>
        <mxCell id="K44LboCoMZ2E5izH13b2-47" value="Меркурий" style="rounded=0;whiteSpace=wrap;html=1;" parent="1" vertex="1">
          <mxGeometry x="560" y="1000" width="120" height="30" as="geometry" />
        </mxCell>
        <mxCell id="K44LboCoMZ2E5izH13b2-49" value="Хорриот" style="rounded=0;whiteSpace=wrap;html=1;" parent="1" vertex="1">
          <mxGeometry x="560" y="1045" width="120" height="30" as="geometry" />
        </mxCell>
        <mxCell id="K44LboCoMZ2E5izH13b2-53" value="Цербер" style="rounded=0;whiteSpace=wrap;html=1;" parent="1" vertex="1">
          <mxGeometry x="560" y="1100" width="120" height="30" as="geometry" />
        </mxCell>
        <mxCell id="K44LboCoMZ2E5izH13b2-56" value="Икар" style="rounded=0;whiteSpace=wrap;html=1;" parent="1" vertex="1">
          <mxGeometry x="560" y="1150" width="120" height="30" as="geometry" />
        </mxCell>
        <mxCell id="K44LboCoMZ2E5izH13b2-58" value="Веста" style="rounded=0;whiteSpace=wrap;html=1;" parent="1" vertex="1">
          <mxGeometry x="560" y="960" width="120" height="30" as="geometry" />
        </mxCell>
        <mxCell id="K44LboCoMZ2E5izH13b2-63" style="edgeStyle=orthogonalEdgeStyle;rounded=0;orthogonalLoop=1;jettySize=auto;html=1;entryX=0;entryY=0.5;entryDx=0;entryDy=0;" parent="1" source="K44LboCoMZ2E5izH13b2-59" target="K44LboCoMZ2E5izH13b2-46" edge="1">
          <mxGeometry relative="1" as="geometry" />
        </mxCell>
        <mxCell id="K44LboCoMZ2E5izH13b2-59" value="&lt;b style=&quot;color: rgb(32, 33, 34); font-family: sans-serif; font-size: 14px; text-align: start; background-color: rgb(255, 255, 255);&quot;&gt;ApplicationManagementService&lt;/b&gt;" style="rounded=0;whiteSpace=wrap;html=1;" parent="1" vertex="1">
          <mxGeometry x="740" y="1000" width="240" height="30" as="geometry" />
        </mxCell>
        <mxCell id="K44LboCoMZ2E5izH13b2-66" style="edgeStyle=orthogonalEdgeStyle;rounded=0;orthogonalLoop=1;jettySize=auto;html=1;" parent="1" source="K44LboCoMZ2E5izH13b2-64" target="K44LboCoMZ2E5izH13b2-46" edge="1">
          <mxGeometry relative="1" as="geometry" />
        </mxCell>
        <mxCell id="K44LboCoMZ2E5izH13b2-64" value="&lt;b style=&quot;color: rgb(32, 33, 34); font-family: sans-serif; font-size: 14px; text-align: start; background-color: rgb(255, 255, 255);&quot;&gt;EnterpriseService&lt;/b&gt;" style="rounded=0;whiteSpace=wrap;html=1;" parent="1" vertex="1">
          <mxGeometry x="740" y="1100" width="240" height="30" as="geometry" />
        </mxCell>
        <mxCell id="K44LboCoMZ2E5izH13b2-77" style="edgeStyle=orthogonalEdgeStyle;rounded=0;orthogonalLoop=1;jettySize=auto;html=1;entryX=0;entryY=0.5;entryDx=0;entryDy=0;" parent="1" source="K44LboCoMZ2E5izH13b2-68" target="K44LboCoMZ2E5izH13b2-46" edge="1">
          <mxGeometry relative="1" as="geometry" />
        </mxCell>
        <mxCell id="K44LboCoMZ2E5izH13b2-68" value="&lt;b style=&quot;color: rgb(32, 33, 34); font-family: sans-serif; font-size: 14px; text-align: start; background-color: rgb(255, 255, 255);&quot;&gt;IkarService&lt;/b&gt;" style="rounded=0;whiteSpace=wrap;html=1;" parent="1" vertex="1">
          <mxGeometry x="740" y="1150" width="240" height="30" as="geometry" />
        </mxCell>
        <mxCell id="K44LboCoMZ2E5izH13b2-69" value="" style="endArrow=none;html=1;rounded=0;exitX=1;exitY=0.5;exitDx=0;exitDy=0;entryX=0;entryY=0.5;entryDx=0;entryDy=0;" parent="1" source="K44LboCoMZ2E5izH13b2-58" target="K44LboCoMZ2E5izH13b2-59" edge="1">
          <mxGeometry width="50" height="50" relative="1" as="geometry">
            <mxPoint x="660" y="910" as="sourcePoint" />
            <mxPoint x="710" y="860" as="targetPoint" />
          </mxGeometry>
        </mxCell>
        <mxCell id="K44LboCoMZ2E5izH13b2-70" value="" style="endArrow=none;html=1;rounded=0;exitX=1;exitY=0.5;exitDx=0;exitDy=0;entryX=0;entryY=0.5;entryDx=0;entryDy=0;" parent="1" source="K44LboCoMZ2E5izH13b2-47" target="K44LboCoMZ2E5izH13b2-59" edge="1">
          <mxGeometry width="50" height="50" relative="1" as="geometry">
            <mxPoint x="690" y="985" as="sourcePoint" />
            <mxPoint x="750" y="1025" as="targetPoint" />
          </mxGeometry>
        </mxCell>
        <mxCell id="K44LboCoMZ2E5izH13b2-71" value="" style="endArrow=none;html=1;rounded=0;exitX=1;exitY=0.5;exitDx=0;exitDy=0;entryX=0;entryY=0.5;entryDx=0;entryDy=0;" parent="1" source="K44LboCoMZ2E5izH13b2-49" target="K44LboCoMZ2E5izH13b2-59" edge="1">
          <mxGeometry width="50" height="50" relative="1" as="geometry">
            <mxPoint x="690" y="1025" as="sourcePoint" />
            <mxPoint x="750" y="1025" as="targetPoint" />
          </mxGeometry>
        </mxCell>
        <mxCell id="K44LboCoMZ2E5izH13b2-72" value="" style="endArrow=none;html=1;rounded=0;exitX=1;exitY=0.5;exitDx=0;exitDy=0;entryX=0;entryY=0.5;entryDx=0;entryDy=0;" parent="1" source="K44LboCoMZ2E5izH13b2-53" target="K44LboCoMZ2E5izH13b2-59" edge="1">
          <mxGeometry width="50" height="50" relative="1" as="geometry">
            <mxPoint x="690" y="1070" as="sourcePoint" />
            <mxPoint x="750" y="1025" as="targetPoint" />
          </mxGeometry>
        </mxCell>
        <mxCell id="K44LboCoMZ2E5izH13b2-73" value="" style="endArrow=none;html=1;rounded=0;exitX=1;exitY=0.5;exitDx=0;exitDy=0;entryX=0;entryY=0.5;entryDx=0;entryDy=0;" parent="1" source="K44LboCoMZ2E5izH13b2-53" target="K44LboCoMZ2E5izH13b2-64" edge="1">
          <mxGeometry width="50" height="50" relative="1" as="geometry">
            <mxPoint x="700" y="1080" as="sourcePoint" />
            <mxPoint x="760" y="1035" as="targetPoint" />
          </mxGeometry>
        </mxCell>
        <mxCell id="K44LboCoMZ2E5izH13b2-74" value="" style="endArrow=none;html=1;rounded=0;" parent="1" source="K44LboCoMZ2E5izH13b2-56" target="K44LboCoMZ2E5izH13b2-68" edge="1">
          <mxGeometry width="50" height="50" relative="1" as="geometry">
            <mxPoint x="690" y="1125" as="sourcePoint" />
            <mxPoint x="750" y="1125" as="targetPoint" />
          </mxGeometry>
        </mxCell>
        <mxCell id="K44LboCoMZ2E5izH13b2-80" style="edgeStyle=orthogonalEdgeStyle;rounded=0;orthogonalLoop=1;jettySize=auto;html=1;" parent="1" source="K44LboCoMZ2E5izH13b2-78" target="K44LboCoMZ2E5izH13b2-46" edge="1">
          <mxGeometry relative="1" as="geometry" />
        </mxCell>
        <mxCell id="K44LboCoMZ2E5izH13b2-78" value="&lt;b style=&quot;color: rgb(32, 33, 34); font-family: sans-serif; font-size: 14px; text-align: start; background-color: rgb(255, 255, 255);&quot;&gt;DictionaryService&lt;/b&gt;" style="rounded=0;whiteSpace=wrap;html=1;" parent="1" vertex="1">
          <mxGeometry x="740" y="1200" width="240" height="30" as="geometry" />
        </mxCell>
        <mxCell id="K44LboCoMZ2E5izH13b2-81" style="edgeStyle=orthogonalEdgeStyle;rounded=0;orthogonalLoop=1;jettySize=auto;html=1;" parent="1" source="K44LboCoMZ2E5izH13b2-79" target="K44LboCoMZ2E5izH13b2-46" edge="1">
          <mxGeometry relative="1" as="geometry" />
        </mxCell>
        <mxCell id="K44LboCoMZ2E5izH13b2-79" value="&lt;b style=&quot;color: rgb(32, 33, 34); font-family: sans-serif; font-size: 14px; text-align: start; background-color: rgb(255, 255, 255);&quot;&gt;ProductService&lt;/b&gt;" style="rounded=0;whiteSpace=wrap;html=1;" parent="1" vertex="1">
          <mxGeometry x="740" y="1240" width="240" height="30" as="geometry" />
        </mxCell>
        <mxCell id="8IR0GcG7MYbGVQe7b3lR-1" value="&lt;b style=&quot;color: rgb(32, 33, 34); font-family: sans-serif; font-size: 14px; text-align: start; background-color: rgb(255, 255, 255);&quot;&gt;R13&lt;/b&gt;" style="rounded=0;whiteSpace=wrap;html=1;" parent="1" vertex="1">
          <mxGeometry x="740" y="1300" width="240" height="30" as="geometry" />
        </mxCell>
      </root>
    </mxGraphModel>
  </diagram>
  <diagram id="wRPmgKcPeKxbgbv0H7ZG" name="Использование">
    <mxGraphModel dx="4412" dy="3279" grid="1" gridSize="10" guides="1" tooltips="1" connect="1" arrows="1" fold="1" page="1" pageScale="1" pageWidth="827" pageHeight="1169" math="0" shadow="0">
      <root>
        <mxCell id="0" />
        <mxCell id="1" parent="0" />
        <mxCell id="shzQThe2P0UVymXe0eo9-11" style="edgeStyle=orthogonalEdgeStyle;rounded=0;orthogonalLoop=1;jettySize=auto;html=1;entryX=0;entryY=0.5;entryDx=0;entryDy=0;" edge="1" parent="1" source="shzQThe2P0UVymXe0eo9-1" target="shzQThe2P0UVymXe0eo9-6">
          <mxGeometry relative="1" as="geometry" />
        </mxCell>
        <mxCell id="shzQThe2P0UVymXe0eo9-1" value="2.1" style="rounded=0;whiteSpace=wrap;html=1;" vertex="1" parent="1">
          <mxGeometry y="-120" width="110" height="40" as="geometry" />
        </mxCell>
        <mxCell id="shzQThe2P0UVymXe0eo9-2" value="SAP PO" style="rounded=0;whiteSpace=wrap;html=1;" vertex="1" parent="1">
          <mxGeometry x="220" y="-190" width="110" height="40" as="geometry" />
        </mxCell>
        <mxCell id="shzQThe2P0UVymXe0eo9-3" value="SAP ERP" style="rounded=0;whiteSpace=wrap;html=1;" vertex="1" parent="1">
          <mxGeometry x="410" y="-190" width="110" height="40" as="geometry" />
        </mxCell>
        <mxCell id="B8nlWepwXldUqVJ7dMo1-2" style="edgeStyle=orthogonalEdgeStyle;rounded=0;orthogonalLoop=1;jettySize=auto;html=1;entryX=0;entryY=0.5;entryDx=0;entryDy=0;" edge="1" parent="1" source="shzQThe2P0UVymXe0eo9-4" target="B8nlWepwXldUqVJ7dMo1-1">
          <mxGeometry relative="1" as="geometry" />
        </mxCell>
        <mxCell id="shzQThe2P0UVymXe0eo9-4" value="CLASS" style="rounded=0;whiteSpace=wrap;html=1;" vertex="1" parent="1">
          <mxGeometry x="410" y="-120" width="110" height="40" as="geometry" />
        </mxCell>
        <mxCell id="shzQThe2P0UVymXe0eo9-10" style="edgeStyle=orthogonalEdgeStyle;rounded=0;orthogonalLoop=1;jettySize=auto;html=1;entryX=0;entryY=0.5;entryDx=0;entryDy=0;" edge="1" parent="1" source="shzQThe2P0UVymXe0eo9-5" target="shzQThe2P0UVymXe0eo9-9">
          <mxGeometry relative="1" as="geometry" />
        </mxCell>
        <mxCell id="shzQThe2P0UVymXe0eo9-5" value="3.0" style="rounded=0;whiteSpace=wrap;html=1;" vertex="1" parent="1">
          <mxGeometry y="-20" width="110" height="40" as="geometry" />
        </mxCell>
        <mxCell id="shzQThe2P0UVymXe0eo9-7" style="edgeStyle=orthogonalEdgeStyle;rounded=0;orthogonalLoop=1;jettySize=auto;html=1;entryX=0;entryY=0.5;entryDx=0;entryDy=0;" edge="1" parent="1" source="shzQThe2P0UVymXe0eo9-6" target="shzQThe2P0UVymXe0eo9-4">
          <mxGeometry relative="1" as="geometry" />
        </mxCell>
        <mxCell id="shzQThe2P0UVymXe0eo9-6" value="" style="rounded=0;whiteSpace=wrap;html=1;" vertex="1" parent="1">
          <mxGeometry x="220" y="-120" width="110" height="40" as="geometry" />
        </mxCell>
        <mxCell id="shzQThe2P0UVymXe0eo9-13" style="edgeStyle=orthogonalEdgeStyle;rounded=0;orthogonalLoop=1;jettySize=auto;html=1;entryX=0;entryY=0.5;entryDx=0;entryDy=0;" edge="1" parent="1" source="shzQThe2P0UVymXe0eo9-9" target="shzQThe2P0UVymXe0eo9-12">
          <mxGeometry relative="1" as="geometry" />
        </mxCell>
        <mxCell id="shzQThe2P0UVymXe0eo9-9" value="" style="rounded=0;whiteSpace=wrap;html=1;" vertex="1" parent="1">
          <mxGeometry x="220" y="-20" width="110" height="40" as="geometry" />
        </mxCell>
        <mxCell id="B8nlWepwXldUqVJ7dMo1-3" style="edgeStyle=orthogonalEdgeStyle;rounded=0;orthogonalLoop=1;jettySize=auto;html=1;entryX=0;entryY=0.5;entryDx=0;entryDy=0;" edge="1" parent="1" source="shzQThe2P0UVymXe0eo9-12" target="B8nlWepwXldUqVJ7dMo1-1">
          <mxGeometry relative="1" as="geometry" />
        </mxCell>
        <mxCell id="shzQThe2P0UVymXe0eo9-12" value="CLASS ZCO" style="rounded=0;whiteSpace=wrap;html=1;" vertex="1" parent="1">
          <mxGeometry x="410" y="-20" width="110" height="40" as="geometry" />
        </mxCell>
        <mxCell id="B8nlWepwXldUqVJ7dMo1-1" value="Report &lt;b&gt;ZVET_MASTERDATA&lt;/b&gt;&lt;div&gt;tcode ZVETISDATA&lt;br&gt;&lt;/div&gt;&lt;div&gt;ВЕТИС. Запросы справочников&lt;br&gt;&lt;/div&gt;" style="shape=process;whiteSpace=wrap;html=1;backgroundOutline=1;size=0.03333333333333333;" vertex="1" parent="1">
          <mxGeometry x="700" y="-100" width="300" height="60" as="geometry" />
        </mxCell>
        <mxCell id="B8nlWepwXldUqVJ7dMo1-5" value="ZCL_VET_APPLICATION&lt;div&gt;ВЕТИС. Взаимодействие с системой МЕРКУРИЙ&lt;br&gt;&lt;/div&gt;" style="rounded=0;whiteSpace=wrap;html=1;align=left;" vertex="1" parent="1">
          <mxGeometry x="-280" y="320" width="250" height="60" as="geometry" />
        </mxCell>
        <mxCell id="B8nlWepwXldUqVJ7dMo1-11" value="" style="shape=image;verticalLabelPosition=bottom;labelBackgroundColor=default;verticalAlign=top;aspect=fixed;imageAspect=0;image=data:image/png,iVBORw0KGgoAAAANSUhEUgAAAusAAAC7CAYAAADc6NDjAAAAAXNSR0IArs4c6QAAAARnQU1BAACxjwv8YQUAAAAJcEhZcwAAFxEAABcRAcom8z8AAPhXSURBVHhe7P0FeBVZ3+UNM++87/vNN/bMPDK3P+1NK9A4wTW4BbegIVhwJ7i7a3AJriEQ4gkh7u7ufjQ5kd+365yTkIQAh77vma8bal3X6g6nqrb8q/Zea+/aVdXilzatkSlTpkyZMmXKlClT5m+PLVp++w3v4nctv+X7777V/7+57TJlypQp89OkpAuyNphGOVamU46VTJmN2cLP15d30dvLi+fPn+Pt7d3sdpkyZcqU+WnS1cUFV1fXZrfJbEw5VqZTjpVMmY3ZAhOg0WiMf8mQIUOGDBkGVFdXU1NTY/yXjHdBjpXpkGMlQ0ZjvNesV1RUUFBQQGVlpfEXGTJkyJAhA8rKyigvLzf+S8a7IMfKdMixkiGjMd5r1iWTLpl1nU5n/EWGDBkyZMiQTdWHQI6V6ZBjJUNGY7SQTPjbWFVVhUqlIj8/H7Varf93c/vJlClTpsxPjyUlJZSWlja7TeZrStopx8p0SrGSKHsOmTINbFFUVMS7KM2q5+bm6v/f3HaZMmXKlPlpUtKGvLy8ZrfJbEwpTnKsTKN8XcmU2ZgtpDXpb6O0BEapVOpn1qUZdunfze0nU6ZMmTI/PRYXF+tnQJvbJvM1Je2UY2U662bWZc8hU6aB8pp1GTJkyJDxqyCvLTYdUpzkWJkGOVYyZDSG/DYYGTJkyJDxqyCbddMhx8p0yLGSIaMxZLMuQ4YMGTJ+FWRTZTrkWJkOOVYyZDSGbNaborqSsvJikvIVFMvjExkyZMh4K2RTZTrkWJkOOVYyZDRGi1rjH2/Dp2XWa1EWZuDm6cmRFxG4xJaQlq+iVKOj2riHDBkyZMgwQDZVpkOOlemQYyVDRmO0qDD+8TZ8Wma9lMiwcM7fDMYrLhlPB1+O2XlwJzCRDJUKra4a3ftGNxJqa9BVaNGImOne9sXkGh2VYh9tRRXVNdVUVWjQqJQoFQoUDahUaamoEulVqlEry42/i/1U4t8N91eL/d6a2TtQK+ok8lZrKhDZNEGtqEoVOq0alVJZXyY9Rbm0DQ8Qda7WVaBVq5rUQfxbKwY79XETaVaLNCsN5a1pJp61okxV+u3VDY6rQy01VVoRi9fpq8Vgqsq49Q0Yy6XWaKgUiTVMTipHpaZBDJUq/VuPVPVpK1FJZa8R5ayq1LeBqjcKJNKsEvFT1aUhjpHOqXGrAYY4VmpFzLRVvBnman36FZXStdBMQGTI+I3iw0xVLdX6fszYVqQ+TOoDjFs/dsgG1HS8PVbiGpJ0Rluh78+bhVE/NBWGvrtaJ/rdN3RJUKnWa0yVSE9T1383o63lSqHNldWNtMMk6LVHlEOjRWTzxvG1Qvd1WpH2G9qq1uf3GlKdhT6IOrzWJgOVQrcbyr4+TeErKnVCS5opcK0okxSbSqE1Vc1VqFrEQi3KUy6lL8WiOV9gRK3QYml/UYfKJlouabiuQmhhXVn12ir5iLqyizw0kp6+1la9PjctU43kKeqOEfXVCk9l3FQHvV+QvJQ0qdo0AfFvSee1Un3fdr38TtBCafzjbfikzHpZAh7evhxyySVPNOSi9GyCw+MIiw7gmac7p5zDeZqpIkdcve8671WaDAKv2LJ222HOeGc3azjzXp3h9PalbLX3Iyo9CIe9c5k3YTijxoxl7FiJFoweNYk5S45zOyQT34c72bFwOKMtxjJmzBjGWFhgIf1f0EL6e/1ZbgTmG9M3Heq451zdNp1pNrZcC1agbtQwNeQE3+XcsvGMHzOa0fqyjdFzxIylrL/gTHSeoROr0abjd2kDq6aNZMRoYx3GiDqMn8KEVQexf5lGiX5kWElhtAM3969j1+N4UkubBqcaZbYfz4+uZOf1lwTmNCiQToEq0RsHu63MmzVZxEKkP3o2C1ad5oZXLBnCWDftV6rzIvCyW8osK2v2OiSQozFuEFBlBPL00FRmTBqlj6tUXn0spXqOHsmoqXOZf96bhLx0Im7v5ODhMzyIVBiPFhCdRGWuN84Xl7Js1ijGjBbpTJ7F9F2XsY8qorh+BKGjIMaBs4tnM8fqDM+SilAbt+hRHk+i8znWn3DCN1sh38WR8buByQZUiHp5gje3Di5g7lTRTkaPZtT0RSw4+YQX6Roqft86ahJks2463h6rMuIdj7F940Z2P41H20xnWRb/Avt9i1h57CmhWbH4CC1ePlXSJUm7DBo2etQEJlluws49gUCPSxxfJWmAQU/HWIwWOmD4W9KE4Yv3ss8pWZhJYwYmojrTD89Tc7FevILDLjlkN+r0qylJ9uDO+knMHD/SqK2CFqMYNc0am8N38UlWGY1pMTEP9rN71hCj5hu0aszYcYxZtJVjDmFkGkNVnv4Kh93W7L/uQUT+my67QpGI5/El7D95A/fkBlO1on1WZobgc/sgKxdMZ+QoofcjLZk+ew/nngSSoBTbjbvWoaYsjbh761m5aAYbbgQTUWzcIFBZnIzvxQUsnD7K4AcaaquI7+hJ05l04AneKZlkuJ3h1IF9nHpZiKLS2BEIba0tDyP40VZsF1jo/ceocZOYtO4IZwKyyagvehXlGd482GyN9fT9XPZJE9FqgMoScl/Zs2b/XR6G5r5h9H9PaCGd43f1k5+OWdeRHRnMYzd/HPPKyM1N5I6rH7eiMsgtKyAjLRmX4GgeegVx9bnYL15F/ltuS9RU5JJ61ZqRfScybIsraW9EOBvPrUOxNOuFzc04IqOfctjiCzr16cOERavZvNGW9evXsXaNLXuO3ORVcj6JQZe5cmwVazdsYrVotAM7/Yn/1m06lovWsnHDOtZdesqL1A8VAhXxt5azpvf/zRc9+zHsbCRFmoZlVRD70Babnn+h1ehpWK9YxyapbBsWMXNEJ/q0G4jVFmfCxWhXow7n3mIzevVoT69Zy0X5bdm4cS0rFk9gZOcf6TdwPSdd0imlggzPg2wY1YFB+3wIyW3aoVRRHHuHoxNbMXD1DR7G1/WQpWR5n2PL2IF07TuVUQtWs8JW5LF0JjMH9aR71/FYH3UhRlHZINo1FPhf4KTF/+SXTi35eYMD/tmv5+ArSmIJfLyFnVtFrFcvZ+Gwr/mybXtajlrOujWrWbdjH/s9YsgoiePZhgFYjJ/DDpdCw8E1Smpib3Nw+VD69hvCZDF4sRUCsnrxAiYO7EePCdbsfpZChn5wUEmax2Gsv/mP/Mf/9wd67HtBWEmDewH5r/A/PZdO045zN67w7XcJZMj4jcE0A6qgPOYeh2YOY3D/foyZv4BlmzaxfM40RvQfQv+5pznjq6ZAa9z9I4Vs1k3H22OlIe/FDhYOHUxX6ztEVja9M6Mk+t46Fpj9wvi9HoSmBXJ3WRe69exM79kr2LB+PbYb1gtt3cDmradwCksjNe4pD+3W6LV17fwJTO7yn/lDl+GMnruGzbbrWH3qJtcj8pufiX4rqsly2c/Rgf+BX3p05KdtXvhlNbSKOrL87Nja53/SYdAwZixbyybbDWzctIwFlgPo90tXxlhdxatADGTJxWPrEMa2/xPdpi1k1TpJWyXNmsXEvm3oaTaTLVciyBOp5kXd5ODgPzNy9UWck99UEnWhH1emfssoy9VcCFLV/Yoq8Qkn51oI/bZgsIjTkk0b2bjCmsVj+9CvmxjIrL+NW2ppo1iXJb7gjuUfMO/0B/48/wpng1/PhFWpsknwOMCh3SJ+a4Sht/iRLr/8mS+HLGD5qnWs37qTTY8CiChMJ+TsTGaMGsHMG+kUGfuA2lQXLm0ew2DzPoyeuJC16zewbuVyZo4cQsfB47C54ElMqbSnjsLIG+zs+T/5H//XX/hmwUWepTcYFWmySLi9lrajtrDrWQK/5y5GNut1UGXh5B7IJZ8k0tX5RIf4cPCeCwc8g7gfFIN3dB5puQoyQkO4ctGB7Z5FxDaYZG2EWtEoc+6ye/xYho7bh0NebeMOpciZA2MGM3zAWh7k1ZCf/JwTk1sxet1RnsQWiUGuWv8xKqVSgUYjNSjJsGrRValQaavI8znDnoWd+XrVE9xii6nSiv3FSPR9S5oaQ5x1bSQP9i1jy7whrNixiGGzz+KZpBTdYR2EWX9gy+qx3Zhk501EtoJKrUaUK4eMl4fYPbwjPTrM50R4IfllkTxe2RuL+avZ45Ur9lGh0SopzfXj5fEpjP6qMxNX3cJfoyPT+yibx5kx/KAvoaL+jVFFSdw9Tkxrx7D1t3icYDDrytRnnF06kO9aj2Tapsd4JBVRUiE6sqJwQuxXYtW3C22HbeeuGN6r6y7omiwC7+5n4yRzNu+dg/mUXVxxTafMuNkQVxVqkY6yKJuQkyPpP2MO4y8lCLFQoK3U6ht3VXUyjhsGM2HKPHa7FemPrCoKw3/XANp07s6gpfZ4hRejEW1FkZWE74nlTOryZ9rNOcPVcOn86YRZP8b63v/Md7+04a+9NnDGORVFXTkL/Ag8t4Bus05xP75INusyfjd4vwGtQZPpwuNtQ+nSdQSLdt/mZUouRZUVlMb58WjdQkb3m8eix4Uk1nmHjxSyWTcd74xVmSc3VkxlUB9hOJMqKW8oIZoAnmybxbBOczgRXEJhaTgPl/dk+KJN7PeRPu6oNCxxEdqqUgkBr5F62wp01dKSxyqKwh9xe8lndFhygptBhQYtlpZRGFI3HdUZuNltYeXwnqzbMY8eFru55p4mFLUOBrO+c9jXTNh9g5dp5Xod11SUkhd5i3Mze9Dry5FsFTqRpivCc+tgZlkMZMPTeIoVGrRCW5VliYTfXoZV618YOukQDiWQGXmHoyM/Z+z6K7imNGPWiwK4PvNHxs1ez+UQg6mtzPflxcFxdOowEPO553kQmq1vnxVlwgt57Wf9uL582XEhBxziKKuPdRnJPpdZP6IfW7dOo/fYddie8iW/PktpR5XQUKGtCiUp1y2xsezMsOMBZBUp0QrNlZp7DYUEnpnN7HFjsLqVQYk0nqktIu6SNd06/0Lrift44J1DuUqDukT4stuHmdPlv9N6+DwOe5WIKFZTEHGTwyP+TMe2LfnnDgvYdC2Uojpt1WaTeNeWTuN2sNcpUTbrHwNUsYFcdw7iqlCM8tIC4gOjcfcJ5/LTF6w//4it9yPxy9ZQnp+N+6NX2EeUkvHWMy9dqMk832zBxKGT2ewiLqoGHUq51x4mD55I3yWPxF7VlKQ94/jktlisv4ZXjnGnd6A48DLbrTvyzYr7+DUcRX4IaqsoDz3Gzg227LjuTpCnHVtGTsL2cRIp9W7dYNZXjenFpDNhJJY0vFKyCb6+GKu2/VlzN5PUvEgcVvdhlNVmDrxsqLo6qjTOnBrVmSmT93IvrYrMl8fYMq7re8x6e6NZl7bnE3FzA1P6DWbYkVck6Vt0A1RmkBJ4m+Mn7+Aphtsq42S8LuMJ1w+tYP72BwSEP+bk5DEsPeaMt35E3hi1FeUEnx5D7ynTmXolgaoGC/BqdUk42taZddEjis69IOw6tr1+ou/CkzgkNHYZ1aITfXViHD26T2epXRBiOEWa+2H2TDXDevMB5g6awszNt3lRdy/PaNa7y2Zdxu8M7zegxUTf3cq8ru0ZvseJsPzGbVeZlkLAvSc4pSgprLuJ9pFCNuum492xyifowmKsB5gzyz6DrAZreasjzrF3rgUdp1zEu0SFRhXKvWW9GLboIKfCjDu9A8oEZ64v/Iz2iw7zKOrXn6vK1Puc2L6WaRsdeOl9nf2DB7L2lDOh9UlKZv0cO4d+w/gdjwhudIe5mBT3naxq15b5pyIILi7Fe/tgZo4awUbHXCoaSWYI95cNwnLgIg6L+qWF3eX4qC/eY9Z/Mpj1UMnAlJPqfIgV/bswYPMDPJqampoy8qKfcvTwRR57pxrMtEBtcSBul1cxzuY6T31duDBtBMsWH8Qhs3k3mWI/G+tJHRh1wp/SRrOK+QScncMcvVnPokwMEijx5MysAXSbsplDPgXG/Qyo1paQcGMa0wYPYeZeN5Jqa8gJvc6ZKT+zwHY71hZzmLr4JOcjlYZlOxU5JAmz3lk26x8DRO2rtUS5+3DXPYIg0fBrq6vRZuQR6ujH8QsuHHsSiXO6gsLaUrJSIzl/K4YQYdzfHZFa0h6uYtbEQQzb+5KCuidTa8sJPD4B8/EzmW0vLZCpQZHmyLEJP2M+3ZYTj/wJDQ0hJDiI4NBIolMKUegaP9zyjzDrNWK07ntgPDZLlnMquBJtsivX15kzeKcT3hl1NTOa9bG9mWIXTVojTxqD6ykrJrYdxZZnOWQWCLO+qg+jrbdx2K+hIKtR5t1i+8CuTJp5DMe8DzDrG24bzLrmJU+2zGFYv9WcilDQ7HMWYvBRWWF4YMUAHUkPt7LVejSrH2VQlJ+C/6HhDF99mlP+6jev+UpFI7Pe8DmDRmbdXTj9mhwSHmxjyJfDWHHej9Q3TIaSMiEaCzoOYMbyG4SIkVq6+0F2zhzOOvtgHM4sx2K0FWuvBZMv5SPMepBs1mX8DvFeA6qKwHHHfPr/YMkh7+zG60k/Mchm3XS8L1bFPifZPKsXPy1+SFD9g0gVxF+1xnpcH0YeDyW/oopaZQh3l/ZkwPhFLLvoS0iI0NaQYIJDIgiLz6FI3XDZ5D/KrIty3F7L6gWzWfK0jPzkILy2dmPSxnPcjqora51Z/5YJu58SYbhha0QmYY/WYtW6O0uvxBCpKDGY9dFCa18UNyhvLdUaN+yszJkwbDXnEiE9/APMepjQaV0iPieXMbzNVHa8SKX5ucJqoa0V6KpqjHlXk+93hRMLxSDhQhThmSUknh7JwmU27HTJFzV7Ew3Nelkj49TArN+WZtCLqAw7zqLeY5m14ykBr2/zGyFSz7/L4SkWTJx5iseFNWQGX+G0ZSdWnXPlyc2DzBw3jbGbnpAg5VOZR7Js1j8S1OjQSbPCz4NxDREXSl0wqoRhV6opLi4kPTGdqLxSMkrSSAh+KS5yBZn1ay3ejur4O+yfNYk+E4/hUlojTJhwdRoP7GaLxjVrL5diJWNZS3nac46O/oKfvvgL37TuQJfOnejU/hfadhvGmPUPCMpXS0fW4+8365Xoyj05OWUmy5Zd5KXkfiuSCby6ik5jDnHFP8c4EFEQ93AjK0Z0YcQOR9zDUslITyc1LRR/p00smTiEvqMP8zC7nDJlOI9X9GbY5MWsuxNNamoa6enJJEQ/4eaRSfTrMpUFR73FSLjSuAzGFLN+x2DWs+5yeeEUug4/yqMiw9KUd0M6N7E47lrNIouN3E6S8lCh8NrNoPEbWX4pjKaT66bNrM9nt4doMapEws4so+W/z2XT42iMq9gboBJV/mN2d2vF1OmHcS2qJdPjIDssh7DhSRox8Y6cntQHS6sT2MeL3Qv9CLZbKJt1Gb87vNeA5nlzbelMWrbawLWEovoldlXqEopyUkRfkkpaejY52aUohblq2ht8TJDNuul4b6xyPbltO5Ofu6zlSqTwJ9Jv1RHcXTGCKeYzOPhKo18OWa0M487irnT4+g/86Yf2dOoktLVje9qamdNrzjkcYgoaaevfb9ZFpjURPNq0jCWzDnFXeudDRS6lzusZO3MHOx/HG5fC6Mj2t2Pn4C8ZsfIsTwJSyEwXmpkRS9irU2ydN5SuPddgF5EvBrgFeG4bguWgfthcDCA+OV1oawopyd48u7oAi94jmbj6HiGiIjnRdzg6wgSzPkeY9QhxQGkQjpvn0OaX1ZyNyMW0GmcSbL+b5UOXcDJYRYnUaCMOs27JCmYf9iarmUZs0sz6nVwUpVlonq9lROc5zDv7imTjXq8h6lT7ihsLBjNp1EbOxtSQHijM+rQOrLrsT2BmBLdsholrYAGn/Cuoqcwn+b5s1j8KVGlVxDo/545nNCHFzUVC/FZZgaZSSXxcFE+eeeNWWtn87G5T6DLwPrGYxZMt2euvpUStoiZkL/NnLMDmuBdp+rZUS2myI8fGf0/fCVNYdegcN65e4dLF85y/fJ8HLukUqP7BM+tVpagCD2M5filWe5xJVGnQaDKJeHaYqT9PZteNUDL0DU5BgsM2bLr8G3/7vj0du/elf7++9O3bnY6t2tFn5HIOumSJrqQWnSqCB8t70u27v/F5215in77069ebnt06075NH6ZuuYdLRqXoGLVkeB1h04eY9YzbXJw/iU4jhFkvNsGs14pOKO0m+1YsYoj1VV7lKNFoSylOvMPSbuNZuOImIU3Wx36QWVcmEHpqCV9+Np/NT2NoNCmihzDrhQ7s7f4jU6cdwLnAaNanDWLd4xyyyoRRebiBWYPmMmmHNxl5voRcWCSbdRm/O5hiqq4snsHXrTdxI7m4vu3m+Jzl8KJe9O7dg+5dxaDffA83grNMNAu/T8hm3XS8N1a1JUQ/3MOyQb3Y9CieXGk6N/km66znMmqZPWFlkrIKCS4L4c7S7vQfPZLJO05z+dIlrly6yPlLt7n+OI6UgopG2vp3m/XaKmoTLrNt0QImrb1HmPTaR00eRXFXWD1oJiv3OBGhH7FWkRN0ie3Sc0zf/UDbrn0Y0F9oa78edO3Yia59Z7DGPoJU/exhDl67RmPR8r/xRZtu9OwjaWsfevcyo0NroaPzj3Mzokw/o10QdZsjH2LWSwJ5unEWP7Vdw9lIYZaN+70T+W7c3bMI88nHcEwupUyjQlvynFPz5zNn9mle5Nc2GgBJMNmsl2SiebqaIZ2ssLbzI9W412tIdfLn1sKBTB6xjpNRdWa9PSsuBRJaWova+yA7x09k5AoHQoT5j3mwCTPZrP/eUYNKmc3tCx489ksn712BEPv5vApgn3Mq6VrRII0/vxs1FL88wb6VExl+JpaEtAwSzwzGcvkmjnkVGtOopSTpKccntWH02tM8SxDNpVon4l0hYl9FlRT2Jpn9vWa9VtQl4tRIerT9ij+37s2w0RZYjB3GgO6t+Pa/f86wjY/x078FUkH84y0sH/g1naWn0Lft4cC+vezde5YTJ+7z3CuGbONlUVUexv3lvRg4sBdDl20V++xm396DHNh/lSvXXAhOKzG+rlBDhqepZt24DKbcjfvrR9Ozxxz2+SoobdoTNEVNFfkOK5ln/hn//G0X+g0ficWYkYwY1o0f/9u/0GXsNuxjGvUYpq9Z9xAqUJVJ7M2N9PpsHOuuhZBp3O81VKLTv87Kjr2wXHQJf20NGXqzPpC1D3PIljprRQAXbSwYPWkFV184EXR+MT1ny2Zdxu8L7zVV5SE82jSX7j9acyYov/7hbmWmJ27393Not2in48z5p3+ew3an+GYGvh8PZLNuOkyJlTLmIfar+zJi7wsi8nQUPl2J9WIbbG6loDJ235WlwdyV1qwv3MZBX2FohY/RSe8sF9oqLY+ubSI/f7dZr64k8+48pvf6C3/+qTuDhLaOHjOcYUM60+oPX9Bd9PH3EqQeXpj1gIvsNP8TPcZMYvHm3Rzcv5c9e05y9MhtHj4PJqncOElXm4XHjuFM7vYVAxeuY8eevUJbDwiNvYDdeUe8o7INs9tib8msHzbFrEvLYMLFdm0sXodn0vtHc9Y+SCLdBPEp8zvF7gmf8Ydv2tNzyAhGjZFee9mLjl98Rpt+i9ntXdpkXb2JZv22MOuKfCr99zO7+yTm7ndBKmJjiCFJuSOnp49m0pRD3MkW2hpkNOsXAwmRHimrjMftyEImjJnLJodg/K/b0n3CTtms/65RpSYn3o8TD+PxTNS+Mw6qpHic3fy5lq5F/T6z2BA5LtjvXkq/KRdxcH7BxfE9WLrxNM5ZdbnVCLPuwLFJvzBq1UVcUt6f+N9n1qtR5vpxdVpfhvQdwICpVsycPp3pM2Yxe/JYpg7oSrvpJ7kSVCLioSLuoS2rx3Vnsp0vUXlqw8cm3lhHVktlWQj3V/RmzPx17H1ZKPZRU6HViY7RuEs9NKTXm3U/wvSLthui6QOmUjzSCbhgzci2nRiy9SUxrx9JN0KDoigStyfe+GSoKKrIxm2TMN1mHeg5cTbTps9gxoyZzLC0xGpwJ7qMXsm6+0n1t+QlfNgDpipyfO1Y0r4NI9bewCu3SY9SkUO0vTXmnSYw/5AXOSLmaW4H2K4369lk6jNWk+26ky0zJ7PEegPn9y2i06wzPJDNuozfEd5rqmpyCL6ylmntumF51q/BG18M/Vx1USjP98/gb3+dpzfrH/Oadtmsmw6TYlUajv9FG4ZNPMQjn2AcNs3GZvF2LkbrjFpeI8x6EHeEWR86by9H/d8Qozfw95l16aNfKTgsH8v4zu3pN2m20B2j9kybyswhvWhjsZmtT1JFH19Nlr8du4Z9zcQ9t/AVulWrq9Bra00TeautycJ962BmjhmM7bNkytQVQlsr0b7hPGsamPWruL35MFWTB0wl11xM/GNbrNp/SZ/Fd3iR1tTn1aBVJeD1yAWPyFwxmFYQctGWhZ1+pOcYS6ZMF3Uz6uuckf3oMtiKCUcDyatsXAnTHjDNpqxCTW2eIwfEAL7/nMPiXDbxNzUaCl4sY/7QIUzd+ESY+RqyQ65wcqow6xcCCNZ3IDWURV3n2OIpjBq9mdM7l/DL+D3seyGb9d8paqlS5BLq8JB9zxPwfueUjoJY/ygcXWJJr37zFs87UZNG4NVdzOs4mKXLlmLeehabTnjyetArmfWnHJ/cBov1p3muV7NqYXIloytYbXglY8NL/+8z62UUBNthbT6PZYdf8Cq3jKLCQoqKSyjNjiXJcR9Th61m2/Uw8sSlHf/obW+DaYg6s173Nph3lUky60fZPL4LI496EpQjaid9JVWqq9gqPXBbEn+fk43Meg1FkTfZNakr37SZwOKzjrxKFZ25toZaTRFpATc5uHIGw8ft5kJYAQV5zuy2nM+UuXY8SSkmr6hIX7+i/GxKgi5gO30pVqKhR0lZ68sk8jXZrBsulIqCAJy2mtOz/1hs9rsSl6HVfz1NV1ZA3IOTrBzenu5zDmEXJN1B0ZHq+tqsi37ZAG0ibgeXMKvXz/ScMpkuU6TzX6yPgwwZvwe831RVURpzl/OLetBhkDV7rnmTXaSgVrQVTVkqwU+2MrtXa/7b/5zNTpcE2azL0MO0WBWQ5XOO1X1GsWr1UsYNXsiSzQ8JrZcfyawH68368EXbOexfTlWVjmpBvd5UVem1taGe/31mvYKqrAesGzuPyfMvCuNbRHFJMUVFJZQUZJPlfZ4Fo5ewcIcTqUIVMiWz3uzbYBqjzqzPGNnc22AaQjLrdzgy8nPGb77Ai2TJ+VdRJdW11vBwqKo48LVZD5FmjWpRpr3Afnk/WrceJo67xvOYPIrUtdRWKihJcOfizkWY91/OzkfR5KsCubFpFSOH7eJKaCY5om7FQl+lepZEPWHfgqWMnnaWl4UGPa+DaWY9kxJp2U9NNgF2cxnQZyCjl1/HP05BpfQhSq1KxPAB20a1otfoeex3y0B6mi835DInpjQ06wLVeYRc2868tl9hPnEU3w3dwxnnxhN0vzd8wma9Bp0qlzBXDy44hfAoMoPQjFIyS5p8pleISmVuOK5uvjz2L35j1Pt+VFMQdJUTI/5A6x9+5H8OPsapl3nGBzglGGbWD1l8Rc9xk1h5+Dy3rl/jypUrXLl8iav3HvIkURjQ+idfocj/Aptnt+GzJXd5lfZhZr2qJAq/47PpNkX6Ylh2k3NfJUy3J6fHjGHxplu4laiIf7COZSPMGHsylIR3mvVg7i7pxtAZG9jr1WRBeCMYZtbXDf6KDrNXs/XkReyvXRV1vcyF59545BSRF3OH45OkjyLZv/4oUnUOsQ+2MbNLa77rPppRK45w6OwNbp45xPoJI2n/dXeGrL5NUH4OmU9tGTNlJXMvhDezBjaBp+utWThtKxfidPUPFEtmPejECLqOn8yEi/FNzHoiDmv76z+KtL3uo0io0KXeZr+lOX16TGPRhlNct7fnwuE9rBwxgO49rdj5LBnDDZQKkp33sHliX1bezyK9QXhKQi+ya84X/NPnv9Bp6CFckkoaXBsyZPy2Yaqpynt1nGXmZvQdOI7Ne49gb3+Ty0fXsGp2e77+shV//M+zOeicIC+DkaGHabGqQZPzklvWbej8zR/4555r2PwoWfTMdRBmXejSrUWd6TV8GBN3nOGq0NVrVw3aeuW6PfcjUklr8CFAZbwTV6z/SKt5B3gQ+WHnqlYj+vbbyxg0xZYFV2IalMOA2sowbs2ZhM3svdzJqSD11Rl2DPyM0VseEPROs56J68b+TBkymHUO7zHrkbc5OOjf6D3RktVHL+i19aqo66WHz3AQg4ecHF+uT/uWUdNXcyG4roQlFAWfZ9XgzvzQtg8D5u9i56mb2Nud4LDNTHr/1J32U05wT8Sq1PcQK+fNZ+A2T1Lf+OxwDt4HVrBswEwO+xZT3GAUlHzNktljWzP0qG8Ts56H36npTB81ghn2rz+KVJ3rykWb4QzuPIzpSw5z8cp1rp49zjbL0XRqO455xzyI1e+rIzfoAkfHt2LJOT+CGnQg6uTn3Fn7Nd/+/BOft13HRWHWP3Rq87eET3oZTK30ISGNhqyCTJ6+8GHfVV+uiNFabHIJmcUalOJik2ZFY5zdufvUD//SulcXfSCKowk7b82oEcOYYxdGaCNFqkGR/ZJrNv0Y3LUNHbv2oGePHvQQ7N7VjD4jJ7PwcjBxDV5CXBb1iDNbJjB4nwsROR92Y0cj8rpjO4UFBx/zMr1Rq9GjRluA39l5bDhyiUeJxaS7n+Dg0umsuh1Hevnbai+ipIzBZd9MbDaf5JJ+xP42VJAXdpvDU7vQpXNHOnUT9e3enR7du9Fx8lpWP44kJ/4FdzdMYMGRZ7in1fVMYmStzCbr1W3ObJ7L0IF96dK1O93MhjF64kb223sSVlSOpjIV7+PzWbzxGJeDmutsq0l6sovduzZx2Luk/nPVtZVKom8tZcaadax5nKafJa9DbVUGXsfmsWL1Vuz8S42/ClRrKI125+o2SyaIjq57t66Y9R3MkAW7uOyaTJ6q7ut6lWT6XeLM2rkcds0nt2F4qtMJubuZOe37MGLeRTyzFPIyGBm/G5hmqmrFYLiYTNF2Dy8bzvD+nTHr2o1hg8eyYcc+Lly6zBbz/Tx8mSxsw8cL2aybDpNjVZFP+pPNjDHvjMWmW3hkNNQoaUIuDqddUxjTsw1tugidaaCtPfsOxPLwM15mvO5x1Wm+OOzoz/idV3BLNOk1EvWoVcbifmAWi7Zf4HrYm7awtkpJzM1V7N67A7sQ0R5C73J+wWCWn3EjuvDtzqK2Jp+AU9asX7SQ416Fr99Y9wZqKE1x4ap1NwZ3a0uHOi/RVWjtqNlMvxRAXEoITptGsWzTER7F1AmR1D5LKQx15M7BpYwfaU7HLt3o2mUgAwcvZtOpJ7zMKqFMl0f4tdXYrtnAHpc8VG8IVS3ZHqew2zaHHY6p5DUIQZbjRrasGo+NfQSKRlaymMg7m9m8fCmbn+VSVjcAqNGiyQjm2alVzBopfRm9G2Y9+9LPcjXHhEdIkSZV9TvqKIx+xI3V49h/P5Lo1188FMUpJCfiHOuHDKXHyL1cC8jS30n5veITf8DUAMm0l5cpyM3IJtzXn4v2z9jjEIFnhpI8ZRa37F9x7UmS/nO+vwq1OioVuaSlp5Fb/no2tw41VWpKs1NIiY8mOjqaqKioekbHJZKar0Rb9552gWqtguL8DNIKxe9VRjNbW0VVhRq1/sunb6FCqf/gU15mCjnFSjTNuUJhUivKssgtLKZMWyU6uyKKcsW/yyposgytEWprKlAWZpKTX0yp9h07iqutSltGYXoiCbFSfV/XNSIxg/RiNboKUU5RP+l2uarpmhDRiJVFWaQkxBqPSyApvUDkWffGnAoU+emiHEWUv6VXq1IVUFCYQ4GiSqquAbU1aMtyycrLI1fRJFNx/lRF2eTm5lOiaTBdIEHEXVWULsojlSWSqNh4ErKLUTaKrRjMaEoozsumSPRwdafMgBpRnmJyE5JJzS4R9X1X7GTI+G3hgwxojYay3GQS46KIFG03Li6ZnIJS1Go1JWlFKFXS26I+Xshm3XSYHqsacVkVkZaSREZhOU2lR9IlRYHQSqEXTbU1KiaWpJxSFA1miGsq1WL/VJFWKap6waumWqd5t7YKKsqLKchKIaugpIkhfQ2dMpeCojwKhQ7oNOWUZAtPUKyi4p0XfhWa4mzyc7IpFsc1r2oGVFcqKc1KJjkupkF9hS6JtpYk+YhKDSqhj7lCHxVNp+hrK4X255GeFKc/LjIqjrjEbAqVFcZJJ6F1hcIL5OZRrGl+4lL6aFGZ8AGSX2goZTpFPvm5GeSI3xvctBaoFrorbcslX+hxo1UNIodKRR4ZScInSOUR5ysuPa+Jrkt+QkFpbjqF5do34lhbraIoNY3ktAKh3XXPMvw+0cKwaunt+BTM+mtUi4u1WJzYdIISk3D38efc/WdsvB/L0/iK3/aMpyKK0EfH2btyJatXrmLV6tWsbsSVLF+ygR1HbhEoGt/HLIoyZMj4PwPZgJoOOVam4zcVq4pUUrwucXTdGtasWMnKZrR15Yp1bNxxHpeMot/1umgZv120eJ9p+7TMegPUasjLSOVlcByeaQqyfuv3T7RZpIe44HjrFrfeQvvr93js5EuyWis/xChDhoy/G7IBNR1yrEzHbypWVYUUxHvjfOc2d242r6037e9w/7EnUQWlslmX8b8FLYz/fys+WbMuQ4YMGTLeCdmAmg45VqZDjpUMGY0hm3UZMmTIkPGrIJsq0yHHynTIsZIhozFksy5DhgwZMn4VZFNlOuRYmQ45VjJkNIZs1mXIkCFDxq+CbKpMhxwr0yHHSoaMxmhRU1PD2yh9ZU6r1erNumTapX83t59MmTJlyvz0WFpaqjdWzW2T2ZhSnCTKOvp+1sWquW0yZX6KbFEkfYr9HczPzycnJ0dv2JvbLlOmTJkyP03m5eXp2dw2mY1ZF6viYukT9M3vI9NA+bqSKbMxW0gdx7somXTJrBcWFja7XaZMmTJlfppsaEBlvpsNDWhz22W+phQnaaKwuW0yZX6KbKHRaHgbpSUw0roxqeFIX+iS/t3cfjJlypQp89Nj3axPc9tkNqYcK9NZN6BpbptMmZ8iZbMuU6ZMmTJ/FWUDajrlWJlO2azLlNmYsll/g1r9w7S6CvF/bXPbZcqUKVOmRNmAmk45VqZTNusyZTambNabUq0SdS6joERBmVL8W9RZK5t2mTJlynyDsgE1nXKsTKds1mXKbEzZrDegtqKCsvwMvF95cfR5OK6JpeSVaVCr1fq6V0jGvZnjmqNWW6GfoX/r7Hz9dilNQenvykr9++wbUtpHGiwY0ntzez2N+zWb1xs05tcovQp9GhUVzQxOpDJK25o7/3Xb6tN6M433l924f30+r481UNreJA1jeRqfD+Px7yirVLZmz4kxfX3Zm24TfFsd3ohXfR2aS0faV0qn+Txkyvy98YMMaF3bqGtH+r8/nbYgm3XT+S6zbuhDDX1sc9tfX2fStSX4lr67XkMEm91ex3fl1Qybz89Ynua0ra4cjX43bjPW9XUaks6/Lstb61ZHfdpiXyn9t9XDmEa9/3hLefR5SWVoNg0pfYNHam6bPn192ZtsE3xbHd6M1+s6NNdnGNJpeszHwxbKZn6s46dm1nW6YmLCw7hk78YVz1AePg3k0t0AnCJSyVYo9BdJRTPHNce6RvZBZl2w0QXb4AKvT6/hdj2Nx3zQRfo6v9fpGf/dXDpSGaVtzZ3/um16SuWoS+P1vvVlb65BNuzE6vNpkL6e0nbD8VI6+jrr9xO/N91Pn49hW+M0BMVvUl7NnZPXZWyaZuPtjcpft3+j9IxleKNsgvX1az4PmTJ/b/x1Zl2ioS2/2X4+Xspm3XT+4826YH3fbdAPiZJOSWy8vQHrrtMPuEYbaoWUpl7j6nVOKlPD/cW/9ek3/V2wvh5SWobyGsrSYN+6vJrRVn3+Ypuhfb0rH2O6EvXlbH4//fHS9reVVVDa1uh347a69t5sWzdu15e3rtwN4vV6X/FvfTml3xscb6Qh7s1v+xjYolj8R93kxzpKgfo0zLpULy21JfG4e7xkz4NEkvIKyYhKwNUjCHd/Hxw8PbnsHoFLZhl54mKq0r3F9FVqUZamEHjnMAfPXuNucI7+wq7fV1xQGk0FeSF3uX1uN8cf+BGVEorrhe1sW76QhfPnM1/PecyztmH1lgs8CEnF1+EoR23nYm0tti20wWbJcpYvXsSiBfPEb2Lf3Ve5G5Ap0n7XxSpd7GrKC+Pxtd/PntU2xvykNJayZOVRDt/0JCCtHKW2Gp1Ip1KnJC/Bm+fn93HZKYzUQjVVoo6aiiqqNApUaf642R9i7XIbfTms521ix5FHeCXkoABURZmE39vKrrVzmSvKvmDREhYvWcayxQtZME+Ue+FirA89xFEMiDICHvDwwgnsX6aRUyrylq43kQ+VGWQHX+HMrkUsnGctjrFh0e5zXAvOJrsCqkQDrazUUJITjuf5HezdeI4HfikU1OoMsRAxr1QWURLlxLGLDtx5lUKp1KhFTLSik9AoSsjyvc7J3Ws5aO9BUE6tvk3ot0vHq7IJf3qOY+sXY7Nwgf78zBNln79oGXsvuhGWpURdo6OySiVi5YXDuT1cdo4grVBDtchHir22shpFTgwBj3ax96YrAckl6KQ46s+LTJm/T5pkQEUb0wnxVWdH8OLqdjaukPo2a6xXb2XLbS/8CyrQ6cQ+b+23Pg7KZt10NmvWxfWh1eYT7XyJk8ePc8ErGZXKqBPGfSoqayhOfIXj5d3sveREaFqc6HOPs2+N0LoFhr7boK0LsVl2gGsesQR42nNhh7gexTU5f4HQ1CUrWL5EaOxC0ceLfn7uphOcck6gXMrL2J83R22F8FJKoRUOZzixQTp+AfPmC72yXix0by+77RzxiBX1UlfrNauiUkVZfhTeN49w5sErAtOUoi4iLa1oC9L23CgCHp9hx4ZlhvYybw22u2/yNDiVAl2ViIWSROcTnNg0V+iR0KQFBl+wYonkC+Yb9HjHBa77J5Md68XzC/uFhoeTVqQ2aI+IVU2FKE/sfW4dXcpyGykGIp3NhznmGkOCspbaKsmgq1Er0gl+cJKDaw9z2SGCLKF3alFfvUlXK6hIcuX+3QdcdY0lX4qHvi1LGqumWOjuxf2r2XT4Cl4pGlSaSoPZl86nyD/p1V0ublvK4oUG7zNPlFvyCVuOPcI9philyEuKVamk79cOcvaJH8GZWqqM/YWkrarSAmKcDnPo6h2cI/OEP5N8lmH7x8IWBc38WMdPxqxL9dKqKIoK4JGTF+ci88nMyyYkJomgdGEUMyJxc3Nh3z0vzr6MxjEsSVws5RQqRINqlJbUACtQFkXjuX0o3XtYYLHPmyy11IkYLh5p5KjR5vHq4Ggmd20ttr/AM/Auu4f+iW8++wvftulEV7MudOnSiU4dezB0gi12njG4XFvCknEd6dS5K51++pzP/tf/hxZ//JEff+lEl85i37m7OeaRqj9HzY5u9RSmVaeiMNWZM5O/5ecv/si/t+pIF7POmJn1orOZBWaD5jJnoz1PQ3Mp1FRRQzkJbkdY1/9zhm24jX+aSrhjMVgRjSw3xIErttaMGWzOL2Zd6SjS6SLK08NsBFNWHOOiXyppWXH4X5jMzBFS2c3o+P2f+Mu//D/8p7/9TNsOnTDr0YtOy+y4GBhN8EXROZp3YMKxAGLztFSLBldRkEDo091stu7FALM2dO7Umc6dO9ParD99F2zjwPNIkgp1VNdoyI19wMEB/8Jf/68v6LT0Ck+zy0VRpc5GbC/PJPuxLW0HLWf6yVfkSmlLsaqqQpEfi/vmnph//x/524Rt7PRSoRHnTOqYK8QgQF0exb0Vvenx+X/nzz+2o3OXrph1ak/HH7+mbRdLrE+44pNVTjWiDCH2HJvaiV7TjnMvvABhQ/Rx11UoSXWzY/PwH+m5+hJPYkqpFmX7WGcBZH4afL8B1Yprv5zyND+e7l/KVHPR7ju1oZ2ZGe07dqX90DlYHXfBNUFJsfLjbg+yWTedb5p1aaJJ9McVOYRdmM+Ynj3osfIRCeVqKnSv9a4KFTEPt7Kw5zf0XHSZFxHuXF7YnlZf/C/+8lMHzLoIbRU61alTN3r2m8P+BwF4OO5ny0yhoUKfOrVuyfd/aMH/+4cv+bqV0OIunek4aRUr70fpn2GTTPTrMjWkKJtOg7IsknvLutPzs//KX4VWdBH5mXXpITRjFGYDZjFx6VmuuiWSIwy7rlpoceJjjkxqRc95J7gcWCb0Shq0llKS4MmT/SuwHDmE9t260V60F7P2nenafiCjZ27hyLMIEgsKiXywgtWThLYKTerY6mu+/MP/S4s/fM93wkeYSb5A7LvXM5oY54OsG/AVw2zvEpBu0PDq8ixSfC5yePUQhvVoQ9dO0jFm/NKxF12nLGPj7VdE5VWhEfVSlwZzbV5HWrb4J7612MWFxCKkVRmVQlu1ymJ03juYO2seI3c4kSi0U6M/V+KcqQoIPz+b8T+34J/NxrD8cTZl6kq9turPZ2U6nsdnMPK7/8I/f9uK9p2keHWic5vv+bnVCMZvuIlDQqEYWKgpT/fg7rK+dBqxle1P0iivFqZfaHiVKF9RvDvHp3ag24yNnPPNQYhrM+fo903ZrAtKAqEty8LVzYeLLqGEFWYREfyS3Tcc2eMcyPPwOEJjM4lNyibU+xVn7J6w0zWbiIIKYVqbpCdGxRWqEtShp1g1YgwDpxzHKU9c7MZbS5ViRKstcufkFHNG9rQSA4MSkqMec3jCjwxduBE75xCS4mKIiooiMjKKhMRkSsvKUCpSSE+NJDo2kaC7O1k3vS2fzbuEvWsYiXHRRGXnkCVG/o3K8gaNZj3lBedntWXY3GXsfBxETEwM8XER+Ho+ZLfNQvq37cXw1Rd4EFcmrKaCRM8TbBr6PWO23CMwQyMaggpFnBgNrxlO2zZDGb74Ard9woiIjybO356bW8bRq01v2kw4hnN8NuXqFNJSooiOicf30mJsJrSi0yp73ANE/RLiiCooJr8il6BLNtgM7860U0HE52upqSwl98Vupgxqw5/NLNl1zoPwqDhiwoJwO7WF6T2+pO0Ia/a55iO6bPLinnBi1F9p/+W/8p/aWbHkzCsKxICjolIMOkTHlPN0K2Yj12B11o88neG2XFVVOQWJThyb3pflM7vSdeoqZu72IEOa2dffjjOY9QdrBzJmnAUrb3gRFRNHfFQIYU/tWDe8G3/quZgVt6NRVdVQXSyulcurGd51EsvsfYnW1lBVjRh0BPP0wAz6ms1iv0MMGWpRLtmoy/yd890G1CDI6mwf3E5YYt6lLxNt9giz4ktwghiEP7vF8VkT6dNrHgvvZhNdJM04NpfOx0HZrJvON826RIMBrEy8xzGrcfQeuBn7lHKKpH7a6E1qtSE47p3D6PZj2PosmeRMP24v6cagmYtYey+QmOgooXfRem2NjY2jsKgYlSqL7EyhT3GJ4pq04/Ssv9Jm1g6OPTFocWR6JqkK1VtXIBhoNOulkTxY2YdxFsNZY++tzyM2NpLwMBdObbVlyC/dGDBjG2eDiiivEgPU5KecmN6RAYvPcC24jJoaHapMb57sm0zPdn3oY3mEU44BhMYnEB/yjCeHZjChcwdaD9/GFb9UClUZouyRxMQnE+JwnG2z2vDXWac5/zxUlF34gqwccqvKSHA/hu3Qnxiz9QFBmVq9hiv9zrB/Thc+7zyGRbsceBUYTXxMFH43jrF2eGva9h/LgluZZCrVaMvDuLmkO32+/E/8l1ZjGLn5GQmFanRC3Coks+6zl0XzFjN+rzNJerMu6asSVVEA19dNYt2MjoxcOJ9xGx4TkydiWbecpSIdrxOzmDG6HxNPOPEqNJoEUe5wt9vsndiLHzuNYcJxH3IUWmo1uWS9OMDodsMZt/4GfmWSfgt9LYsn8s5SRvWYzLLj7sSUGu5MNH+efr+UzbrUyES9lHGBXHL05WRQDtlZKfh5BvDIN5QbHi5sPHebNZde4RxbQlFaKu4P3DjunUNUYTNmXRhibYUKncaP6zZDGdt/Nvu9SinXSBeQtLZMQ7nfcWb1s6DHZDv8xb7ZcY84NL41o1aewylBmGFqqa6uFqyiusr4GkmJleJ4YfxyX9mx1aoDXy+9g1diiX4UKa3lkoSxcVmasqFZb8+IhXs45y8MuVQuaRAhylaUHsfDzQPp2nsc84XZza5VNTLrQZkVoMvg5bGZjO/TFfMtTwhJKUatlfKXGqASdYYHNw6vZ9LsfTgE51JWUYVOJ+ohGlaqMMwrprah5zZH/ZKaWjHCr6iSlpDkEXhpkdGsBxNfoKJKEcET25G07zeR0Sf8yS1Wi1G0tKZNh7ooB59j4xnVpxtjtzgSr9OSGfuYMxO+ZvbsCQwwm8TkGQe5Fa+gXORfq2jOrIv4lieR4HaAubN3cOrOZY7Mn8280bbcFcepRD6V0qyC0ayPnWTFDqcsUU9xLkWZdeW5hF9YgJn5bKYe9SZL7K8THXBBzCNOzRYDnkUnuOxXJM5jJemeF1gzvQedV97AJ6mYmo9w5C/z0+M7Dai0/ExXSOzT3Szr9wOdFpzFMSxX/7vUV1Rq1aS99OTG9sOc9M0lsVz0E/LMukzBt5l1qe+t0sXifHAmU7sNZ9nDHNJKdfo7qNL26pirHJ07jg4D93I/vYDCQl9u2vRgiPUuDr1SCTNcTa2gXl+F9rzWVjEIENpaFOXIlfmf0X7+Qe6GFAptlZZgmKKtIg2jWb+/sjfjx01nj3O20D1xvD59DcW5wpgemcToAf0YbutAtKqMotRnnKw36+VC+ouIebqH+ebt6bDQDpfIXH1bkepdUaGmMj+AV7e3Mcd6BxdfJJKnqhKGVWhrDRSG3mf//PZ8Nv8Kz6KK9GXXioFMNQqhcUfrzXpwljDrujS8DkzBokcXzLc/Iyqz3DA5JbVLlZKYexuYOagDraZcwDOrkHJFOLeX9WK+5WCGDJnFyIErOe2bTXFFNTp1M2a9sooKVQEFISfZsHgjR25d5e6FzSwYuoxTfnmi3NI5qzPrM5kxZjSzryWRU6oV2liFRlFMxv01zBo/jv7rHhNZKjxVTQXlOf5cm9+N8ZMXccQ5E01VFfkhjzm5oAud5x/hekCu3mt8jHfoPnmzrp9VVyuIcffg2nN/nmerUZaVkhuVhOdDT/adecK2Gz7cCM4UYpJPalIEl68F4hZfRKEwv80+cKpvnKWE2M1lyuiBjD/uT55CIxqVMJoa6fcZmI+axNgjQZSIEW5+7EMOjPuZIfP2ceNlCkX52WRmihGtGBXnFAijr1KLdMWFLYmf6FCyXp5j0+z2fLX4Jl4JRrPeXDneoCSeDcz6/N2c8S0TAwjxu77MouHrFOT6HmFh70FMXGCHR4maOM+TbDaadX1DL3Dj1EwLBvdeyNGAAkolMy41PHF9GES4jMKcVGJjU8gtEqNrtaHskllPdtjK0smt6SlMfr1ZlzqiytzXZv1MCIm5JWgTbrDdYgSj5p7georojEUZDQ/SChMt8lPGXWO/pdg+fg93MtUkRz3kzMTvWLz1FOcObmPRVEsm7nxGhNQBqHLIbWLWK0VDL45z4cEmc6ZsvsnD8FxCz8xhtajbhkfJlKglU15n1s0ZM3EuO51yxG9SZ19Djeiksp5upr/FYqYe8SJL6lRFh1epSCPh2U7m9BnP3K33CQt/xoONs+g7Yh1HAlPJFZ3ZxzyDKPPT4TsNqDQYLgvn2d4FDPlxBOseRJGqEm1Hv/xL9BOiHWmVKkqys8ktV6OQ+onm0vlIKJt109m8WRfUXzdqkhx2snxCdzptcCI4o8xg8DQqkm8vY9HEPvTb7Ex8cRnKgldct+mO+dS1bH6YRFZWJtmCmVnZZOUVU6pQiTQlX2M065EOXLT+d9oJLb4bUmAw603L0CybmPWxlux2em3W9Zol+nxV/DX2TBnJ4GHbuJdSTG6KE6dmSGb9rDDrClAG4bR/AcM6T2H941iyhamt1UnHGzW0QoGiKIOE+BQy88pQqIy/C7NeEHyfPdbt+Hfri8KsGwYa0gO2VbXSUlajWd/2kJAsDeS7cMxyFIP72HAiUNJwnVHDDe2yItuVi8vG06P1bM74Z5BdHMHdFX2wWbWNQyfPsGXWGEasus6rPOFNhN5XNzHrFUIfFXkJeOwZzJzl20TdhPl2P8nW2cOYbhdMfL6aGjHIeG3WLZh9NZlcRaUYsNSg05SjermPZdZWDFgvzHqJUr9kVaMUAzD/o2ybMgHLFVd5Hh7CiwOLGdDDio1PQ0mWJkU/0gH/p23WpQYgjLomPw6Hxz489kwiVyUZcFFP0dCzE9IJCo3hlX8svqnCqBcnExvkxSnXLGLFxSaNlptPV5ph1lHme4LVE0fS1fI8L4tUqGvERawKECPDvgyfsJpd3krRyNQUxD1i/8gv+bnld7TtYc6QwYMYaN6PfsOnMHP7A/wzS1AKgTOssa5tZNY944v1D4E0W443KBriG2a91JCu/gKXtqspz3Xk4LBuTBy7ieuJamI9TrJFb9bvGxp63HVWDRlH16GHeF6gQiE6pMYiK6UjhFp0oPUP5Ig8KnXVjcx6iji2RhoFv2HWw0jMykfltZOZPScwafNjgkRnVPfQp37gIjo+ndqX2yssmNh3HnsDVMSFPeLshO+w2XsL12gvLq+0YOSABZz2LxeGO4+CZw3Mumj4VbVFJHqcZ1u/Iay+5IfoT9D5HWTvyqmM2eFEfLnU6Yjy15n1CbPZ5pihf0CmUi2EIN6N67bD+GaYDYuuRaAQZr1C6jjFQECZHcqNBT0YOM2SRYsmsmFMXybs8CCmRNRB1Pl1rGTK/P3yXQZUevCrJtONK0um8fOPyzgflklhjTAC0na1GrXasLSgQvQf0gznx2zUJcpm3XS+3axLfb+4hmLuc2qxBV/02snNyGyEklCpETq+bjiT+w1n5eMcCoWRVRX4cW2BGR1afsnXHQcwaOBAwQH0GzqOUUvP8zQiC6VxsqtSaGthxGuzfic4X7+227TrsjmznqWfrTbM8krlVlOl8cN+6WjGmk3jqG8BWUlOnJkpmXXphQnCrGc+4dqyaXTsasvFqFyKRduobJqP9AyW0Fa9uTb+Jg008oPv1Zt1x0gx0BBll7Y1NeuhWSqIucoy87F0G36YF4UqlEKz6uqp1Up3L+Jw3jeL8Z93ZdND6YUbkdwTZn3B6kPcCgnj+bHZjOs5kW1O+aSVqKj1bWjWK6hCQUHycw4OMsdmwyU8RXFIdsRusyWd51/HPbmIitoq4ZOMZt1iFDMvxZNZrNLPuCvTgni2Zwy9R41n1CFvsspVhpl/EctqdRau+2cyatokRqxci+3YXgy0uYlHcim6WukZsYbx+nj4SZt1aRZYWVpCopcTN54H45WsMMzcStslAysuGl2lGMkW5JNVVEBUbDgvHF15kFZKjtpw4TSXrr5BibSrCgO5t3k2U8dYcyxUXLyKErRRJ4RZncqsTXfwLRAjyFo1eTEPOTD6azr37snoOTasWr6MpUuEcV2xjR3nfInJFWZTP+oV6f7vNutVasqKnDkxqj2TRq7mfLTRrA9rYNYjLrJowATajTqJW5kCpSkdmsjDZLN+NpzEzDxULzYyodsUJux0JFx0xk3NeoUuiAfrRjK5lyVbvVTEhkpmvaUw6zdxy1GS8XQPm0ZZMGqZA0HZaWQ676BrnVmvrqW2PJqXVzcyYuAG7LzTEF4dlN7c3b2SqZMO8DBFSalUPkW0yGcg5q2/pv2gKcyaY4XVrOnMGT+QEaOGMePQTZwSi/VvJdDfqamUbuMVkeG0Cutxnfj8v//IoMGLOBuaS6noCPVP/DeMjUyZv1O+06yL9l6T4sS5+VP44uf1XIrJogSDWc/0s+fi9hnMnDWDGTOXsGjxJWEwMigy2Rz9/iibddP5VrMu+n7pubBaRQJe59YyoftgtjvGkqmppTrtPlutpjDCcj/PkoVx1mlR5PtybaEZ3XtID/0vZNnSpYJLsFlmy5oDL/CNL0SlN7X/Z8x6ZVUId1eNYFLHMezzKCAzsYlZT77H+YVT+KnnTq4m5FAqBhKNzXpz/BVmPcwO677jaW9xSq/hUgzq6imZdV1tEu5HZmD5WSvW3EwgPkd6yYIw66v2cjNeeIjAq5yyHE23CVeFeU9FHXiAxXVmXSPOjyadNPeDWAxYygY7P7JqhLZWxuF6diOje6zggk8a+Trhfyoz8D5txYQOn9Oy13gmT5+N1ZzZzJk8ghFD+jLR9iD2YTkopdl6oa96X6arIj/gJOvn9OBvf2hNr65T2e4SR4ZCS7W0T6PYfDz8pM26tB65pCiLhxeecssjhjiVoWE1bJx6gywaXHVZFj4+vhx4FEpYSbl+prthWm9QmmWtKifp8Va2zh/F5CtJxKemkX51PBPnrWHro3gxoteJEaianKj7HBz/MyNW7OdOUDrlxQUi5rnk5RZRmK9FLd3qktKUyvK/fWZdhSLrMXsH92Ti+O3cTGnGrCfeYsPwAXTqt4abSSrKK5of/VeJ+tXPmIk8PmhmPbsA9at9WPcZzxTb+/hVNp5Zr5Bm1hUvsV86hgkDFnEoREV8+CPOTPgWmz03cckQnUNJME93WzOoz0x2vggk3GEnPUYZzLo00NckunBjdQ8+azuICTbr2L53F7v3L2PWoK70aD+Ftc9zyFGKAZsqhod6s/4XfuozBIuR/ej+y2e0+L9/ZPjaM7yUyqq/5VhXf+nujIrKAn9uruzPL1/2ZvCqF0QpVGhNPlcyZf72+U6zLs2sZ3twffl0fvnBhrNBWRSKQbLUV2T6nefUhpFYjOiNWZtW/Kf/aslm6ZVwokd8vzn5fVI266bz7WbdwMoaLVm+Fzk1pxMTj7gRnlNBifNG5sxbyNQTAeSoRb9draEs96V+GcwQ67XsdEklPz+PAsG83ELyc7UohcGr67clbf3fata1aqqUL7lmY8GYrrM4EVD45sx6zjPsV4+jQ0crDr7MJF/b9DkOyfRXUiU9M/X3zKzH32DV4DH0HLofx1zp7nhdPQ3pV1dE83z3LMZ83outDkkk5xtn1lfu4UaUEE91CkFXbRnw00Bszj0n2eMAKxcuYfw+YdYrqqnMDcfn8Ai+a9uX7pOXsnn3HvbsXcv8MX3o+tfuLLwYTGxpNdXS82/CrE/s+Ce+NBvA0GEDGNL9C/7pv7ek68yd3ItOo0x6vqveexrKV1kWh9OusQz66it6z76OZ47wZEJbTVuy9Pvkp2vWpaUq6hIykwI5fj2YZyH5lNVf/I0pGc/yhGgcX3hzPFQY6XJhFBs1oGYoxUpcVKqoO5zeZEWvebd44enJnTlmWK/cy50Iw2sFq2pVerN+YHwrRiw9zdPocqiRGrgwsXo2KJP4+x9r1vdw1q/BmnUx0q3WKclw3caMHoOZtOwavsJgxjdds17yiksLetK7TV9srieQqTY8rCOZfn1HUqMgPyOWAK8QorLLKJPMq9hmslk/HUJCnhhEpIm4TBzK4Ol7ORmpEvtIa/ZEWsYHVktDxCBiwmBGTD3C0zwNKVEPOT3eYNad00QYq0vJeHWWQ/NGMHbOIa4dWkWHUeuZe86PYrSkel1mi/nX/NzRjG59zRloPoABA80x79yGtl1H0neHN1H55cI8CLMuPWA6YQJr7waSlhSE27VtDGw3mBknnhJaIgYw4tppGGv9udMoCbkwE6sFs1l8N4tShVo/eGm4n0yZv2e+04CKQXyVIhbXIzaM+qk/C6+FkFheTa1kDLT5FJVkkhntws3t0/jLn+ew+Uk42bJZlyn4PrMuDQTVqZ48PziNATNP8jQgBve9M5m3YDX7vQpRCs2pqlIZzXoPBs/ewX4PoSminzY892RkgzT/sWZ9OrtfNFizLhlYkXdZ6Ek2jR+CucU+nmaUkJ/yvMGadaH9mijcj89k0E/tGLfXi+giHaLBGLRVWp5SI4x1WSqhvqGEphRSqDRq6weYdf2EW7E356xGMajnLHZ6ZuvXrEvvJq9b/65OecKJecPp1M6GS6FZ5JWGc2d5H+ZLZj2yWpRDQ37MY64s6csEy83cOrqaOQtWMGGfCylV0rbnnJ3wC+06dOSX3gMxNxe6KrFrO7q260z3lfdxTSwTA6pMvKW3wViYM+WsF6HRocS6HWP2sLGM3nIFxyyFKJdU99exlvyCxPg7y9k2tyvWF8NILZJeEftxa+sna9b1S2AKswl5/pB9zxPwzBajyWrJDDa+MCTqKlXE+kbw5HkggcK8los4vH8EJ2IlLvya8lCcj25kUvuZbN+9k+mtxrJmx0OCS4ThlJbKNDDrI1eITie6zPDAqNQ4pXREeaQlMGqpTFK+/0izvmi3MOsl+sYuPWmu1pSRHe/PxaU96dR/GsuFuBbRzNtganIJubyQ6V1+5Jdxe7gWkEhGqRqV1GGpyijM9OTygQ1MGrsNu4BccjXSwzUfYNb1b4PRUKVJwPXAJLr2HcGgLc9IyizTLy+SyluWEc+TLeL3Pn2xPOxBerWWrJgHnBr32qzrKiupUSUSeH0LU3/szNSpo/l8kC3L7QJQ1MTje207UzrPYcUlN9xDo4iOCCMsMpo415vss1lE62FHcIjPRaGNE2bdnLETrdgpPTRUC8qMIB5vMaPftGUcd0oS56halOt1rA1mXU3opdlYL7Zi6f0cymSzLvMj4zsNqGgDlboyUtyOsHHkT/wydTc3vBJQKKX1pzrRRsrJCrrJgam9+Nd/m8GWpxGyWZep5/vMukaro1qZSMyTvVh1m8muw/tZNnouNksu8CJXJ/SyUhjlOrPenSFztwkTb9C6uqWuks4bPuxjSPMfadYnjLdkj3OmYWZd5CF9wCg/PYqHW4YzeMAgxu1zJ1FdTnHTt8FQTpL7UVb0/57vey/lyIswkkuFQVdLk4sKyvMDcLm7G6spm9j9NI5EhTDZkraaatbr3gZTnUPweWum9e9Er+U38I0tFPov6iDioy7M5dW5pYwfYEbnxXcJyC9GKXzMrWV1Zl16HXK1fu149svjLO3Zj5kTB9Nl0ipm7PcgQ5dBrOsxFnSZwrxDj3kYEkdkeBjhEZHEez/i4c4ldB+5izOeyRTXZPOy/gHTJPKUVdSoC/A+PYUBEyxZct6fIpXoE0S56s6DwazrSLi7gp3zuzP/agRpsln/eM269EWs8vxUXj124OijAB7FZJOUX0p+iUr/9hLpojXUV40mNxo351fcc0+lRHotkclxkG7FFRPndJxtfb+gV7du/LXHJvY+jKJANGIpj3qzPqYlA2basM/+GS893XF1dcXVxRnXl6/wySwkTyXKLPbXm3Xvs9jObMvni+zx+JVm3W5GGwZOncWqCw64u7nj4eGE48OT7Fs6kf5dhzJ1933cMtT6B0USPY5jO/hbRm+WPqggRuXV4trIdOXBzmn0/LkTHScsY/3Zxzxy8sDr0VWOLJ5Kt3aD6WV9Cbe0Iv3DK/pOUjLrT7aweOJPdN/8+A2zHnBxAQuHdmXKyUDi9B9FUlIcc4e9swbSs8Molu+4yXNnD9yeO3Bjiw1ju/Zn6IKj3I8VJh4t2dH3OTHmKxbutueFZNZF45VuF+ZFPMNu3vd06NaKP/+yjJ2X/ClMusvVrVb0mW3Hk7g8yqQOXP/Qm4iRNgnPc1uZ1XYCB51iSS2N4/Ha/liMm8U2x0z9l9+qKsU5ibNju0UfJs8/y+1wFUpRx/oORW/WVQRfmMGcBbOwuZstz6zL/Oj4XgMq3bUrCifQfgUTevRg5NRl2N14gJeXN073jrNvZV9affkd//xfp7PLUV4GI9PA95p1oa2VVaXkRT/i+IT2DDRrzRc9l7LyvC/pkpkT/W+F3qz7cHWhGf0mTGfBWQfchK66uwltdXbB1V3oVVImGUrRX4s0K6sQZv0JF6z+wi9z93I76Fea9RW9GD20L/NP3MPd3RN3jxe4vLjMyc1zGdKlH6MWn+BOnPSsl4ripKccn9aefotOczWoTP/gqKYgFG+7RYxq34E2Q2cz7+BNbj/zwvvZXezWizQ6dKfblEPcCs2iWNJOSVslsx50l91Wv/AXqws8bWrWXY+wfvD3QsPvG7+VIuqc8YK7O6cysMtQpi87x70nrni5u/DwwAas+/VjwLQtnAouokCrRlUShP2SXlgv3811yayLfKXJMFVeDA83m9Oj51f8se1Mlh/2IDXzJc+Pzqf3+L1c8k2jWGiw4YFyDVW6LJJe2rGi92Q22HkRUZbNq5MzsBw1khmXEsguraC2poLi9EccmSq0dfRqTnmJMqgkT2aIdf3M+u2lbLMyY+6lcHlm/WM26xpxAWqUom7Z2YTERnPl7gtsz3ph55ZJera4OIU51r/fVFxk8e7O3H7sjlOqUj/6NK3xGqiVPguc6sGLTb346YeWdNvghFNSpRhxi22SmRdmPTf2MQdGfMb3f/03/vrVd/z4ww98//33fPft1/zcbSATj3kRlKEUxlY0TOPM+uY5Hfh6ScOZdWlwIToo0YCk0XzzlNaRayhOc+PCjNa0/fxf+MMXLflB5Pfdd9/y8w/f07/nWDYcfopvcjnl0uyFaOiJHifYNOwHxm65R6Dx62fSg7elSX64nFrLXIuefPP9D3zx9Xd892VnzLrPZPGBmzyNz6VQpTY0sjqz7rCNZVPa0KvZmXUbFo/ogeWpIGHWRcMWZa5QFVEY+ozrGy0Z3OUbvv/uG7797ke+7jKEGZtv8CK8kGK1qFeNmmwx6Dk5viWL62bWpRmNimoR5wwSX25lbsfv+dev5rDmhjs+t1awekJ/ppzwJ75Qen+7KIdktkUMdbWVpLmd4djk1lifdSUoLYqnGwYxbqIV258Jsy7NGIoYVKoy8Ts0nb6txzF1pwvR0nMMkumXzrvRrIdcnI21jRVL78lmXebHx/cbUNHupc+VF8Tjf20ni0b8TPufP+fblt/Rqa0Z0+dYsXqtLZM+W8KZJ2FkCrP+sa47lc266Xy/WRcUelZZnEDIqSm0+fx/8MPUg9iHq9BKy1lFX66fkMvz0z9g2u7zf+bfPhdaJ3T1B6Fz37f8hh9at2Polts8i1fo+2UhT4aZ9XnSe9YbzqwbtVWvU0019TV11RWoyqN5uKY//b74r0JbvxU6Lmn5tyLfr+hpNpTFm67zPLyAEm21MNhKCoVZPzGjE+ZLDB9FkjSvskKFMjuSgBt7WGU5gJ9b/cTnX7fk+6/b0aHDRGasPY19YCLZQk8Mnsxo1qWZ9Xnt+WzeW2bWh/3M2G0PhJdooOGJvjw5sJgJvb+j1Q/f0PI7oeNtezNs4SHu+KRTqBXtsUoMQoqCuLm8r/4BU/3MuuSNpGfVRBrZ0XasEcd//odBzD3lxCuvM+yc2oMRmx/gl64Q5lsaPBnOiY4aipJeinPSE8vtV0Tskwk4M5uZ0sz65QSyStRUC3OvVRcQf3kRc3oOYtCiO7wsUaCW3ognznu9Wb+zgu3zujP/smzW9cH9mB8wlQykVlwA5YpioqMTcPUK5+kLP+wfeXLBPZaAzHIKy3N4bO/GpfshxCpF/aVjmkvrbZTMX3k+uZHO3L17mxcRueQqXi+ZqBBCVlaYTOjzG9w4e4Ljx4/X89jRo5y0u8JdnyQyi9SG23fiIi3NiiLQ8yG3fOLJKDK8weaNfJul1GDUKEsyiPG4x+3zJ1/ndewYp07bcf+hB7EZpahEI5VmuKQOryhDdBzP7/BCdBA5ojHpG4V0m1GYUXVuHKHuD7h07hRHjx7j6LEr2D98RURmEcoa6Vb367JJg5/ilCBeud7jSWAKxeWGOuljqi0jJ+YlL58/wT0yR8TdcCdB/+R/hYKCBF+e3jrJieNHOHr8FCdvPcc3IR9FRY3+Fpm0jKe0IIlIl9u8DEkgvUSacTDUuUKnRFmaSNDDO1y2d8c7Lo3kCHc8HR+JvwsoFee10RIW0QmV58QS43MT17BksgrzSQ1wxNnFk6DUUn2adWa8OPEVT248wcErlmx9eY311f9fetOPJ14vPfFJLEOpvzvyOh+ZMn/vNMmA6o2OGMiKfi7Y5QaXzx3liOjb7Oxu4OIdTHxCAv63fYlJzqVE9Mcf1L/+jiibddNpklmXtFVdRmnSK+7euMTDl1Gi3xdG0tjvS1qnKs8mzvsRd4TWnWiorceOcvzUGW64hBOXq9IfI5lxRX4KMd72PPAOJSG3/AO0VdINDWpVAUl+jjy+dJJTJ05wzKitJ4Rm3bz9nDChWeXCqEsaKn08UVGcQqT7Qxx9oozlkDTEsBy3oiiNOF9Hbl4+K9IQunfUjsu33PFPyKFYDEikZ7he5y00KzeREO8H2HvFkJpvGIBI2wwaHoH/87s4ByWTW6oxariOKq2K0vRQPB+e4+zJo0K/j3P06gOcQlP1y0+kJTb6eilySXj1FG/fUOILDBNb+hhLX/hWZxL59B63Lj/BLSqFtNQQXjnewzU0jfwyTaMYaiuqUJXkkRT4EGf/SBLzCsmJ8sTD+QUesUVCi6XzIOqlFgOEjCC8Hz/h3rMwkqUvyIo89X2DPkZaioT2Bnk/wTsmjxLFx6+tLYrFf972Gd2P3qwbKdWrUlz41epSClIT8PQN5J5PGI89A7jy1AnbK0HY+xZSKjXoXxMDcYz0wSHpQzrSQ6VvXFSicVZW1VBTU0ttbWNKX1yr1jU+RjLs0od5pFlpQ+MWLIwk5NlFTu/ezR7B3Xv2sKcRd7Nj+wGO2z0gIL8EBbyRX01NTf270RsKZl1+htnn17/rG2tdWcSxhnSkNKS3wDQvulKnov+okJRW022Vhm36L5s12ibFT7orIGIk5SHykj6CoZOEvWFcjHGUfm8aY/3rqKqlchqOk9JrPi/j/qJe0p0A6XxJ14f0uqiqKuk5g8bnXypztUhTH5sGv7/eLj0M++ZxMmV+DPwQA2roK173c1LfViW9R1qalRQD+6b9zsdG2aybTpPMup7imtH3wUJ3quomaBpvl/rx6ma1VXqhQpNjJA3Rv2hB+l3qs7XoypNI8rnFxX172LuzeW3dtXMfh47dwC0xk2Ipr7doa1PNMmi/pIdCbxqV3aCt+u+VNNDWOt17s56C+rJLvuDNOLxbw43aqi+zyEvfLpumIWmgGGS8UU5BKV+9thr0Ur9Eptm86vY3pGXIQzp/Bm1tqsV6r2D80mxzd9v026UyvUXDPza2UDTzYx0/FbPekAbjLkZ15blEBAdy5ZE7dq8yCMk3vJrv77ko3h0/ccFJF25zfNv+xr/1+xSEEvDwJAfXb2CDxA1NuZ61q7ew56g9PrkFlOo7tgZ51LNpPnX8kLI3t09Din2a/V3iO/IxKY/3Hd/wt/ddz+/bbuR76ytT5sfJDzegDdtwg/b1CbQh2aybTtPNuoH666mZ3w1sfM014tv2b/C3riyeOI9LnNhky8b161nfjLauX7eJbbvP8zxOen+4ZGib5KNnwzwa8t06Y1oadRT7NPu7xPdp42s2u8872bRs70vDxDxEmm+vj8RfU9bfJ1s092MdpZP2qZl1ifoLVvxfrVajVEkPnL797sNvh2rUKiUKheI9VKJq9niZMmXK/DDKBtR0yrEynR9q1v/30qCtymb1tCGFtkoPUjabhkyZfx9ls/4OSvWV3pGqn4FuZvtvi6KMFRX6W8rv5FuWp8iUKVPmh1I2oKZTjpXp/G2ZdWnWWFo62YyeNqK0POXT8kgy/89RNusyZcqUKfNXUTagplOOlen8bZl1mTL//0/ZrMuUKVOmzF9F2YCaTjlWplM26zJlNmYLyYC/jdIrdKS1WHVmXf9uzWb2kylTpkyZnx7rDGhz22Q2phwr01ln1pvbJlPmp8gWJSUlvIuFhYXk5ubq/9/cdpkyZcqU+WlSmsjJz89vdpvMxpTiJMfKNMqxkimzMWWzLlOmTJkyfxUlQ1VQUNDsNpmNKRtQ0ynHSqbMxmzR8MX9TSlBmn6XOmNpCYyE5vaTKVOmTJmfHsvKyvTPNTW3TWZjlpaWyrEykXXXlew5ZMo0sIW+NbwDkkmXzLr0aiIZMmTIkCGjDg1NlYx3Q46V6ZBjJUNGY8hmXYYMGTJk/CrIpsp0yLEyHXKsZMhoDNmsy5AhQ4aMXwXZVJkOOVamQ46VDBmNIZv1JqjWlpGUHMvj0AxiiqvRGX+XIUOGDBmNIZsq0yHHynTIsZIhozFaVBv/eBs+LbNeSU5qAvcfeXDOIwJHz3ieeScSmlGC2riHDBkyZMgwQDZVpkOOlemQYyVDRmO00Bj/eBs+KbNelYO/XzDH7sSTkJ9PtEcQF656cN83lJC0VCIzi8jQ1Lx3tr2mWkl+fBCB4TEkFmmNvzZGRWECCRF+BCfmUqIsJDPyFT6uTjx//tzIZzxzfIGbdwSJBUpyk4MI8nzKs2dim9MLnJ1dcXN2wkna75mgb7Qo8/vOpgE1unLyYgPwc38hjm+cn5NzALE5CrTUoMyJJ+KlL8ER2UjdpuH9QEZoC8lNEwOZ5CJKVQryE17i41ZXPmecXVxxrSvfc/H/oETSS1WoC5KJ83XB9YWTYV+Rt778zzzwjUgnv7IWnaaYLBGPlw3iIe3j4hlAZGo5mvqC6FDmJhL1ygVnJ2M9pLREfs+9g4nMLqPCuG+tqHNOTACv3Bqn6ezuQ1hSMar6UWu1voyJUeFE56ipqDL+LGqvKcsiKtDbkIfgc5GPr18EWQUqdPp8aqlU5pEa7ImXS9Nz6Yynbwxp5VXy3RoZHw0+yFRVFJMR7SPahtQeHHF088EnIYeC+jb2cUM2oKbj7bGqoDQjipCQEKKyldQ2EiUDdIpcUqP98I9Ko1BVRn5SKAFvaN1zXrgEEJ1VSn5WLBE+hj79mdDWF85uQrvE/6V9xW9PhZaEpJdR00xeTVFbq6E4JYwQT3G80KRndfkJrXNyekVYahHlNTVoSzKI9/fllV8K+ZqqxtpaWU5JViLBsTmi/FpKM0MJ9HLkqaPQHH35JG2V6mNI1/FVJHH5CnRCe5KF9ri/qKunIW9HRxe8/OLIVNdQWSW8SVwAAR6SNhv2efbMkReuXoTEFyLkyYgaNMXpJPq74i50vC49Kb9nHn4EJuejrNPMahWFSSEEezrV11mKpZOLOwExeRRr62on1TuTtEgR94wSyhtYSp26gKRwX6MvMGirl4h7sthPa8ynprKMnGh/4TOaaqsTLu7BJBRohG/5eNHiDRPWBJ+OWRdGKzMSZ09fTocWUyA6ivTMXGKzc8jJjsTN05UDT/y4FplNcE4J2coqKmuMhzZBlSaFVwcnM3LcPBZdi0Zl/P01NMRdX8iysf2YedyToJgXnJvZjm6tv6F1p650796dbt3M6NKpDyOmbOOyaNBeN1ewYkIHunTtjlmHn/m55d/483ftaS/279rVDLP5BzjzKteY/rtQK8xoALcX96Rv26/5voMZ3bt1E+xKl8696T1gISdcEihESdj1FUz99ms6DNzChaQS8UsDpDtw68BaRmx6jm9KEr4XpzFnpLF87b6n5bef85cfO9G5cxe69uxNjzUXeRCbTvzDrSzv+Rd+bNueTl1Fvt27GcrfZSTzt9/lVamO4tQXnBfx6Njme37saIxH53aYmQ3EYsF5bofnUa5vwMWE269hbvfP+KpNezpL6Ym6dO3WidY9BjB59TmehZWhFgZcW+TH9UU9MGvzraizMc0u7UW+vRkx5wRXAjIp0jtuFfEOO1kzYxxWVxPJUUgnWYciN4hH5zcwdUx/Ooh8zLp2oZtZB0YNm8r2M57impA63GryI++wf/S3tGv9A207S/WrO5f9GTdnH/cTVChM6PRlyPg9wDQDWk1NeToRD46yzrIXvXuKtm/WlU69BtF37jZ2OcaRUFyD7n23eX/nkM266Xh7rEqIubmGWRYWTDj0ksJmBnpZ3qfZNrk7I9bd4mVyEI83D6f/L1/zbXsz0RfXaV1P+pgv4LBjJD7OR9kxp7PQLqEdnX6hXcs/8bfvWtGmo6SNZnSYuo51TxKoMOH6rK5MxWXHGMa2/Qs/dBAa0U3q/7sKnelGr94z2HYzkOSqCtI9j7Kiy3d8/f1ctrsnUtTQSxSG4Gm3noE2V3gen02s00aWT+xEB6EnXYX2t275F/72fVvaCe2X0u9stYeT/kkUht9g58jv+L7Vz0bt6abPu1MHcyYuOMLznAqKSiJ5uKQbg9r8Oz9K2m/U1q6duzJk2n5OuSeTq5UKoyHF+RCb+vyR1m1/ob2ZMb2uHfmla28Gz9nJdQ/DJJ5Om8Bz28GMavc3vm8v9F6qc5eOIt3O9B+7nf0OMWSIgYKko5kvT3NgSlfmnPAkrEASQmHgSxPwvL8P68kDhVeQtFXos9DwwX2Hs2bnTTwStVRKg4d8H67O70aXNi2NGm6oX+dOvRk4YgV2rzLRJ/mRQjbrdahVEuEXwC03MUJUlZKeFMTe647s9YojqqBEXOSlpKRn8crjJccvOXHEt4SUN124AVXlqL12YWU+gQELbhFimHZ9jZpI7izoz/guY9n3qoTUuGccG/8tA2YtYu/NZ/h4uuPq6oqLi5sYeYeRX65EWRJOVIgLriL/Z2dXYjPue/449QjHbjnj7SH2jU0mSW3KFFUtyhxPLs9qxcCpM1h56Snubm6Chvw8PP3JLioT8lqC/1krLP7Ygv/4l8603ehEdIHhXft6pNzl0pb5dFl0h1d5xZSXBBIa4IKbKN/jQzMZP6Id/251gRuPXuDt7YlbcjY5lcWEXV3M/P7fMmrraR46ueHl4WasqwcRceloaqoojr/PsYnf03vuKrbbO+Hp6YXXszucWToJs69+4ZfFN/FKlxYmFRF4zooZQ0XD3nmFB89c8fL0wNX5GmeX9mXQ150YOuc6Plot5fmeXJr1Cz0sF7Dm8nNDms/vc8V2Dv2/a0vL2ed5GCe1BhXR99Yyb2Q/xp6NJUsldTJpuOydxJDuHRm8ci83XD3E4M0Z1+fnOGY7gykLjokBTo44sprsoItsG/oFAxZu4PT9Fw3OpTsBwVEUq3Wi25Eh4+OASQa0Ko1kx01YisFt39Hz2Hr1Hg4vX+J4bh+rh/QRA+slLH9cRtrb+tOPBLJZNx1vj1UNlZGX2DnJArMxJ3BVVAkj1xBZ+J1biGXbPiy/GU9yTigPlpnRf+JU5ts54CZ0rk7rPIXWZeaXolYlkhhl0NYXV/ewd8K/0nLCarZcdOKlpxsu4TFEllWY1G9XVyTwZFUvLIb2Zt6pu3h4CK3Q5yfy9XhFSnaxsKxqkp7vZsGP/4H/8J//ymdWF3mp1zMjCvx5cWQh7aac5FF8AWq18CAhIg03b5zOLGftmL/yzfS9HL4ptF/Sl+hk0rRKsl6dwnbED3Rfvo/TD5z1ZZe0x9nZncCQWJRV1aiKArg2rSVDx1qw+tJjEQNPvJ0fcXffcob82IYvxu7DPqxYFKKCuAe2rOr1B4auO8RVB6GtQqs9PB9wbcdExn8v9HnYARxKKympiOPhwnaMHjmQhWce4OrugberI4+OrsPip5/4fPAGzvrmizRrSHM7wOYh3zJ2zwuC86TKFhF+YzXT+orBh+UaTj15hpu3QcPtts/Aep4t224nkSPdRc92wW56a3rOsGHdNaHh7m71sfV+GURuqaTAHy9ks25EbV4c99yCsAvOIb80h/CAQG69DOGq7yuOigv/mEM0AWlqStKScX7gyuFXxcQrjAe/AWGa1V5cmDuSMUNXcTFaJ/1Sj5oEe1YNsaDf2KN4a2ooTH3OicltsFh3lhfJhhs5NTW11NSK7qFWuvwMI1Dxi77DKA64yO4Fnflm1WNepUoKV6O/SE0zgZJZ9+Lq3I5YLN3HxTBxvD4fkXaNyKOmLr8i/M5Ys2Lot/QaNlWMYJdxxj2V0rqLJVUY3e029Fh8B78iaflNXRkh23kXC2cKEd7mRUqhVB9pzllCGWHXlmAzohvzr4VTpL89Jmol8q2R8tXf06yiJO4eJ6a1Z/jG6zxKkAYItdRWVVASeJtTc3vxw7iDXAstELkVE3zemrkTRjH7VjL5SinKIq8qBYr0h5ydZc7I7lacCiunMNub6/O6MGjFaS5HiPJKeVVXooh+wdWlA2k5fCuH3TNEmmpiH2xg0ZhBTLSLJ1strvtqPy5ZdmVYv9nscc9HJQ6ValRdVUZBRjShEckk52nEL1XCrAshsWjDuF33CcoxLHjRn0tRR8O5lCHj48H7DajQj8ALHJzWiU6TN3PxRTS5SmmmTLT0snyi7t1gj802dnsXk9ZgLuBjhGzWTcc7Y6WL5NnOGUzsOZ1dPkqKGopr/jOurphGj76buZlaRpkinAfLezJ84U6O+KtEt9+c1knKWa3/SxH3nFuLP6PD4mM8iCjTb5e2mKatkllP5OnavkyeMoMDXpJBFSnU5Vff/6uIf7qLbSO/YsC4yXQxW8Cue1Gk1a2PLAjA5fgSOk8/zZPEYn25pDJKy3BK/M9zfN53dFh3B+8UyeAbtF963i5TmPUt480YfsiT4FwpsYbaaqiBRpj16zN/YvzcNVwKMdSPmirUaYHcXTOUVoOXs/t5ski1kviHtqwb+B0zTr8kodiQRm1tBeoCLx5tHse4tqPY4l5CUnEiT5Z0YtKMBRx6WUSVUeu0WVE4bRlOl0FzWXsvVqhjLWkeh9k+4kcm7nclRD8NHofTZgvGdR3O/FupZKoN56SmSkVJdizRUbHEZirRiqOVWS5csOrM4NV2XI82+gJ9mepia4jUxwrZrBuRF+jDDZdgHuVUU6lSkhuZhPczX45ccmDdFXdO+2QQr1RTlJfKw9uBOCUokK7ft6OMgBOWTB49nLk3k+vXXUnRzniwnKEjJjFslw+lolmUpTlybFJbRq+5gvCL70VJ0BW2W3fkmxX38c8wbZ36azQw60uOcDXybWe/EN/Tc7C1Go/t4avsnjKK0Wuv455tXBXWwKz7FmoaXUPZLnuxtuxFmy3uZJQ2XKFdajDrw3sy/3pC42U19Xht1odtuINDkvFnCWURRF6cR5dJBznrny3G2iWECLNuNW4Ms+2zxAjfuJ8eabjtnoRlx9HsdishL1My62YMXHaea1ENul5NCsm3l9Fl7A52OSXpZz3i6s16HDnS3YqacG4t6E3fgVasdH7Xw8bCrAdeYsfoX4RZdyS8yPizDBkfKd5rQKvT8D2znPGt+7LwRgQZTWSkVqOhID6BlDLR8j5urZXN+gfg3bGqIPHhRpZY9MD8SCjJJa+FuNx9O+tmmNNtuQMxKi06VQj3lvVi2IL9HA96/wWmSnTh+sLPaL/oMI+j3zob91bUmfVJk6w44vO241XEPdnK7pkDWHnagX3zZ2A+9zin/AqEggjUm/VTPBZmveFAoVToy2GrlnRYY8+r9IYrtCv0Zn3z+G4MOxhAhDQ53gzURrM+bo4tV8MaHK8rJufRGgZOXM+Wx3EiNZ3BrJv/wIxTgaQ2qkoh0fdWsqhdT5bcySc6NwmHpZ2YOH0xR8XgqR7VClTOG5g4bTnLRdsXQ6UGZt2FEP1YJh3PfZMY1Wcko69mkNZw4NUI1SgznfVmfdDKa9yKM/78CUE269K4VJOP9ws/nngnkWEYkFJTqiQtOJ5nrqE4+iTgn6uksDqf9LhAzjzLJL5Y9864SSj13sfSScPpvfQBsfp1YAI1KTzbMIShE5ewwdkwslWkPePo2G/p3F0YxAXr2LxpI7br17Juy34O3/YnubzxLbjiwMv1Zt2v4e0zk1CLKu8lV+e0pUe3PgyetYaNG23ZaLuedZv3su2CFxF5Usssxu/0bNZYzeGoawx+t1cwsf9Etj5IMDSoNGHWdzRv1rOc99Sb9fSShtdNGeE3VmDd5a90GjGX5Ws3sknkvWH9etbvu8pd33TRoIVZT7jPyWkdGL7xHo5pxkOlxhp+i7MrB/HTjJPcEk641jizbjV+LFa3cxs8HKNBkXOLvbOGMajvKq4liYFVrhfXrM0YtOIiN2KNu4kUKhKeYb9pJN9NOsAJ7xzxS8OZ9TiylFLNSkl4bMvSGf3oPWUWC7ZuY8eVKzzwCyS2QOrW6lBFTrAYSA38jA59LJi5ZMPrc7n9GKefRJCtbfIwkQwZv2O814CWBnBv/Rw6/WjD+fAC/RrXTxWyWTcd74tVRfRNDtsM5SuLs7xIrduvgFcHJjJr6CDm3c6grKqWGmUod5Z0p5tZT/pYrhU6Z9S6TbvYbudKaFa5cWbaAGWCc71ZfxT14eequjIRx/UDGNbhR/pNWyG0daM+v/W2W9h88ikvk0tFfmrihVnfMWMktg7p+Lw4xOTuA5m77RHR0txbYeBbzXpJwMV6s+6T1nCiroIsv3NsMP+aH/tNY9bSDXpttd2wgTXbT2PnGENRrVC3kkBuSDPrVhu5HvlauWqyfHm4cwxtxtty0CVdaJRhZn3twB+YeTaYjHqbUUNlmQtXN49ncOeZHAwuI6M8gSeLOzFp+hKO+zUoU344bgfHYjZuKZseJYkja5ox61pyX51m5yJzOllMZvYGEa+zZ7H38CIsR4mi/uQI/c92w256G9p1G8wwq/X6+kmxXbt5P3uvvhSerLEP+djwyZv1Wl0FpTEvuecczsuE5maptWgKC8goLSclO4EgLw/uiBFtcw+2vIECYYpXzmCUxXrsM6rR1IgY5t1mx1QLZqy4jGuBtFMtZanCrFt8yS8/f0P73gMYOmQwg8z70X+4JbN3OBFRKL2b5TX+MWa9DV1afcWP3fszeNAgBg3sT/9hUxm94gFeyWViL4NZXz1rOseCyilKd+LWrEEMtryCXaCS2uyHXP0VZj3CfhVz2/8T33ToQh/zQQwZPAhz8/4MmLSF/WIgUCaZ9aRHHJ/4E12GzWbettOcv3CJS2cOs3fZOEaOMmfqKRciC6WOppigi/OZ3qctXWft5uDxs1w4f44zp3diu2gw5gMtmbXPizgRd1WBF5dnt6ez+RQsbU+JNC9y6ewxDq+dxjiLAYw59BifLGmmQUVMvVmPJbNuRkERQZjDdrZYj2L4oMH0GTOcCXMsmL9xH+ceR5KeL9WzityQq2wb8Ed+aC3K33eg8Vz2pd+o+Sw56kOySjbrMj4evNeA5nhwadF0vmy9GfuU4vq3NSjS/PF+dIYzZ89w9twNbtz0IyZP0WT98ccF2aybjvfGShWN25HlDOg4laOvstB30wpPjs8fx1gLW+4m1OonUaoUklnvRpefv+Cbrv0ZJLRu8EBz+g+ZyOilN3GJK/kHm/UkvVkf/OO/8H3XPgwaLPp/kZ/5oOEMn2/H/eBC/d3bBIetbLccxoYXJSTlhPNiYT+mjlzHAbcyKkuDcD35K8y6vx0b+v2Zz1u3NWiP0FYp7z4Wy1h5MoDcmhrUIm3JrJsLn2G54Tjnz1/g0rkTnNoyl4mj+zB82xXc9MtrtCSIAcWq7n+k5+Q1bDt8Tq+tdnYH2LlmPCPMhzN21UMCtFUoK2N5vKQLw3v1YNzKw6I9X+Ci3WnO7FjE1FE9GLzuOE/ipBn3KtKFWd9mNOuGNesCFWkkeR3n4LIxjB8+hO4jR2Axw4JZqzdx8LoP0elSPcUQJ9eDc5Y/0+rnlvzUw5whet9iTt/h05m84QkB0tuBDCl+lPjkzXqFugzv28+59zKeuIZ3lRpCWt9cJYxmWBgXngYToqo0UVQUxN61ZbPVWJY6FJFTXILymQ3Trdew4W6soYMR0S9JesrxST8zYulWLntFkpGSREJCHPEJ6aRlVFLxegCsx99r1g3LYNozav4q9j4PJykxQTBe5CcaTYoYnOjXkhfgqzfr0zjsqxOdUBlFLgcY0W4slruekJbwEPudi+m55EPMurQMZhk2w9ox7cQjAqMTSU1OFHWNJyGxkPxCKZUqSpOecGzc13z/3Ve07NCNPl1/ouW//5k/f9+fecfvElykMHawhQRfWsSUtv/CH39sR+du3enZsyc9evSjZ7fxLN57Hx+RpjSi1+R7c3Fma35u+RlfthNpdmvNj1/+hf/1RTem776Mb57oJPVpKoi+38Csl9d1lSKVqgoqigvJCw3D+fIZ9tsMYqx5G8z6WrHvoj9Fuhqygy6zc/SPjNxwjIf+MQ3OZRaZ2TqqGiqDDBm/c7zXVBX4cGPFLH76eTVX44rql5Dl+p7mwKJu9OjajlYt2/C//ryQg+5JlBi3f4yQzbrpeH+sdGS9PMvBKZ1ZcDmEVOEFq4KOsGiBDRP3eZNl1MzK0mDuLuvJUKulbHwcRmKCpHUJxMenCq1To2yy9urvNuv6ZTD9mDR+FBvu+ZKcnEyiyC8hIYnEZAXl+lUi0jKYLcKsD2GtYzlZCh21kedYP2YyY9bcxCfJD5eTSzGbcfqDzHrmq9NsGduOgduuCu2JJU2vrQnEJeSSpX9bGWiKA7Gf9RPdv/1XvmnfjV7d2ul18F//3I7xG0/jml6AIVU1iU93sLLj/5evfmpFWzODtnbv3lu02VFMX3YahyTpPWsi7upoHi3rRv+W/8yXv5gJ7e3ALy3/xr/+8WeGLT/Ek/gsUWMJlfqZ9ddmvS720tp6HTpFGcXR0by8fZMTayczZfDPdO89jpV7n5NeXoki242LVh0wX7yNQ85RpCQl6mMr+aSUtAq0de9p/kjxiZt1HaXFCdhdCuBZcIHxgnoL8pNx9fRln18xxZWmXxQVkTc4sXEGvTZ5EhwlLkTbLsxZu5Pr0kOOetQIs+7AsUm/MHrNBVxS3j9l/48x69Ka9YNcCnvbeW1g1n0q9Ea2uiSYWwu7MXHGGm5cPcuFnUvpIcy63weZdWnNenfmXY2m0XL2ekhr1h9wYlobBorBy2EHX+J9zrBj3ng6DLTlTHxRg/NUSKDdPOaM7sWYIw9w8fEnNDiYoKA00UkWUy4GVQZvXI0qx4PLVh3pP2812+6/Is73CodXTKVt96UcCEhHWpBkwNvMemNUV2hRl+WTG2bHqj4/MHTMRu6m1ZIReIXd0gOmOx8TUt8ZyZDxceK9pkobi/O+hQz5cRw7XNJFr2JATWU2OVkRRPne58Kmafzhj9Zsfx7HW5bafhSQzbrpMCVWVenuOO4ZQ79Vt3gl+vu4S3OZv2QZ21xKhIpIqNXPUt/Rr1nfw1H/93uYf4xZ78vkSbM56PW2q7mBWX9aSqZkBWoz8Tgyk2lTF7H11G3uH1pKl5kfatZPsXlcV4Yd8CE0v3ntqVuzbjF1Ktvu+RDtd4/ja6bT+pfZbPdIqG+fUhnjH21m7YDPGLPjHA88AwgLDiIgIIk4MeguKdfUL//UKaN5sLgz4yeMYpW9B2G+j7m6aw4d21qy5mkk6fVFqXiLWW+MWl0lWoXII+0Bp+b1ZWDvmRz1VZAvzvcVa2nN+iXso5vX5Y8Zn7RZr9WWkRzgylHnVHxy3hWFGvIi43B2C8GjvJoP8Oqi9Qfx/IgtY/pvwu7yRTb2HM7a7XcIqO8HXpv1UavteJHUNM61+vPTMMt/lFkfbXOAiyFNbycY8mts1rWG29e15ShCjrNtyhSWTprIrCVL9DPrAR9q1od1x/pyFMWNHgitS0Ey6/eNb4OxF52V1O1qSHY7w9I5oxhx8AWxBXVpSmbdGqsJo5l9K5UC/ZPkIqWGhdFDMuvuXJ4rrVk/y5VI6XjRuflew3buEIbvukdIVl3H14xZr62iQq1CpdZQWVXTqK7VpS4cHNSGMcNWcz21lnSjWR+7/SFBOU2n0etiK0PGx4H3m6pykhz3srx/W/quu4V3chnV1ZLQSi2hFk26B/arR/HnP81lx4t42azL0MOkWAljHPtwG5YD13Du9i1hYq1Ztuw0T4SWG/rZmnqzPnTebg77vk3rXuMfZdYnTZzFAY+mbxioy6+hWS8xrgevQZ10n2PzZjJ9wHgWLZ9H2+lneZr0K8z6/pcE5zZ/C7fOrI+fu44rYVLGOnKD7rB/oTlDtl7HOVFRX0bDmvXvmXHmFYnG18C9qa1QKZl1G8PbYI68KhW/VFEW58TJZUPov/Yct8NKjHVoZma9thqdVoNKpUZbWd2orhDKgzUjsTCbzIFX5eTVmfUVFxqttzfg49fWT9isSw9KZOJ3/z57H4XjmldhHI03g8osAl6G8Mg1DYW4Wj/soigj9ulh1nb+muFDhvJZ25XsuBneQJSMZn3iT4xctYfbwWmUFxeQl5dHXm4uuUVF5NWIAYJxbwnFAZfYNrc9Xy2/h++vMuueXLFqx6jFGzjqnUJBfp6e+vzyRd7VOpFfEb6nZrJq5hQOvdSi0bciUfOaYrwOWmLR/y/8qddkxi64TViR9NrC18h6sZu5U3vQarPbm2b96hIWDWvHrPMuxGXmU1KQX1/XHKVKSLuOovh7nJjSliFC3B8nGJpvrToOlzMzGddhCHsepqJ/M5Uw60F2c5kzZjQzr2egf4Nks5DMuiuXrDozYMk5rkQYz3RFKv63bJjWdSCbr0eTou/LFcTcX8/C0eaMt4sju0yMKArCeXxkF1t3nOKRT6wobz75BYUU5KQTeNGWoZ/3YcSCywRW1JAVLC2D+YHR2+xwjs5qfC5LisUQqPbt15kMGb8zvN9U1aIrCcD71BR6/dKNCUuO4BkST0lJKelRjlzdNYRWf/kr/89/nslu10TZrMvQw7RYqSmKvsveIe0ZP7Q3P3ZfzJLj3qTXOz7JrAdzZ2kPhs1fzXa3FPJFX/xa6/LJraqsX5olQZnwgmsL/kbbhYd4+CvNusOaPsKsj2XrsygKCwv1eUr55Un5CR8lrClxjzezbeog1jjUmXWBGgURl1awoP+/8ddew+k+9jTuyXV3CQwo8b/AoTnf0G71DV42Nes+J4VZb8/gvfdwicmitMiorTmirqVl+iVmimJh1qf/wJiZ67gcYsxY+Jt4tw3M7NGfFYe9iNOvz1UT/2ADa/q3xPKEH2KM/VZUKqO4v6gD46cs5JC3MWZVxaT57WZO1+4s2PSQCP36NmHW3Q+xddj3jJceMM0TJ6o8CZ8rR9mx+SAXncJIy8zRxywvO5OEh/tY3MOc3iP24VCkpiTbjUtz2jNw5T5O+6ZTJLxDXWxzpWNqquqfifkY8Umb9eqKcjJi43ENiuKOewhXXOJxj1WibNAGpHd4FkX68tTJB6d4seFXDN/USc94sPBHfmr5DS3n3ed+XMNGVkNpsiNHRn9Bu46/0NdiMjOnWzJt2jSmTp7EjEWr2OIYS0qD5RiSWd8qzPaXy36dWVflenNlVivMOv5MpxETsRR5SZTymzprLhvu+BFblkfAaWHWZzQ06waUJ15j56zW/O3fxCjX+iYhJY3fVpP1YhdWU7vz86amZr1M/1VUqw7/g5/6DmbclGlMt5zGtKlTmTplMlY77bgRU0BOzD1OTRVmfe1NHsXXDQOqKQ25ypkR7Rkw4ZQYWZeITq+IYDsrZo8ZxYzr6RS+9d1vRrM+pxP9F5/lcnjdqLwGlRgoXZ3Slb4j9nPCJ1d0USpi769jwegBjD8XR5b0ihlFGu52u1g9fTpTJlkxVcRKOj+Wotxzp85m2vzz2LlmoBT55IRcYVv/P9KqixmDxk1pfC5XbmGfRwZ5H/s76mR8MjDNVGnRZnhyc8Msxg/qioVor5aiLc2eZIH1rKGMGDWZ7v9rIadexInh98cL2aybDlNjVV0WjfcOc9p+9k/8deRuzviXNjC3wqyXh3DbxowuHX7gl2ETDf22sT+eNsuKNfYvCSp4PdWkjBdmff5f+WXBQR5Gfvi5kt4GI82sD2n9Z9oPGYulpbH/F/o2bcYslto9xzu3mESHLcKsD2R1Q7MuUJn7jBvbetPyjz/TdsghXFIa1sdg1g/O/pq2q5ox635nWd//L3xl1pvB46cyw5j3lEkTmb1mJ8cDc8nI8sd+hmTW13Ip+PWC0opCP+7O7sEg87Uccs1EIdKLf7CeNf2+ZdoJX5KkCfO3oFIZyf2FYsA0ZQEHvV67el15BM8W9mRE7/lse5wqBgs1BrM+9DvG73M2zKxr8wl/cJatc2cyecJcpk6dXn+OrCZPZabVAfbfjidXREGV647dtB9p07EdXUZONngHKbaTJjHd2oZNj8KJrf8QzMeHT/4BUwkqTSnBwVHcdgzl3gtxgbmH4xieTYpSsnlqfB54YP8wmFgRgl91KWjzyHl1lYMH9nLZJ4fshm1MpKgtSeDlxR3sXG3DkqVLWWrkksU2rLDdyTGnBDLKXtthdWYwrvePscchivTmF36/EzWqdELuHGL/uiUsXtI4v6Ur1nBQ1DWppJxs/7s8u3NLdAo6Gn+EtZD4Z5c5uW4fxx6EkaExfFCiDmUJ7ty/dZpDzsmUiG2voSUn3JE7e5azZrnIry7vJUvE34tZd8Sex9HFlOVF4X/7KBefhxFd2HCUkE7iC9FZ7b3Hi/hCYas1ZAfc5961K9wJLUXV9Eux9agVnXYSQfeOY/fEn+DcBmmq80n3vMqh3fY8Cs4WhltHYdRzHl09z42AAqSJdQmq3HiCHW5xfMd2UVZR3sWLWbp8OfsuPsI7sZxy/WmoQZEdgvNpWzavXNzkXC5i5bZD2HlmvmNQIUPG7wumG9BadHmRuF3fxdZ1i1kk2s+GDXu4+ciF4JBgHPc9Izg+X7TpjxeyWTcdJseqWk155BMO7bTl2MMAkhodUkt1RQ7hj05wcP0SbJpo3bKVa9h7N4Co/NcaVVGYQMiDnRx96E10XqN1mqahtoR4p/Oc3ijSl/Kpy0/o29LlK9l+xY3AHAXFsS643rrAs1gNpY2slUKvkZc27GLPeU9iS7SNtFWTGYj3vX0cdQwjtaSh9ldRLrY9O7GBdcubaI/NQlbvPMbVgDzyi9MJv3uQa3efE5TVIOPKcnJ87Tm59zL3/KVnuGqFDjrxzG4ft16lv+OutTgFFXlEPTrGjVsP8U5tUF6dmuLgO1w4ILTUIwlpUVBJ8ktcLx3ghmciWcZXsleWZhPj/ogLe/ewUmjqYtE3LBP/33b8Ok9DsykwrMFFp0jG/8Y+dq5Z3Ni32Cxi+dpNHHkaTcrHbNaleL2rep+CWa9HpZLceDFKdHTjxItwnCLT8Y0J5eiNYG565L/lIz6/EVQWkpcQjL+7O+5voZurF68CY8iukD95L0OGjL8fsgE1HXKsTMdvKlbVZZRlRhLs6YGHW/Pa6u7mifercFLLVI2WrMqQ8Y9Ci/ddWJ+UWRfDltrqalHXCtFR5BES4M+Z207sd8vAN/83/gBDeTiBdw6wdeFCFgkuXLSIRY24kHlWy7HddZmXxYqPem2XDBky/s9ANqCmQ46V6fhNxUqbTJL7GfYttWHx/Oa1dcH8pazccIKnSdkN3iwmQ8Y/Di3eZ0A/LbPeENVo1SoKSsopUFdR9wHS3yyq1ahKcslOSyNdMC09nfRGFL+lppOVU4SyqulT1zJkyJDx4ZANqOmQY2U6flOxqqmgQlFArqSjb9PWtHQyMvMpq6hstMZchox/FFoY//9WfLpmXYYMGTJkvAuyATUdcqxMhxwrGTIaQzbrMmTIkCHjV0E2VaZDjpXpkGMlQ0ZjyGZdhgwZMmT8KsimynTIsTIdcqxkyGiM95p1yaRLZl2n+/BXBMqQIUOGjI8XsqkyHXKsTIccKxkyGqOFVqvlbZRm1RUKhf4rWEqlstl9ZMqUKVPmp8ni4mI9m9smszHlWJlOOVYyZTZmi/z8fN5Fyajn5OTo/5Zm2JtulylTpkyZnyZzpU99Cza3TWZj1sVK1tH3U76uZMpszBbS8pZ3UaVS6XdUq9XNbpcpU6ZMmZ8mS0pKKC0tbXabzMaUY2U65VjJlNmY8pp1GTJkyJDxqyCvLTYdcqxMhxwrGTIaQ34bjAwZMmTI+FWQTZXpkGNlOuRYyZDRGLJZlyFDhgwZvwqyqTIdcqxMhxwrGTIaQzbrTVBbpSavIJug1CKy1cif5ZchQ4aMt0A2VaZDjpXpkGMlQ0ZjtHifGf20zHoNZXmpODo5s9chlKdh+USnlZKnqKDKuIcMGTJkyDBANlWmQ46V6ZBjJUNGY7SoMP7xNnxSZr22iLCQMM7dCcM/OR2/F4Gcu+bNw6A4koqLyC9XU6arfa9xr62pRFWUTXZuAUXq5veuUhdRmJdJTrESTaWa8rx0MpITSExIJDFRYgIJCUmkpOdRrKpEWSLSS4sXv0nbkkhKSiY5qW4/wcx8ilSmPQRcW61FWZhFflE5iopa6ReqKxSU5meTW6qlotqwn4RqTSlFuZmkFalQV0n7NkCVlE4m6RkZFCp1iNA0Qo1OTWluGmnJicZyS/9PIDkti4KyNwdAVRVKkVcGSVKdpDqKOpWIOsl3N2TI+G3ig0yVTkNZfjppKcY+KyWd9CIFqgb9zccM2YCajrfHqhptWT452TnkKSqpbaI5EmqEjpTkZ5KZX4q6UouqOIfMFKE9el19ra1JyUIDy8X28kLyMgzXpH67XlvFdrGftG98eg45Qq+ayepN1OrQlORQkF9ImdagXJIOlovy5JcoUDeQ6BqdirKcNNLzRV11NY3Tr9ZRUZZLRnqq8AiqRposQa/hBZlkiHoZ6mTQ1qTUdHKKNFQ0Ec2aag2lBdmkJCcZ6inqVKDQ0lTSZfx20UIh/vOu8/VJmfWiWNy9XrHPq5BijQ5VSTlZOVmkJ/nz4OljNt7x4UpSGWmiYVW/I2hV6kTc905h/JxVbHFMa9ZsZj3fwpa5w5h1xImAeA+u2vRlQOuWfPfd93z/vcTvxN+t6TF0Dcc9k3Cys8bKvOF2iT8Y9xOcuJlD7pnG1N+FWtQFQTzeNI5FOy5zP0bqPXQURt7h5NKJWJ8LIDK/rsQq0lwOs2HWWAYd9MCzoHGHpcv048FGc3r3G8DKO2JgoTJu0KOa8nR3zs3pRtdWr8v93XctadvNgqVHXxKrqXkdm9oyEvyvYztnKK1+FPX5oTU/jlzE7ocR5GqM+8iQIeM3BZMNaG0lZRFPOL60P706SP2BaOOdB9J//UVuJqrRfgKmQTbrpuPtsSok9Opq5kyzZMG1CDTNDPSKw+5wbMlgLNZcwSs5mGf7pzJSXHMtG2nrz7TpMI1t90NxfbSbtWMMOipt/6GBtkpsOWQhNjej3zDMzaG6Mh3Pg9NZuXwDlwIM5S9PdcV+2RAWH7yLe1rdFFU1BeG3OTyjD0M22fMoQ9148qo4gcDTlgzs1ZHJB14QWmT8XY9aNIVBPFw7jKHtG2trm04DmGzriGe6Sqh6HbTkJDpxeOU4urT72dD2Bkxm1aWXJJYZd5Hxm0cL6XKSzboELWlhwTxwD8S5oIycrARuuvhhH5lGWlEe6SnJuIfE4vAyiCsOgdyLUZKrNR7aBLWV+WTcsmFMn3EMWedIQlNnX5uK0/rBTDLry4r7iURHO3B49Gd06j+Qaau2sG/XTnbs2M62bbs4duY+AWkFpITf4rbdVrbv3MuWBSMZ0uVP/JeeVlit2saeXdvZftMZ9wylMYN3oRZFtjsXZ7RiiPUezgVL57WSHP9T2I5oS//trvhnGyx0fvBl9s3vz4BJ6zjgnUaGcabAgGqyfM5xcMT/wKxXK1qvf4pLUsOAVFMUd5cdwz6j9aDRzFy9lb27d7F741IWjjSnS9cpjD35itgi6d6OkoQXR1ltKYz/+GnYbNvJ1i3rWTKpA8NmrOWMR4Y4OzJkyPitwSQDWlNIfuAVdkwdxrChw7BcsRrbvXvZuNiaiYNGMGD2MU74qMj/yBu5bNZNx9tjpaXQbS9Lhw3GbNZVAtXVTe7QFhF2YxVWnTow9bA34emB3FnSCbPe3TFfuJGdO3awc+cOoa072fP/a+8twOtI0nvv+b7nfvcmuXeT3Gw2u8nC7M6OB8woMzPJtmQZZLYkMzOjTDIzyiwzyZYsy2JZFjMzMzOf8/uqjyQLLNtnZneTybh+z/OOPKeru6vfrqr3X9XV1Ueu4RyaTHKsPdYWpuw7YMbeNXOY1/fv+XVffaav3CNi8T72XHvKo4gcrUahayujeL62L/p6szjokKf5LS/iMacn/ZHxay7yLKoutyVx9tzcrsuAUfPZ+tiX6NLaJjqslvxIK27O/YphfX/P14sucCegqapWUZzqiPnMb+k7bAiTVu/kwIEDHNqzhXUzJtCr7XDRAXiMe4oyylVBht89jq8U55o4FaMtOzAV+mKTyQjGTFvEhlshZH1s5FHyk0GK9QYKErASQv2KRyKphekE+Xhyxc6dy57eXLd3555LLMGit5oVGYHlvVccdMkjXHks0SqiQuZZcXLmJCZO3MvjJKX6NSHDCtMJuowas4eXBSqy419xbkYn9Lec42VUEeqaao3flU/MVlcpEUwRyVXU1FZQWS165B6XObi0F1+vf46r6BrXVou0Ik3zRutDqClJd+XWQh30VhzjWkCdWM/wucyeKX0YZ/YG3wxxvuTXXFo6meHjFrPfMZb3OuDqeDweHmPz/Fkcu7COSbrbOfcknLx3er6WPCHWjwjBrbvnLnYxRdSK66ouyyPh1XnWThrIv+mf51mYMmSQjcuRzayYvoB9Dr4klYvrL8kk7eUaFozSxXjfS4JENpt2FSQSyX89nxagKkqin3JzzSB6jFyA6TVHwrPyKaqpoTQ1CpeTB1gyeQ0bX+US+zN/gibFuvZ81FdlnjzaOouJA5dzPrQKEUIbKXXj8bb5DO+9kith+eQVBvFs3UB0l+/lmEc+VSKuVlfVxdbKClHg1EpkrqFWrcRWFfmhVjxY+SU9Vp7mYUAequoqKlS1IkJqR21lDNabh2I43Yijzvma3/KjnnF+2vdM3nwN63jxQ64/VnvnoTvckBUPA4gTHY5mqLOIcjJny6xZnLq8hlmzN7H/sgep74RanVi/YdwdvbVmmPuL6xL6rLayhHSPRxyb2oVvx+/gvHuGiMLFBFscZasQ6hseORKUX0KVuKZ875Os1R3FKMMzOGXWaKkdJP+VSLFeT1GIFxb2vtyJr6C0QAQOv0hc3wZx47ktW668YK9lGN6Z5RRlp+JoKRqLkELSPjrhPxWnA1OYMW4qm6yymswhU5Nrv5cpYw0ZsfEVKaI6FSS+5IxhF/Q338JZi5ks+b43MV2kQ5t1T/FK/qHDUR8R61P7MeGwK95+Pljvm82EUSYsv+BLQt2OzSiPuslNs+UsP+GIb/ArzhuMYc2hx3jkNJSmOrF+eLoO43c+wyWpSYOU44ftcRP+rHuMm/7pIkelxDm+4a29v/BaA6IhjTBnw6ipGG56iFv1x8upRCL5z+eTAlSdTaDFNubp6GBwypXIFkkrMjMJe+3Im5RS8rSYZvDfGSnWtefjvsonyGINS0cPY8b1OJKKGiNDuc9p9hlPpKfRXbyKyqgsDeCx6CiOX3aUs/71iT5CaYw9Fsu+pPvyEzwP++Bo3Af5sFhvi4EQ67b+UXhfWc+MEfrM3v2aEKGSWw5CVaW/wfrcMuZte4R7pDtP1xiyfPNF7iXVJxCR8J1YX3WKm0FNJsIXx5Jwaz5Dp+/CzD4O0QUhzccbtyeuxNU2GdDLsOGA/lSGjdzH88xqrTsjkv86pFhXrr6mGD8HUSmcwwlTRndUKqozcglz9Of6/Tdcfx2Oa2oJuepcUuICufw4huDMT68Qk2Gzg4XTxjBylwOp796+zOGNmR6jpi5g2ZN08f+il5zwktNT2jJ40kK2nb7Hs6ePePjgPvcfW2PjGUdWeU2ze5Tnc6NerD/BM6ms/ldt+ZBYv4LptJ7obr3I+W2LmDjCkNlmrwktba18lBFqvpKdc/TZ7ZBHdkYCXsfHMmWDEN9+BfVp6sW6YU8mmL7EM6v+Z4WE19zcPZP/0D/L/aDsuuO3fFOoOpnIcwvQG2TMCnMfFE+9nw+JRPJfyScFaEkAz3cvYmA7E856ZQiZ9fkixbr2fMpXRb5X2LdwGN8Y38c9tSEGlhB6eT4L9IYy/Uo4uVW1qEX5e7h6AEPGiHhmasGjRw81dv/xc545hZKYX95MLJdE270T65ahP/xetSrWo59xYfr3GKzcxcm961k8UZ+RK2/jmtE8rtdRS4rTZY7MHsHK28Ek5RSTdNeEGau2sdYys34eeqNYn7zuPPeiND/Wke2L+0kDehju5YRTUl16EVubh9cSMl/sY9agmSIfzwlR/FS/RfLT5bMX6+raKipS/Hn2KgCnoILGiisEe01lFaVlBWQmphKZXSAqTjzh3m+4HV5K+qeW0VFIeMHpRTMZMeUw1jnKo7Ra0fO15ey8scxYeIr7cUoiNUUJrzil9yfaf/UftOncg969etKzexe69tNl8pan+GaXKXu+428i1v2uY6rbht6jxjGoSw90xq7j4PNYilsrHFWB3F23nMV6plhpVHQphS4HmDVnG3seBNcHZCHWox5jNqUzQxcd5bK1D4GBQQR7OmB9ZgWGU0fSe7c1Xskt8y8aFlUW8X4X2D60P1PmneJ5uDZz8SUSyX82nxSgGS7cXDmPNp22YxGbpzwv01BVmEZytD/+AQEEBIUTFpZKbqmmhfzZIsW69nzSV7meWO5dSLeeq7kSkFFXrqp8ub16EoZjFnPeV8R18VNtSSAPV/ZD5+tf8x9tu9NTR8RWne507TOSQSZXsA7LaVbm/iZiPeYFF6b+mREjB9O/W096D5rNiiu+pDZbkKEeVSzu1/exeOQ6rvoWoJEZEddYNG89U3a8Jql+hLAkzYkbRl0ZM2sdu+95ESBia5C/Ow7Xd7JIvyv91l3EquVjLA2F5Kbc55zROPQmi86DS+57K8dIfpp89mK9uryUgBcveegaTlCrylSIx9oaqlUlRISF8MD6LW+LK9FKItdm4XNtDRvmTGe3axl5JSXUuu/G2HgNa829ydK0EmoKYl9yZno7Ri9YweH7Nrg5O+Fg/xo7Bw88A/IoKm++rNPfQqxnBVxn28Df84cvhzLeaC3ThokGZ8EhLAKr0Kzu2ARV5G02GBszyOgKLnHpZOYkEOtrzubhU1m5+znumizVUhBjycGxf+BPX/6eP7fvQo+u7fjuqz/yTce+zDO9gGNaIS2n6ykvCCUFn2HbkiHozdrPY6ckyuWEOonkJ8knRVWmEOurhFjv2Fysp7mc5MC8znTt3I623/bk+w6bueSeSMNzuZ8jUqxrzyd9pS4hxuY42yf2ZtPDcFIVVRt5jXWLl6K37QVRoqApYauq0J9HqwcyetZcll+xwtHBASdHexFb3XDxzCCroPno9t9CrBfEveDsxD/S6Y/dGTJjLTMnTUR/0lJOO+VR0lIop73gtukCek89xgPfGNJy0kmPe4bp+CnMmniQV8rgmKAsw5Ub8zrQ9U+iE/JdF7p37Uj7b/5Em++7MX6FKfeDEjTLTDengryURxxY0x89g6WYPwun6Ocp636WfOZivZaSwmQsrrrywitVyMSPUJSCq5sXh51SSNNmDad6irwucXzTDMacDCA8Jo6Qk8OZu34PFz0bwpKK/FhrTs/ojP6Wy7yOq5uDrlYeXYmKrFhL/iYj60Js79TtQt8F5jx4G0nEw50sn6THmFW3sEttOuKlJvHJBmYM+D3/t01PBo8azZhxoxgxtAed/v336Mw+zhXlbVCxR2H0Uw4btKWfoTHrD5/h5oml6Pbrx596rcY8KLlu1KAp6goyQx5wbPlwBhlv55ZzHOWyMZFIfrJ8UlSVBGK1dzFD2htx2j2duvUxoDzTEw+7K1w9t4t1s8bwj/9szJ5XkR9vg/+bI8W69mjjq/Joax5tG8k4Uyv8U8tIe7KaRatWs/5ZimZUXYlVVQV+PFwzCN1lBzjpXaaJq5ppISplEE6TpBl/E7Eebck5g28YabiTs/ZxRNtdYP/MsQydc5z7olfROEaoJtf5CLv1fs8vv+5GryEjRWwdzegx/en863+lY38jDjnnaZ7+l6U7c8OoMyP09JhnepabZzewdPIAvuo0H1OXSDLrDtiEakpSXbi7ezI605ax664P+e/1FCQ/ZT5vsV5VQkrwG87YxOOWVP1RPxRGRmPv5M2zrCrKf0gZz3XlsdkGxkw8w2MrS86MGca6HddxyWo4myLWrTht2IVJG69hH//pg/9t5qwrL5j2RffoWwKU+eUVSdgfm8+YYaJzcd6TtHdqPY6XWxcwfageU7YeZt+BAxw8eAgz0z0cWGBAT70dLL4RIRpLRaw/qV8N5j72cSWidU3G+dImZkzRY9nT0BYfQ6khx+8Wx1dMZJiJKZedEyjRvk8kkUj+C/j0CGgOIfe2YaTTlQlHnQhvuaxUbgA2+2bw+98uxNQ26p2Y/zkixbr2aOWrkjD8b29ksu5BHjq6cG/dAlYvP8zd2IbRckWs+2rE+rjFZpzyavIi5gf4m0yDqV8NxmDrDWyU1RpqlTqxg9mj+zFsx0u8cxq0VTrux9exqNcQJq3dx84Dhzh08KBmWcbjy6agp2fC9FPeZAnNUJzuxE3j7uivPSJieDHqykyiXp9n+YyJjL/sTmh+8+BZkuTI7c16jJm9loPPw9BqlWfJT4rPWKyrqSlKx+/FU47YRvMm90MiWXintoAQjxBeOkaTIX75Yf3RNALuHWFFj8EsXryIAR2XsPeSBynvnF43sn7GsBN6m0/zIjyP6opySktLNVZSXk6Jktf61Ap/M7GuLN14yBmf9LrMlcU/4OzSQfQeJHritknkibyQdQ9T45XM2/QEl7xqypQlsEQZqa4opCT0Iesmr2D2intE1IjrihG+NVRWg7HENbnOa1UpVtzaOwbd6dt5GlxWL8gryQx+wqmlkxgxcSGrn4SQXlRBVUWZxgfKko8SieSnx6dFlZqy2Bfc3TiMHsPnsvPSK2JTc6iqrKYoKwLPR1uZ1a8Dv/i/xhywj5FiXaJBO1/lk+F9g+1DxrByuQnjRq5gzT4bwt6FC5VmZP3RmoHoLtvFEbdsyspKKRemia/ib4mqtsnHg/62Yn3yJnNexNRFclWeO0/269KtnT5LzT1JKxMxt9iZc6tXoTflLM8SiimorNLE1nIl7qbacnXzWqYbXcG5sJrcNGdumSirwZxuXA2mOIxX56fTf9BczrwQdUlzqmoK4524v3ceo0cYMOuCE3F5Zaiq6jRGVaXyDOJjClDyU+EzFusqasrziPb144lbEA89wrHyScY/qZKqpp1StZrSOF/sHNyxDi766JdLW0dFXsgjrs38I+2//YbfTjXnhm9ukwZCbBfB7Jju7+g2cCAGS9ezc9tWtmzZwqaNG9h64Bhn3yaQXNp44lwvc3bMa89vlz/gbeIPF+uajyLNbc+YhYe49O6jSOfYptuFYXsd8Ept6I7kkeh4io1jBtJh/Cau2nrgf2YWM+auZuOj6Bbz9tWoamJ4vnoqS6eu4GZsETmRDzmg34Hhmx/ikNBwxUWkOJ9k1/B+DFtoiY1Ipyr24Obawfz+n37JL7tOY976zWxWfLB5k7DNXH7mRkSBbFIkkp8aWokqdT65Qfc5ajyJCaNHsmDJUrZt28721fNZbjSEfn2H8d0/mHDiVSQ59bv8HJFiXXu085WayiwfXqzrS9c//l9+NXwHh+1Sm8QlIdYLfbm7pDu9+vRg4Ly1mri6VdjmjRvZsmMXx14FEFrQGFmKI19xw+RfabvgMI+Df/jnPZWPIlmu7YPepJlNPor0iFMTv2Tcmgs8jWyIg2Vkh9zj+OR+dBtqxAmbIAKe7MdkjgkGx73IqG45JJiN77VtrNE3Yu+bLBJj7bkxpx1jFh/B3L9hQmkVOeKYp4d/h+70E1gEFlNZHo79sWl0+/U/8r/ajEdvyXo2idiq+GDD+nWcuHIf3zS5zvp/Bz77F0xVaiGWCzN4aevKfnM3rryKJzAym9isEkQHVvimmqCXDjyw8sS35EcKxuJYIu+vY/pUfdbciySiWRukPNLy5P76cUzo14Wu3XXo0UMHHR0dunftTJ+R+iy44kN4TmMPoijcmqsH56F/0onQD31G9SNUKo+eD8xl45E7vIhSGg/RUw9/xpXNRqy56SfO1aShqEkm9KkpKwyms/OaJTe2zGLngTNYRjS8KtYEdQ0JL7Zz+sgmrvtnk5/ojMX2eay95IxfemNzoM4OFA3IKsaNP8pNnwQqk59xdoMBXbp2o3uPnvTq2bPu+rt3Q6dHD2aZ3uFlonKv6g8gkUh+EmgvQKspDrfl8pZJjBvUhc6iro8YNpmdZkLAWFpyQv8MNh7xP+ulHaVY1x6tfVVTQKbDEQx1BzH70DO8mi4RrAzIlcXgcNQYw8Fd6NKtLq720MTWruj0Hch0MytcEhtjU1myF68O6zLnyF1c4lpbruUT1KTw9uxStm8zxcKvbp324iQXHm+dwqYzz3mT3EQWq3PJ8b7ArrlT2Xz1JeanTNm5Yx/n3fNb/Vpqtu8drh5djemrBJITfbA9OJcNx+5hHd2ozdRFCUTeWoXxtF2ctI8jL+ctT83m00unB92EtmiIrYrG6NqxIxMW7eBOcDXNPk4u+UnyxaeW/f+5i3UFtbqW8vIKCnNyiA7w5+5TO06+CsYpNpfotBhu3PXijm0SuT9WLAoRW1NWQE5ONgVl4t8tjqOqraQ0P4us9FRSU5tbWkYmOcWVVDdRqqrqckqKcskurqC6Yai/tpTinBSSYmOJ/ZDFxJOYnEVhZTmlhbkUFJW+W2lFc8yCXPJLq8S56n6rQ3kCUUR+dhb5xWUU54trKCz+4AotteUFFBflU1JVi6qm7gNT+SUtnlaoRONQnE9mZiElldXCPSLv4rhpaemkp6eR1sIHWQUlCLdJJJKfGD9IgCrtXEEWmaKdSxH1OiMjS9MGKV+TLMkppqKyRrQ2P1+kWNcerX2lVqGqLCYnK5PconKqWhYgtYg1IlbmZIhYktY8rqSKeJNVUEZFk4CsrqkU6bPFsUS5bPhdXUFFYQYpca3E1HcWR3xiOnnlZZQW51FQUEhpVd3+qtoKygpyRPwsRxTxJqhF9kopys2ui61FhRSK/Uoqm6/+1oCqqpQScexCEXxraqooFzE8XxPDm6RW1QqtkU9udgFF5dXUijpXJtKlp6eTniZia1MfpKSQmaPEapGP+t0lP12++NS47Ocg1htRC7FZQraoPDGpibi+ceOUxXO2PIvGNkE0CvWpfpIU+uN59wDbFyxgobAFCxeysJktwGjucjbuMcclr4TP4W5KJJK/LVKAao/0lfb8pHxVGUOM/Rn2L1nEYuPWYqsJJsZLWLXhBJbRacg7LPlb8MWnBOjnJdaboK4iX/TWQ2OSCcosI6dxkvlPk6ocsmL88XJ2xvkD5uj4Bg/fCNIqft4fH5FIJP85SAGqPdJX2vOT8lVtIYUpIfi5uuDi1HpsdXZyxc09iITC0veXJJZI/gp8Uf/3g3y2Yl0ikUgkH0UKUO2RvtIe6SuJpDlSrEskEonkRyFFlfZIX2mP9JVE0hwp1iUSiUTyo5CiSnukr7RH+koiaY7WYr26+qc+aVsikUgk/5lIUaU90lfaI30lkTTnC5VKxcdM+XqWItaV5bVa2y5NmjRp0j5PKygo0Air1rZJa27SV9qb9JU0ac3ti7y8PD5milBX1ujMyclpdbs0adKkSfs8LTMzk6ysrFa3SWtuiq8Ua22btOYmy5U0ac3tC2Xk/GOmPIpSKk5xcXGr26VJkyZN2udpubm5mkDS2jZpzU36SnuTvpImrbl9cs668mKpnLMukUgkkpbIucXaI32lPdJXEklz5GowEolEIvlRSFGlPdJX2iN9JZE0R4p1iUQikfwopKjSHukr7ZG+kkiaI8V6S1Q1lJeXkllYQYmc+SORSCQfRIoq7ZG+0h7pK4mkOV+o6//xIT4vsa6mrCAdNw83ztiH4RJXQlZRFRXVtajqU0gkEomkDimqtEf6SnukrySS5nzxKQn+eYn1IiJCQ7l+34tXwVHYv/Dg7PU3PAtIIPOncP2f6llJJBLJfyJSVGmP9JX2SF/9fJCy5a/DFyX1//gQn5VYL47D1c2TYzappBeXkBWdgKt7EB5B3ti5v+XWmwicMsvJ/UTpq61MJ+jxMY6cvc49vyzUraTPC7jHvfP7OPXcn+jUEJwub2fHigUsXLSYxYsVW8gCk+Vs3H2dF6Hp+Nme4fR2IxYsXMyixUtYsmQpS5eIdIsWsXDhQhaa3eFZUE790T+GmqrieLxu78d0jThHw/kWiX+vWMvKY3dwiMilXPMooYKsMFvu71/BiiWLWKSkFedbLP5u2HeNJ56ZFLS8tspYYl3Pc2KnyOeCBSxYtoplZte4G5hJVm19GlSUZATgeGY9295ds7iOBetZteki5555E5RWSfW7xxnVZIXa8PjyKa69SSGvvMVJi2KIcb3P0TvuhOVVND4FqSwgP8KRJ5f3s3LZYuG7JSxYsBuzCzZ4JuVSJpJU5cXjd38L29eaYLxA5GNJE98uFPlfsY5llxzxTv5UTZFIPj+0F1W1VKQGYHNtB1tXi3qltA3rdrHjjjPu2TWfxZNLKUC158O+KiLO6TpnTpzgoksi1e9iSiPFCW+xMt/NwRuOhGXE4v/0BAdErDN5F1tFrDFZyvLVx7jnHk+gxyOu7xflcaGIcWJ7Xfsv4oAm1i3EaPcFca6kVs/VElVtDmEvznJyg7HmXMrxlGMsFMdcfuAST7yTya9UUtZSlOzFq+Or2bS8Me4vXGDMmm3HuGkXR1qlqrnQrckk3e8mVw8uYeVSkd9FS1i8+yznXWOIL69PI/aorUzF+84h9q5qOO5CFi1cLa73BEdvO+KZUEZJTX1ykY/CeDdeX9mP+esw4loG9Ko80n0sOWRuh0tMnkhdT20ZpfGeONw5ytb1KzT1edHCrew+9hi70BQKRJKaykKirfdzdMv8VnRLnU8WHn+MVWh+3TElH+ULpTq0oiXf8fmI9Rpywv2xdvTkSUohmdlJ2HoEYROdSlZBKtGRITxxC+SBEO+P3MJwEgU+7wMuUVWkEnFpHuOGGqJ38A1p9b83ko272STm9u/HwuuBBIZac3Lyn+jeuwejDOcLkSiEs6i0RvOFKN55mdfhaYS4nOL0rrkYmSzGSG8A/Tr8iv/ddQK6hsaaCm58/C5PI7Qp9GohlN9wY357+vTqTF+DuWJ/UZkXzWfW9JEM6tYV/blneRaSTzklRFnuZEX/3/DtMF0M5pqICikaCcPxDO8xhP4Gppx0S6ZMU4NFKcr0wfrcYmZNGsiECdMxEcc1mjsX/dFjGDprObue+BOjaX9VZIfc58jIf6Fb396MmWmkEcYLFy5l5oyFDBthzPQV13gZVUypklzkJOrFblboDsTgXADxhS1Ce4YzzqcX0nP+JawSiuoaFFU6kS9OsWXaJIaMnclEIxPmCz8tnDoWvSGjGG90kNOOiWTmxRL0fDPb1hozb74Jc4e3ocP3/84fBk1n/nxjTJavZfENF7zTFGkvkUiaop0ALaMs3o7r62ahP6o/YwynMUsIo9lT9Bk5eip6W+5yP6iS/J95iJFiXXs+7KtSUp7vYIGIKQNWWRJV3ULQUkGk5S5WDezMpD2v8In35tHavvTu2YEe+nNZYCLizAITEVsXsnTlQR55xBIR8IAbZvNFbF2E0dRRjOv09/xr58EMMxBxScSMuaYXOO+Z2mTw6MPUVsVgtXEwY7v8jp6TZoo4rgymGWE0bwIj+/Vg5MRdXLRLolhEqVRvc/YO/mc6DxTxcraJJu4vmjWJSQMH02vkWjY/DSGrbtRM9ECiCXiyi8WGQxk9Wl8TmxaYGDNVdzxD9Gaz8ood/rl1SWuL/bi5sBs9dTrSTxPfldi6mLlzljB6zHzGzjnBVedE8jSOqyLV/Tz7J7Zjoqk1b1JaXGRpAsG3N9Bx0n5OOieI1Ar5ZHpZcNRkOoNGTNPE73nKgOEMfQyGDmOswXr2PgklLj+bOOd9HNs2B+OFy5g/sS892v+af+qhx2SxzyLRaTI+84wX0YWao0o+jhTrDVRk4ujqzc03kcSVZRMR7M6he6845BSATWgcwQl5pGQWEOvjjbm5FaYuuUR+qN1Vi65z/G126RuIwHQaW1Ermvm4yJkz00cxccgq7ibVkBH7irOGHZi48TCPApIpKcjV+Dw7O4v8/DzUKqUbXEhJaQ65+cUkOpxm3yIdvlrzFJvANIrzc8iurKgXtp9CiPV0F24u6Ibeyh2ccUsiNyeX/IIsUiNe8HTjEIZ9OYRFp1wIq64k+tl2Nk7uzdQL9njHZ1FUkE9OrA9PNhjQp2Nf+u2wJb5YyGNVLmlP1jG6fwf+OHID162iyMsvJCc5Fv+re5jX73d0nryeU26FoplSkxVyj2O6f0B/2ylehCjXkEtBYTJhPjYcEA3koE79MDB7iXN6hchzheih72XVpCFMOx9IQkuxnumCy5nF9DG+gk1Sseh2icAfcIm9c4fwbecZLDxsh1dKDll5mRTEPOHRTj16tBvOgMW3CcgvU8YWRGDIIzsri7CrMzCZ1Z/xJ91JSs8lT1xvtqpWHFEikbTk0wJUTVXWWxyOT2OgzjDmbL6EdXAcKWKfNJ/X3F4+hxEDhHB6mkuMdg3Yf1ukWNeej/oq245rK2YwbMQOLJKrKGkaXKsCeXXIhEk9ZnL0bbZo84N4tnYA45dsZr9TIjk52SLeKbE1m5zcHGqqFV1TSnmF+F3E1lTvh9xZ/nu6LT/BzbcpdbG4rJRP6aQGaiuFWN80BEPDqZi+CicvL1+YOF+6t6gDM9H9shuTV97CvUJNsucVDo77CoN9V3GIzNTEwKK0CFzPbmBMl660MbqOV5oS/6qFZDjA5skd+MPARZheFzEwNYeCnEwin15g05g2dBo+ndVPsihQq1CV+GGxrC/jl23lzJsE8jVfwEwjMdqNS9s3MeTbjoxaeoJnsaWoxLHTPC5wUL8T+vttcEttKdYTCbHYRNfJBzmlPMkQXiiNs+TahtF07jxRaJanWIcmk1lYQF68I3bHZzGhR186G5zkZXSeSF9MaUkWeUUVxNseZZNRb9ptfsHbiHSKC4Vvqyo1T7gln0aK9XoqYvy4Y+/LdaHAC/IzCfMOwd4rhDsO9uy49pSdDwJxSy6nOCsN1xdu3AgoIOHdo6eWiAKvjuD5Fj2mj5nHAZfiZr3yMs8TzB09lSGLHhChriUv0YYzM7qiv+Umzqn1iT5Cns8N9i3Woc26p3gm/dCiroh1V24t1BFi/SjX/JXGoIFSyrIeYTa8B7NX3MImvZro5zuEWB+E4aVAYvIbSooIwL6XObZyKv1WPMQ7v4SKfA8slo6gj+hVb36ZTFVNwwWrUZXnE3BtPvojxjHnkANJ4reM0Pscn/AnDLbdwkV0WBrSqoUwLk3xw8p0ND2HLGPnw3CRqyribExZrTeU6Rc+INbPLqGviTm2KUXi3NG83KbHuLEzWWQRRl5pk8fs6hpqcrx5bH6CnYcfE5BaLcR9PWo1sXdNMJ7RF4PzPpS/2yCRSFrj0wK0kOgXB1g5uCsjdj7RtFe1op5pWhKl7QsPxeHaHR6LdjfzZ17fpFjXno/7KhWPi0swHjaOpU8ySW8ahyNvcHLJFHQMLmCXW0JZaQBP1gxi/PKjnA2oT/MRSqLthFj/ku7LT2IZ+sPvlSLWrTcPFWLdiKPO9UPdGlRUFTtyZVpvZulv50YsJHiYc0i3DVP3W+KX0RjTauIduLNjKt1mnME6oYBaEni1ZQLjhoxnyZ0QipTpMfWhWF1TScLLnSyeOJQBJnfwLSqnSlzzneX9Gb/0CNf8Gpwj6pwQ8uV5yXieGofeKD1WXPImXeQr1eMiZpM7M/nAB8T6nc10MzDjjGuCyEs23pdWYjhkKAanXEkprNbUZw2iPquKQ/C0usj2fTdxDC2gQnO4uu1Z7lfYML83nbZaE5HVVHdItEGKdeXqVVVEubjx0DGQt4Xil+pqSuPT8bF6y/Errzj8JACrmAIyVUWkJYVz414I3illfFCra6gl9sEq5k4djd5Jb/IbloFUlxF4aTYjp8xh1rVoIRRVFCe85PT0joxddIhbLjEkJSWSmJhAQmIKqdnFVNQ2H5nP972B6SJFrD/BS3QgfhiNYl1/1QluBjediFdKSeZd9gztxezVd3idXS/WDQYz40ooCU2mbasjbnF2ixH9Vj/DL1v06IPNWT9sInO2P8a5lendNYkPODhlItPnnOKlEP0pIQ84oRHrFrgmt2gglMdsb48yp8sYFux+QaSqhoRXWoj1BVd5nZxPRdpz9ulORH/2CZ5l1KdpRi2VZcUUFJRSWd289Cti3ciwTqxXNHWNRCJ5j08K0IpwXpstY1TbaRx0TKa1t2rUVZUozePH4tDPASnWtedTvspyPsHWuQPosvEVQZkNwq+GxAcrWTZ9CGOOepJWIaJriT+PVg9k1KyNbH8cJeJqQ2xNJimjgJIq5TlvI6Ux9lgsU8T6CZ6HFdf/qj2NYt2EE27N819V/JqzBn2ZYbAbi8RGsT7tgDXNXjdLc+WJmTHd5l7kVXw2tbmv2DtOl7G6e3mW2kpQKnDmxkpDRvdeiUVkIcXFgdzTiPWjQqy3FMWV1MReYY/eRGatuI1jiYjFQqwfNtBCrLvEoyp349bK2YwZtIYrIcpknpaoqa0qIb+giPImnQqFLHehETRi3YrIbPms+ocixbq6RlSGSGxe+WLnk0lpQ1mtqqYkp5DktFSiwhMIyigktTiJ2EB3rvqI30s/HVqqQ29hOncqA2ddwrVYJQq2OHiVJ7cWjcBgzl7OBypDSWqKE19xSu9PdPjzl7Tt3o9BAwfQv28veg+ZzPSdotedXd6sUigj6w1i/ceMrJfWi/UJi0xFBcyksEBpGPPITLHj+fkZDNcxZI25F7GqCqItd7B+Uj8Mjr/BT/Tyi4uLKUoOwuHkbHT1RjHmmAfpuRkU2O5Bv+ccFp19Q0z9mRoRnY0qD24tGMWscRu4HKEmMfABJycqYv02Lkktq3w5hULc79TpzJwlV3hbVEuS7b5Pi/WF17FLzKE08BLGA2YwYeUD/ETSFqk/Qt3IeoNYlyPrEsnH+aQAzXLDYu182nbYzK2o3HdT9VTV5ZQV51Og7F9cSmlJJVW1Lecf/7yQYl17PuUrtYhVtzfN5Lv+e7gbnlP3dFQVyYtNE5k9whBTpxKUEK0qCeThyn7ofP07ft+xLwP69xfWh96DxjFiiTkvI+r3rUcZWW8Q63/JyPr0yTMxtYrTXENRUT75eQE4PVzNhF66zNzyhMAaNcleVzgw7s/ob7PAOSqfkuIiSrPjCHiwk7lTBtFj4yOC0wsgzJy5faYzaNYNfFodQIrC1nQWM9qP4YhLLrkFwdxf0XJkvQHRLa52wnzuCGYYmnErHpLcL3FkyifE+pTDQivEQcojDs2YTe9xp3idX/kDYmvdyHqDWJcj6z+cz16s11aUE+fymodOofhktlb0RAApL6O4ooSYmDBsbV14nVdFkTZRpSIG+6NLWTjNhJOBVRRWCGEdeoqVc0xYesSOSE3nUk1BvA2np3zLwPHjMd5qyrHDZhw6uI/9Zhe5/DiClKKaZvfoLxbrmaJ3bNyFXh3a0mnwRCbrT8bAYCLjRw2kT9eBTNv2ELtkpYNQQrTVXlb2/Q1fdRnM8HH6GEzWR3/sUEaMGMqMbUd5HFNIbXk2eZbbGNvDiIWX3EmsP1NTVLXe3F08lNmjV3Iu+FNivZKi9Mfs7/UdcxacxyXvh4j1bEp9zjCz70zGrX1CsNgsxbpE8rfhkwI03ZkbK+bxVadd3InLe/fuR6b3LS5umcikSROYMGEO02ae51lIhmhxfr5Isa49n/SVKovA+3tZNGQ4pjaxZCshJPkJOxfNR2+xOZ65dbqmuiiAh6v7M2T0MMav2YPZoUPCDojYeobj130ISytvFlv/YrFeFYvNthGMafvvtB8wHv3JBkyePIlJE4YxsNcAxi4+h4V/HlWii5Dme519Q/6V9p10GDhGjykGIraOG8bYEYPRX7GNi96JlFYJse1zlmk9Z9B33l0Cm+W2gVgcDs5gTtvBHLDPISf/E2IdN24aD2bGFFPMo36gWI+/y56ps+k24TwOJU1WXtMCKdb/Mj5zsa6ivDSTp9cdsHRPIO1jJa88Aw9PH46+iiGuoqaVxz+tUUOW4zEOrZmKwfU44lLSSLouev6rtnPMIaO+R68mP9aaM4ad0dt8BquIfGoqyykrK6W0tBLRl0DdIl9/FbFu0oVBQ/oy0mglG9avZ/36LWzaeIyjJx/xJjavfgSsmMjnu1kz7Eu6TJqNyYoVbDLqxzdfdqaH4UGexGfWvRyiyifP5TDzRO9/8RF7QjT7NkWUsEJHLs3WZYbeHu4kq0kK+phYL6Ew4iZru/Vn/ro7+FbWaqbBrBJifcbFIBILW5TYrDe8Ob+cviZXsVWWZIy+KfI8kFGzj2GVKcW6RPK34pOiqtCHJ9sW0LvdMq4EZIsWpf5n0eZZXtnA5rXzmDZ6IL/4Z2P2vY4ir377zxEp1rVHG18VBj/k5uqBGJx0JCxHRZHdVhatXM6im1HvBtOqCvx4tGYgust2c+RtLuVlZZSXl4nYWoEIsahahJ6/hlh/uXU4E/u0YeicpWzYuEHE1k0ixh7k0GELbANSydUEpGrSvK+yf8Sv6T16HHOWr2PLknF0/FM7/th7OZd8Y+vrQg2qiNusHDSZUVPO4dZab7Y2CMttc5jc2ZCzPnnkFwZ9RKyL7nKBNWcNxzNz3hmeZIhY7H6Rw5M7Y3DwFW/TWsTWsiTC7m3TTIM5LcS6OteGM0bj6T1wBdfCyzXSX1ukWP/L+LzFem05WQl+nH0YjlNEyUcFeEVCFK+dPLgSU07pDxBx6mQbbu5fziDju9i/ceXe3D6s2H4am8QGCakSYt2K04ZdmLTxOg4Jn5aWf6lYr5uz3gP9tXu54JVJaUkRJcUVohGrT/KOYiKebmfjlH4YXn5LcEo2lUk2mC2Zx4S1p7md3FDhKiiNe8KhSSMZt+QsN2NalhUVee6HWDF2HFNX3sGnSk1aSMMLpq3MWa9KJfz+MkZ1n8bK026kiTynOBxl9dT+jDrmRWKLxxqq+Bc82aNL7+W3eJteSk2RG5fndWfwAEM2WWa1MlpXRmZsMB5vQokpqG3S4EixLpH8ED4pqmpT8LqynumdBwsRFUDiu6mqVaK9raYqyw+bY8b87reLMbWNlGJdokErX+X44XZpEaPmnMXGLwzHA0asWLWTC4EN0zNUQqz78nDNIMYtNuOU16cb9L/WNJgZMw056BCnGXQrLi6n5L0gVE2q5xUOjP8z0w5a8DaxiJosDy5tXMj4aRs4EdzwrRM1qnx3Ls8ezegRiznp+/4yh5XRFhycq8uA0QewSSumvCSAu/Vz1q83W0BCoCol13EjS8ZMYN5uK4KESzJ9b3JiVnuG73qKS8tYXBSD65k5tJ9xBHNPEYlVEVjtnciIjn0wuRxG9nvisZLi3Bi8XAIIySin6SdRpFj/y/isxXptSRbBts85+joW0en+AIp3yonxCeOVgxB3Napmc9w+SW0s7lf3YdxzCtu2b0O/yxx2nLQn+p1CVMS6NadndEZ/yyVs4xTFrKa2trbO1HXna1qF/jpiXQe9FS1Xg2lJnVjfoKwGczGQWOVLB2L/JOcDLJwzganbHhFdv7S7qjyGt6fnMGzERPS2PSMsqVTjOVVVOQUhrlxaOpTB4+ex7XGkOKqarPrVYKbsuoFzkhLBlbfVq0RDk0bQqytsm9KdPnOOcMUrS9OJKol4ytGVA+losJu7jokUiZZMee22OicF97OLmDnyK0YeciJOM+qeTYjFcmYP6k13g72Yv4kgqbCWqhpxpIps4rzvsH3xUmYsvsLLlKp3j+aVPEixLpFoz6dFVTU5Abc4bdSLHpM3cf5FILlFdW1OVVkmUU6nWT9eh3/+pTH77aKlWJdo0MpXqgwRi86yevB0dpnuwGjiMlZve4hXsdKSaxJoRtYVsa67fB8nvEpQqWo1K45pYqtKWbiweWz9a4l1w+ktV4NpiSLWL7N/XBum7rPEP1P5TS36Hxc4tGY045Zd5E18Zd11qHMIF/HMeFw/Rq26jltYIRXK8nKqGkrjg3m6cyrjhPg2POVFUnU1taX+mtVgJqw8JOK74gwltlZTXZVLjLc1ZoadGDJpEWZ2CZon6JXJrjzfN5Qeeqs4cCeIrIK6wKcqEumfn2LN5HZ0WmPBq2hFm5STYH+EDWO60mXkWg6/9Cc8q4xKsYu6ooD0EEvO71nN1JlHuB6QQ9OH4FKs/2V8xmJdVNTiNHxtbDlv7YdVVBaxuaXklTZ/g1nxTk1uGM5Onli+zW5cpkhrqklzN+fYyH+jR6fO/POQw5x0TKaxqNaNrJ80aMOwuYvYf9MSx9e22NjY8NLaGhsnV1zTC6mvPxryvK+x27gLf1z9CI/EHyHW01y4YdQF3SVmmL/3tnhTigl/vIW1E/sy5XwAMe++uRSJzbZJzOmpy47H6WRUKT6poTbVijPGwxnQaSzLdt7C5rU9No/vcn6xAUO6jGXmAWt8NAMDKrKD73Fk9L8xwngFh++8wEFc8+vXT3h4fRcr9IbRvddsdlpFk9jwuKMqEd/bq5nWtSPjDPdx8bY1dnaveXx8J/MGtuObgRMxtc2kUOMn0ZAVuvN0tyE9/9yeDnor2Xj+BU+ev8Th9ik2ThzO199NxGD/a2KaLfmiJsZiHnOm6DDpjLcU6xLJJ9BKVNWmkGS/j/n9ujNU14gTVyywd3Dgxe0D7FzcjS//vQ3//HfzOSrE+sfkzX93pFjXHu18pSzz68iNOR3o3/5LftlvPVsfRNA49lw3sv5gRW+GTTVk4fknvHplg60wJba+fP0ap/gM0ppIm5IoW24t+nc6LT7K05AfI9ajebFhAFMM5mDm9HGxnuJxgb2j/oj+nmf4vlu1LJ3A+xtY1GMAS0/7E1WkWZZCZMwTG7NZjOwynClLL/Lg2SvsbF5wY4sJE7oORneVOTZZmshHbZGvuAYdhk2byZpLj3lta4vta0ssHxxhl8kEOn4/DqMT9oQ0SAdVNulvjrFkUDeGjFrJkYvPcHCw5/nFI2zV7UHHvsNZbBFFdIM7ysLwMl/OmA4d+HLIHEwO3eH+C3vsHphjOmM8XdoMZMiq+7hnltXlvZ7Mt5dYM7s7bTc9J/zdCj4SbfmsR9bVqmrKigqJTU3kqY0bh255cds1g4S0MvJLq6gUJU2triXG2ZknL91xy26+zJO2qLL98To5lWGDBzD5uCcemU2PoqIo2Qlzo54M6PItnXV6069vX/oK69NThwHjprHoui8RuY2isiDwISc2jqXvnpf4p703d+WTlGd58njjGIy2X+ReSOO48vuUEGtjhqmJPktvhZHwrptcQ4HbOY7PnYz+krs45lRoRihEl57CSFeeHF6G4eie9O7di579BtJbbyE7zZ0JSi2vH8WuJTfamkuG7ejf9Xs69+yjud7evXsweOBg5hvtwPxFOEmioWq86lqq8kIIebadzXMGMrS/jkjfmx5DJzBh81kueCWRWtx0NYlKShN9cbtpyur5E+jRqw86PfvRu9sEJs/ezfGn7gTmlNJ85UY1Cc/WsXbpBBbcDKRCinWJ5KNoJ6pUqErTibS5zB6ToYwc2I2evXozath41m7ZxtHjp1jVcw/3nWPkyLpEg9a+Kk8j5t4aRvT6nqGrr2ET17TRVlFdEsaLHRMY1eMbvu3WWxNnGmJrv0HDmHX8Ja7JjVGmNF7Er606jN52GdvIH750o7oqAYcDU1i6ZC0X3T/2RfEaMvwtOD27L4tO2hKc1ShrS6NsuLXCgHFTTvI4Jr/+o0FVlKcGYXdxCyYTezKwXy969emHzthZLDN7jJtQ0nVTTtTUlIVq4vvwbm1o16Pumvv06cWAvn0wnLaCk3e8CRViuXH6p6ifZSkkOB7j8PIRjB6kQy9RP3sMHM3gBbs59DqE2IKaJrGymqqcKAKenGLX0skMGNif7j3FeXTGME5vPXvMbXibUkhZbbPgSo6vBXvXjGPYIXticj6mOySt8Zm/YFqHSlVFVmYOUZEJeLp6cfOhHSdsw/HIqKCgIhvLe25YWEbS8kVpramtEAI5Cn9/P6Iyy+s/z99IbWU+6eHeeL9xxNHRQfRq683eDsc37vjF51Nc2XiXakqySIkNwi8hT/zekCl13eO9mhpqPmLK47+aqkKyxf4R8WlkvVursjVqKc9LIjEihKiM0ubiVfglPSoYv8BEsiubi+qynFiCvRw1vXN7RxecA6JILWxsGhSqy3JJC/XA21Vcc/312tvb4+LiTmhECoWt1mWR18o0ksLdcHO206S3f+uDf3J+k9GUpgjxXppJUoQfrs6KP8U5HLzwD08jT+S5NSqyY4iJCiIyowTVxyqGRCL5YQJUtDtpUd64u9pjJ+rumzfeRIo2KC8/n2T/JHIKypoIiJ8fUqxrj/a+EvEsP5EAH3eCE7IoblGA1LVl5MYH4+/m9C7ONMRWBydnvKLSySlrjIG15QUiNvoQFCfKZVlDwNMuttbU1KKqLScvMZSoqFgR8z422qOmqjiTlHA/IlPyKNE8na6nqpichDB8fWJILan7BkEdYp+CJCL9nXB2FLHPQcROHyGks5WvcDeiVpWKawjEz625nnByciUwOJb8sg8EtpocMmO9hAaqi8V2rh64C/9kf6hSVuSRGReEh5uz8Ke9OIc73oEJZJRUKZH6ParF9SbEBBGQlE95069ESrTiC6XX9rmL9UaqhdBMJyg8CseQKOw9/LhpZcfO+2FYhvzEA0lpJMGvzDm7Zw979+xl796Wtodd2w9y8tIz/IvKfti8e4lEImkFKUC1R/pKe35SvqpKJsnrPub7TTHdvYc9rcTWPbv3Y3bCAuek7HffEpBI/pp80fr4YiOfl1hvgqqEpJhIbFz8sYzIR/Pe50+ZsniiXB9hcfYs54SdPXeOc83sLKdPXuTGfTvCisv4zO6mRCL5GyAFqPZIX2nPT8pX1emkBVrz8MI5zp9uPbaeOX2By9ef45Xe+OEvieSvyRf1fz/IZyvWJRKJRPJRpADVHukr7ZG+kkiaI8W6RCKRSH4UUlRpj/SV9khfSSTNkWJdIpFIJD8KKaq0R/pKe6SvJJLmSLEukUgkkh+FFFXaI32lPdJXEklzpFiXSCQSyY9Ciirtkb7SHukriaQ5X+Tn5/Mxy83NJT09XfO3te3SpEmTJu3ztKysLI21tk1ac5O+0t6kr6RJa25fFBQU8DFTRHpGRgZ5eXmtbpcmTZo0aZ+nNYiq1rZJa27SV9qb9JU0ac1NToORSCQSyY9CTlfQHukr7ZG+kkiaI8W6RCKRSH4UUlRpj/SV9khfSSTNkWJdIpFIJD8KKaq0R/pKe6SvJJLmSLH+HmpUqlqqalTUqut/kkgkEsl7SFGlPdJX2iN9JZE0R4r1FtSU5hIc4su1NzH4ZFZTIQW7RCKRtIoUVdojfaU90lcSSXO+qKn/x4f4vMR6Bcmxkdx74oS5SzBWjuFY2kfgFZ9DsUqqdolEImmKFFXaI32lPdJXEklzvigT//mYDP2sxHpVMh4e3hy3jCcxr4Dk4GhsbH1w8PPjTWAANoGJ+BfUoPjsY9RW5xDt/ID7L+xwjS9u1cGlCW9wtrLg8dsoUnITCLK5wfVThzl8yIxDhw4JO8jBA0c5a27Nm7hcIj0f8eDifg4eFNsOH+XY8VOcPn6EI2aHxG8i7S1bXKIL64/+carLM4hyuIvF2SMcNqs7n3KM42ev8eRNMlkV9QmppjDRD5c7Zzh9VKQT56rL2yH27z/NtUduhBfW8q7DV1NEvPcz7lw4iNnBAxw4eoqzL9zxzVeLIzVQQ3FaEN6vHmMdmElOM2eWU5n2Brt7xzhxROwvrtXs6iOsIvPIq0+hUFuZJfz7kLsXn2Lnk4rwcBNU1GYGY+fgjn1wRrN7pVamNyW5YffoIres3AkXB23eBysl3d8Gx5fWeCaUiiO1pJr8WA/eWj3EMTyXyhoV6lQvLG+fY/+BA3W+Ef48fPiI8OVFTjz3JSitSQ4q8skMeIbFjatYeiU18bPwSkk24XYXOH98f911Hz3B8RMnOXn0MGaiLBw4Iv7/qRfx+QUURLngYPsa19gSqmrrD6Ahh4zgpzy8clCUI+G/w8c4+ciJt5k1ohvaQC3l+dH4PLvN1YsO+CUX0axmVxdREOPOUzs/QjKKW/GBRNLIDxJVxckEvL7G5VNK2ybKp2hvrjqHE9ukHvyckQJUez7sq1JS/V/x9PETXobloGqlgarMjsTn9S3uvPIjPi+dGPen3DnXGOvqYusRjp64y+uQNKJDHLC+LsrjgYMitoqYevw0p44f5ehh8f8i7f7Lj3nqn4lo7j+JWlVEkudznl4UMfqwGQc1sfWAaM9PifyEkFjUcBAVpSKfvo8vcPnk4fp8NeTtBOev2+KTJuJhfWohTsiLduXZdZE/Tdt+nKN3bXFOKRUeaUBNeV4sQS9vYuMZScq7cymIKF3gj5fVOU4fq4utB87fwsIznpSmI7bqYlJ8rXl26TYvnGM1cbcxRIp/5Ufh4+7GM/dECqqbO6QmKww3y8tcvfcCvzQVlc1iaw0FiT68sbHELjSPkvfkpIqy7Aj8bEW890sls0QEtrwQPKyu1ekbRfcIbWSmaJ+TJzn+wBH3uIL6fQU1FRRG2vP09kUeOIUQX9KY79qKQpLe3sDiXH1sPXJMo59OHRNlQvj7kNlR9t915W1CLgVxHnjYPMFelK2iRucLSihPFuXE4qjQXAc4KPY5fPM5trGinNanUKgqTSXM5hZ3L7/ALSKnuVZUVVKV6s9TG0+cwrKb3Fvt+EI5UTOftuDzEeuioCcEYevkzsXQQnKLi0hIyyIuN5u8zFAcHGzZ/9iNy/5JuCflkFgoBFAzodRIbVkMrvvGM2i4IbMvBlD8noPLCLk8G+Oh3Zh8xB6PECtO6P+B73//b/zh2w507tSRjh3b065tN4ZO2MxFtzgcbi5lyfjvade+E+2//i2//de/53/829f8+bv2dGjfnvZz93HyTVr98T+GmtLMt9yc356uf/wl/96mPR07daJju29p/11neo3fy7HXUWSUKxWxmKgXe1nW/Rf86g9/4ut2HenUsYPIW0faft+fKUvPYJdeL9YrM0mwv84+40H07vInvuvQgbYdu9JhzDzmnnPgdUwxxRrFXk6S8wm26/di3BF3/DPqK3xVAZnhT7A4aIDewO/o0qEd7cUxvus5gqHrTnL2bQwZmlZJTWW+D3cXduf7//lnehib8zq3SbRXV1LpfgrDOeuZdcqNzPqfFVSVecRfm8G8nv+TP0xYy+43FTRvb9JwOTSJeePHsNkyhar37lsJYQ83s3pMd+ZfDhAdjVrUoRasnzOK79u2o0PHTnRW7tuXv+af/+Ef+UeDU5j7ilajnqrkt9hu7ES3tr+h64aH2CY2FqDq3GhszUYzsk872rbrII7xz/zyl7/gf//uO9qKY7fr3oeeG2/hnp5AyLVFzJ48haUPkynWVEuR0dI0Yl3PcGjZYIZ0a0OnDiIfHTvTduhUph55wAvRcBRp/F9FTthd9gz6Hf/n/+mP4TkXosqbFOTiOKLvrWeA4X7OvklsLuQlkhZoJ0BrqCmIxefWPpZN6Ejnzm007cN3nfvQdco6Nj8MIiT7w+3pzwUp1rXnw77KI+zGMqYMHcrIvQ5k1LRspGtIsj/GxjFtGbTiJs7R7jxY149uf/wX/u3rdprY1VHEsHZtu9Cjz1wOWgbi8vIw22eINrZ9R9p/8ye++tX/4O9+9Xu+FLGxs2hHv5+0ilWPI6jUonzWVsbwcsswhv/pH/jN1201MaFju+9o3+bPdB+6kq13/YksVFrVGtJ8rrF34C/46sv/4KvvO9DpXdzvxaipu7gbUlgnxGtFbPS1xHzDZIb1+opvRJ7adujMdwMmobfvIfeCcsgpVxKqyAm5z/Hxf0Bv8w3s4+tVeG0ZRYnOvLwwn3ljOtCto8hXh45827kfveZuY59NMDGFKs3AjFqViN2ecQz+h3+i3YSDXE8ro7xhREstHBB+k11rVzNg/XPCSxuH4JRzp9vuZ+3gv+P3fcay+GkWOc064eVEPt/F8olDmXYhmKSilvetigy/a5hO0WGUqQPuycJHqTZc3jpd3Behb0R+FV3U4Zs/8i//7xf8fd8lmNql1+8rLrE4CZ8joxnd/u/4dv5xLgY39kCqi9PwN5/GnFFtRWwV+unPv+E3v/w7/v7fRTv0fTs6de1O20XnuOgbS+SjjWyY0FvotkBiG/oCQjekBNzi6q7xjO/3fV1sFf7/pvcYxmy9wHXfJLI116qmOMWeS5P+wDd/345h257gWtDER9X5FDkdYoDeFowu+pBf/7O2SLHegHCkj7sQgS4hBJfkEhvpzdEHthx9E4pHQpoQ7jnEJWcS4OHJ5Ru2HHfPJ7ZRhzWntoQqv9OsGT+NMSY3cBc1rpmPK3y5tWAUUwbO53xQCcnRrzhr2I6xSzdz3saDsKBA/P398fP1Jyw8lsIy0cMuiyUhxo+AoFDc7+5i4+zO/H7BZW7YeBEa5I9/cjppzYdZP4CaknRXbi7oxniT5ex+8pbAwCBCfd2wObud6Z3b8a3hUe4GKiW1lKhnO1g3oSvj99/G8o0vIYEBmrz5+vgTE5dcF2Br8kh1PsxK3UGM0VvCvltWOAaH4Of6muvrTIR4NGDWMS+8cpXzl5PscoIdBn0Yf9SDgKw6z1SG3OPwwgGiAkxguelTnN4GEBzgj8Olg8wf1IYuY2ZyxKlQ7K3oel/uL+5On9/+Pf+z62wWX/GhpMHBilj3OMWMuRuYfeotWfU/K9ddVRjMveWjWDf5O/rOX82UQ0LMlzZR6+p0XA/pMV937EfE+hbWjO2O0WU/MpXM1JQRHxuFj69yb4Lwf/MCi22zGN6pF3OOOuOTU7enMsUqxduCEwYdWGQ8mC7Gxzhjk9D4xEFVTmlBKOFhgcK3PtgdmcTUKYPov/0ZTu5+BAUHE5idR5k6F59LJswxmMoyIdaVAQhUBeS+2iXy3UP4aSUHr7jgGyDSe7jyYOciRvf4imErz/EwQklcTW7YAw6O/A2//dWv+JfRO7nsmsq7kqMR6xsYNOMAZ92SpFiXfBRtBKi6JIyAu6sxGDAYgwW7uPDSibehol19eh2zmfoMHL6adVYFJHzqkeV/c6RY154P+0pFbexDThpPY/DEI7zIqdHEhEZicT2zlBk6E9hplUBSViDP1g5g9NxFrL/nRoCIXYEirviJ9jowKIycgmIqK1JJTVLa7zC8LM9xZu5/0GHebo49VmKxSBuXRFxZtUbMfgpFrFtvFoJUfzTrbtmLdlvoCT8PPB+dZuXIfvxxxHpMXyWKlCrSvMzZP/YP6G40446jj4jjdbFVifsRkXGUaHoHlRSF3WaX4VAG9tVjy4X72AQECa3iwvP9a9HvO4kxa54gLlWgJidUiHXdL5m85QYOCfWterIjT3ZPpE23QUxbfRVbZz9CggN5e+c8Ow360mPoeFbciyddM9SbhMMeXSb+4Qv+ru14Bmx/TUx+QxQQxxNiffe6NQza0FSsK4EyDaczy9k++Rt0F81j+GZrglKbqnVFrO9mxaRhGF4MJrnZqL+CEOv+19k3tRej99njniLOpaogMzURP+ETf6E7An2csD69lpHffceYRWexS2wI0DWUpL3h6oKBrJrZhW5zd7DsUnD94JRAXUVVSSSxUX7iOKG4mq9mxdR2dF19DWsXP8JCgvDLyCOzupDwhxtZP7EPcy4GEauZqFBLuZ8566f35A86wv/HrPH0CRJ58cD25DZmD/oOnalrOOdR9yS+JNWRq1O+pPtv/5H/2XsZay1CRMxWjiNQxLrzIQZN3orxRV8p1n8s6pQQ7tn7cjlA9FLzUvH38OO5TygPPN9wwMKSPff9eRNXIQpFCq7PnTjtkUfUh8S6cttqvLmzTJcpo1ZwIaC6bvS5ntrQ6ywfacDg6ZfxVqnITbQRYr0L+luv4Zj86SahwPcmB5f2pI2oMF4pP/QZcp1Yv7WwB/qrj3I9qMmDthRfHPeMosfEzRyyU0ZVy4RY386GKYOZeS2UhMbnbU1QUZrmyrVF/ek+cTmHLcMorarrpSvnygsL4MHGHZx45Iufxl+KWD/Jzil90T3mSWCWkjIXvytLGD90CIN2WhGV0XhNtcV5+F0wZNbwdozbZkNYRQ2l+b48XtGbJXPHMHi4EVNnHeVxkqhUmj0UsX6amfM2Mud0E7GuLqEw8g6r5u3k4PnznN+5lsXjtvEkuqyxsVfEupk+RhPGseX5B8T6o62sHaeDsSLW3xMXNeQE3xcNTm905pnxPCivUQRXxeH15Bgm80y59/ICO6cvYIupJT6t+VStIv7eQubPG8X4cwHkN3vLOQ+vSwuYO2Uayx+liIZAjaoogMerBtJj5EzROARR0qRIlCYG8GxzLwaMnM6SqyFi72qyRcfozIx2GC4yYmDveSzbb4VXw0hHiRDr9zcyeOZBzkmxLvkEnxagFaS6nmH3xA70MDmFpV+G6ODXl7XaCpKcXnNl22FOeeWR9DMvbFKsa89HfaWOxuHofGb1n8pOx2Kym5ab1GeYr5xJ7xGHeJpWTHFJIE/XDmL8cjPO+DWNwq1TFmvP/ZVf0mPlaZ6HfTDAf5AGsT5jhhHH3jSZvFmaScAlEwaONWHRFX8RSVSkel3hwPhvmH7IimDNQFZLRBwtC8fWVB+dkbOYcdqdzKKK+tgqIl1GIq/2m3Hk3HMcs5VfFLH+gBMT/oTB1ps4Jiopi0l4sYdlY3vSbukN7MOaTB2priL25RFWTWhP97mXcEgtVcb7sds9njX6XRg+dj7Dey3nimcmhZoqK6JZxC32rF/L4I0vGsW6EMOqzGec3bWbvSfOcv/WfhYPW8ll5xTy38kZIdZFPlbqDWeGENKti/Ub7J/WmzH768V6M1RUZLhwY8VI2k3axH7r+Mb4XJtBmvclVprs5dLDS5gtWsyymUexT295jDqynI+x3agzA0xfkVzYNB8lQqxvYsOkvswVeYzTiOMU3h6fSb+hugzZ70xyTmNhqy3I4M1JAyYO68uUg86kivwUCLF+c9Y3GM/VpX/vWcw0PsurtNq6QbkaRaybMdhgGyaXfKVY/3GoSPF8yz0Hf15lCceWl5ETkYi7tQcnrr1k99233BRBJr68hOz0GB4K4e4UV8x75a0ZJQReMWHW5PHMuxFB6bt2ooaYe8sYpzcL/eO+IlUthYkvOWPYmYlrL2IdLn6pET1B4fdK4XNlCcmW77bmC7FuukiHNuue4JXcfFzh0zSIdR30Vh7nRuC7sV3RoMST+mAZw2fsZv+rOCF7hVi3FGJdfyDTzvoQlllBjZInYZVVNXVTSNQ5pL89x+I+I5kpxKdXk7ZAg8h8aXIymXkl9aPfTcW6F4GZolyVunB9+Qwm6G3lbGBxo8CtR53xlFvr9Rmnu4e7sSVkZfvwdFU/1u5S5q+dZ93c+ejutSe0SNmzhqpWxLqqKBHvyzOZtuEyVzyyiX6wlX1zx7HRMr5x7vhfKtaLQ3h7bin9uo/D6JoPCU1uTXGkFdd3TWHWERf8Y6N4s0+PxRv3c96/8l3j24iK6LsLmTN7BONP+5Bf3pAR5W8unu/EehoV1UWUhd9mw+BRTFl9DYeMlt4ro9j3OGvHT2La8pt4iAY2M9iCc0b9WHnRlnN7NjF15gbW3g0VRxaIMhAjxbpESz4pQKvjcT2zGv2OY9jwJIK0FnpJLdq5guQU0stqWsxx/fkhxbr2fNxXVSS+NGXdtIEMOuROVG5DoVKTZbOd9XNGMHi7HbFlVdSW+PNozSDGLtjHEdciTeyqi1/ib3WtCE/NC11pjD0Wy76k+/ITQqw3fxtKGxrEuuF0Y465NpFj6nIKHfYxedYaFlz0plC08RqxPq4NU3Y/wiOpnBohnquqlLhfjcia2KeM8pj77Js4jkmrzHmgqMEWlGdkkJmZS4HGBSqy34n1W0Ksi/RVwdjsW8TkQfNFxyaD3BbhQV3oz8uDcxjVawFn3FLJEsLXftdYNiwywuzsVU4aT2DSlge4pNV3EloR6+rKQqJvz2bDhg2ccM4iyesOp+cNZcnlt0QVNOT5LxTrFSkkPNmKXv8RTDrqwNsm/aCKFHfsjk5kzt5HQj9lEXDOmE3GMznkktP45LoJGU7H2Dy3EwP2WAmx3vQ8xY1i/XII8coUluyXnJ6rx8T5R7kSW/2eVq6Ku8sJ40lMmn4Mq5xaMhIduDm7LWv3nuLcob2snmvMvDNv697LURdSLMX6X4IoNKUpOL7y4uXbRLIb7l1pGRmRSbj7RPDGJw7fDCESK9NJDPfikkMmcc1ucuuUeZ1mw4yJDFh8n6ByZbRZeFoVybN1I5lguIF9bpo7SHGiDacmt6FbFx2GTZqNsdE85s6eIXpla9h43pGw/MpmAjbP58Y7se6Z9EOfHTeKdf1VJ7gZ3HBkFeXhQlCuHUCHGaacd8sUv5QSbSUqWL/f8k3vcUycPhejeXOZO3cO05cd5phlJCWl0cQ+3MLQDiZsuhNIav3RPkw5SQ1i/bgPQelC0caas1N/JuONr+Mq/vd98SrErRDBs/rMYp9zPompvkKs92eV6U0sQ0K4t3sGI3Vmc9mriEqxc61nS7FeRXGKA1cMdVl20hZHUUtUode4vns6Y3bbEpjbULb/ErFeQOorM3aNGsyAhTd4Ga2MUjRQTJT1KbZPnM6OV6lkFpdTbLue+cs3sfh6uGi4W5xIXdtMrOeVNXhESdcg1qez/Ek6VSVp5L82ZVznOSw67kJsXcImiAan1JGLM0YxXW8XDxKqSA+y4KzRIFbfjcI94AW79IdhMOswr5UJ/iWJxD6QYl2iHZ8UoLke3N9oTNf2a7kRlitq0OeLFOva8ylf1UQ/4cJqPf40+hQv4gvqY0Yazvv0mTdqPKstsyipVaMuCeDhqn707tSZLqNmitg1l3lzZzNz/jIW7nvCm/j8ZrG1JNrunVi3DP3h9+qdWDc04fibJgs+ZAXw0mwqXfRXsOZ+hIgNKtJ9rrN/6K/orDOQMQZzMJ4vYuscEfcXb2PnLT+S8jMpcj3InL4zWHDcifD6Q32Y5mLdKUnEi0wbLi2azeARB3iWWSmib0vSCX20nYUdBrHpbiQRRVk47h7DusWruOsfScDjVUwZOI09lgmkKQ/hI5uK9boIV1UczJ2Zo1m1wgzLdBGlUt14dXQaw9bcwi6uocaXE/WjxXoF+crTYN0+DJhykDv+eU1eziwn1fM2R8eNZOMtX4LF6ao9D3FgwxxmnPLkvbErQbrj0XdiPamul1NPE7F+JYyEXBHgA5XpS4YYbn2Gn0jxnjZRBfFiu7hnQxdzPLCaxFhlZL0taw7fwyXcjdtbpjJhzDpuhVSjqimmzEWK9R+NSvRkM/2deeQQjHtik/kD76imsqBACKxi4pKieOvowjNRalv2UFsl35dHO0wwnLKG6zE1lNYKHybdYLsQ4sbbH+KhuVtqChNsOD35a3R692DktDksMDEWong2cxZsYMvZt0TmVzUrJH+pWC/NcOOWSVcG9BvKWKMtbN+xi93bN7Fx4WQmTBwtev7W+Csj3iK0KhVs9eDf0nboOPRnzcfEaD5GwmYuP8mpZ/GUFYQTdX013TquZNPT0Hcj2eWpgXje3c6B3VvZvHU3e/be4aVPCkXK8piup9jVINaV1VKCTrJm3CyGL72Pl0r9foUgCa9rSzDuqcsWq1zik315JhrgVXvNsUyrIc3xBKcmjcBggy2e2SWU+p9jVlOxXptButtJFkzcxMlXCZo33CEEtxu7mapvxqOw/PpG7MeL9dKk51xYOYLhQ5Zy0lUI6KZd+gov7C5uY8b0U1gn1xecXGv2L1yL0ep7BLWcCvNDxHphErlPN9O/00IWXPAguS5hE2pQq95ya/4gZoxdy/VwRazf4ez8AaywiMI/N5eICwtZNX4ei86Hk5ofR/SjzQyRYl2iBZ8UoOnO3Fg+l6867+JOfO67VYnyw215fmkrW7cpJoKrmRUeiQ318OeJFOva80lflcfhdmkzen0NOOqShGYAN/c1R5fMZPLMQ7wUQlWRYTXFiljvT/9enegxaZaIXUaawbA5xqtYsvcl7nFFzeLNX0Osv9w6HN0e7Rg2a50mtu7cvoWdKwyZPnkMUw9c42W0ctxaIdavsX/4r+g2YCC6M+axwLg+7i/Zw+4boaTmpFPwchuTes3H+MJb4utOIa4pg+AXRzi+bzNbtu5kx44r3LeLJEfEh8ywh5xUxPq2erGe8JQTc2fSfdwpbIoqWlmBJIcI6x2s7tCZlZdDCM7LFmJ9NGsXLeN2TBUlSa+4ZTyRUTNvcD8wB1XC3UaxXqbEsirKou6weOxy1h1yFJFaIYOYl0eYNX4rl1yT6uOtEOvKwN+PEOvVuZ5YHTNgaDcDtlgEoIzvvaMqHt+HB5g2ajs3vetXX6l8y6ODm8Q9voRTrupdm9OAVmLdXIj1HKH83Q4yf8hspuy10XSW3tcmEbzeP5V5A2Zg6lZNfLQi1r9njdldXPNER8LGjN0TJjNtuytheTkUuh9hiBTrPwY1lWX52FvY8PhtDLFN71tLagoI8PPnglUgIeXVrT5eeZ9KEl7sxnSJHgufZJGWnUvBMxNmLtnKrufKNBMFNQWx1pyZ0ZFJGw/zyD+Zkvxc4fNMsrIKyMtVU9siX3+xWM8U4s2kMz3b/YE2OgMY1r8jbf/wr/ziP/ox98Rj/PNK6stEMRFPd7DRoA9Tz9vhFZdJQW6OpjxkZpVRpDwlLI8h5t5GBnVYyKZ7gTSsR1MS+5rn+4cwcVQvenb5mn/5Z13mHXMhTlTK1DdNxLpS86KvsF1vJmNNbvBG1Kz3K0Q0b88vZXYfQ0wdG0bW+2rE+lOldSiPIPjaOsYMNGG3fThx7ueZb1Qn1pWpfOq8MPzOTKL7IAPm7jrNrUf3efDkNPuWT2FMe322iU5HpuaG/kixXpmB69klTBw5gmnH3xDf4nl+TZi5EPKD+HbkcnZeuI7Fg9tY3NrDgr790R27FYvIFk3oDxxZz7Pdw5jOc1l00lX4tyXiwsqduDRzFIYTd3Avvn5kfX5/lt+OIkBpSfPsuL56LsP092IREEjogy2MmC3FuuTTfFJU5bhzb70RnTqs52Z47rtl5jI9L3Ji1UAGD+hKx6/b8vf/aMwBu6j6wP7zRIp17fm0r1RkeV/nnJHSFnsTK5JWe5ixeNlKDM/4kl3fBFcV+PFojRDDSzez3ymBHBG7cnOyRWzNE/9WUdWi6f2LxXpVrBDrIxjz/f/l6x79GDKoJ53a/Ib/8b++YezaMzim5ta3qdWkeipz1r9iqulVHCIyKM5T4n6WyFsR+cqgfEUeRY6mzOw7i4UnnYnU7Cf2zIvF+dxUZur2op/Od/zbPw1g9PIHBIhtGeEPOdV0ZD3dmgsLZzFw5CGeZVW10hnOIPTxdha1H8BGi0jCC5WRdUWsL+V6mNisKiTR6gATuk1k6SV7YkPucWDDWoYoYl05mLqYpEfL6D1gHIOM93Hl3n3uPbzI8e1zmfTNELGPd/1g1I8U69UFhD0UsXJcb4ZteYZbRvMbVpv2lie7x/Nn4aMVZhe4/fAe9x8eZvP0sYzrv5iDXiX1U4Qa0X5kXWTc/yTLR4iO1rbnGv++p03UQVjtnMGsIQs56t8wsv6dEOv3cFZGCksCeX1wCSMGL+GkRzjxLscZMUWK9R+Ouoq8jDAui96aXVBeXa/sA9SkxWLv4snpwELyqz/mseZURz7i0u4FDFlvg7ufH6/X9mPxFjMehjcUOhX5sVacNuwixLo5dnGf9vNfZxpMdyYuWcfBl0Ekhrzk3uHlDBm2mK3OsaS9K5GKWN/OhsmDRAULIra10qXOIe3NGRb0HM3s/Vb4Njz5E5W4rCSWxChPvCzEsbvNZtZhJ+KbivWGOevFjpgvmY6u/nYuhJa9N2ednOfc3TSZ8WN3YRFTIhozHx6vEGJ9zxWeat6Cr6YoypLzyyagv/wyjy+ZMt1oixDr7pp52IXR9lyd3oZundrTsbcQCIMHMWjwQPp3a0+nLoMZvteREM28x8wmYj21lQ5Zc7FeN9e9ktI3h1lvMJq+805jlVjVZPqLQiWx97awfsC/8nWX3vTsN5BBgwYycEA/+nz/Fe2Hm7DucXzzEQ+txHrjnPXS0BusGTiKKetu4pTTsjkppzTwFBvGT2Takuu8LVHmrN/mzDwh1m9G4K+5p8WiId3PxjnTWLzjKlbn1jF47mHOvZViXfJxPimqqmJwPrmKiR102WoZTcM7X+rabPJy40kItsFi7xz+4z8Ws89WinVJHdr4SpX2htfHZzJSWaIxPBX/8wtZtnITZm6F9W2wWrNy2MM1gxi/+CAnPVso81b460yDGYbhlAlseeRFQqQn1pe3MKT7ZJbccCHiXVBRxPpl9o9rw7T9lvhntqIp1KWUR1mwW3c8+mtv8OTdOsRVVJYlkpwQSqjVTmYMMdCIdX+xpalY18xZrwjEao8J+oOM2eOaRW7L8KCIycPzGN3DiFOuKWTUKHPW68V6cF2SslRXHm0YxcyF+7h1UQjddesZssmKyKoaasvjsVo3lD6dvuXr7iKuDRzEQBHfBvToRI/2wlY95GmEouor6qbUasR6CCnvrWfdQqyn1jUUleJ6ThiPpsu4LVwPKhSRqjlZPvc5pPsV33bsQre+IrYrsXXQAPqJ/LTvo4/umWDii5pHZK3EujJnXVkFJ+MFJ2fqM3H+Ca43rK7ThJqkB5w2mcSkKYexzK4lPdGB6zOEWD90FyfNypLlZIhO2bGF45m53pznl3czcOpOKdZ/KOqyfKJcX3LCMRmPd0vstYaK1IBI7Bz98amsf7NXWyqCcTi9i2m9V3P6/FlWddNnq6icge80dqNY19t8FfuE5gWrNf56c9aPcSNYuRrxW/QrTq4dQpflV7CNLKovE/Vi3WAwM6/Uvx39HiqKUxy5OK8nXfTWcsourtmHempyw/A4aUC/7/SZddS5hVhvWA0mG69Lixk/fBRjDzqQ0nQOSWUZYTcWsGBMJ8ZueUFwRQ0led48XF4n1p80PBtUZRFjbcbcTsNYMnsKPaZvx+SMJ0WiSsQ4X2RpR30WHXjAc88AAny88PILJPD1Ay5tWoHOlDM8i8gVDXw2b4RYN540nm3WqS1Et0JpE7HuX7cKQXmEaJxHM3T0NBZYhPPuXdAG1BE83bAcw+5G7HryFldvP3x8fPDx9ibw/mFWzlmB3vaXxIiTvWtHtRbr9avBFPpyb8VAeo01YueTSCHg61IrVGZGYbt7CMNGTmGxyLPyyk22EOunG8R6vTpSFwdgY7YKw27DWbJiHp0Nj3FZinXJJ/i0qCon2fE4W8a0RWfpJWzD8mhYDEYpz+Xxr7m2fDS//rUJ+15HS7Eu0aCVr6oTiLEyw3jgCk7fuMreGUtYu/oa9rl1LaXSor4T60sPccrn063ZX2vOurIazPE3dXKsItWHx9sHMHTpHszds+oHo+rF+ngh1g8+J0CzmktL1NSWhmK9Q5euo+Yz11xZ6asxKqkrc4i4uwL9LsMYvfJRi5H1htVgioix3MXisX3otu4BHnFN5lzWVpHidIFNBl3oMess9inFIual8npnc7GOuoDioCtsHjOJhXq6jDRaz6jNNsRW51Ka9hTTUTOYvekaV92C8PX2wtvHjyAXK6wPr0Nn3AH2P48SV1sl7pUQ65OHM9M8lNT33t2tbiLWHfBQxHptFt7mIj4OH86Yo67NPiJYRxqBD80w6TmHlZdssfH0w9/HG29ff4KsrrJnyQo6TLuGU3Lzj/tpJdY1q8GIUqRKwuXYTPqPMGD8cS9yihvFjbq8EN9Lc5k6sj8GooOhPMjIT7HnWjOxLhDlNOjBbmYJbbLMxJBvJ+xmxRVfKda1R0V1URo+VlacfBmEnSio+ZU1VFaraf6CuPifkgQ8XP14IXqepR9zVqsUE/v6LLsHfcvYkaP4qu8ODj+NoHHRFEWsW3N6WjvGr9jBFXt/YiPDCQ0VveaQEEJjYokqqWx23jyf6+xd2IOv1/54sX5zQQ8mLT/KtYD6+6rOIuTVDubr9GPdMSeC60dcI5/tYP2k7kw0e8BLrxCiwsPq8hYcTGhiMslVamqqskmyM2XR2EGMnbKKiw/tCAuPJjzgDU8vLGBc76/45f8Zx4ITrhqxnvLmJDtbrLNeFm/FhTW6DO47hQ2HX/LWN4zI8BDcbh5n0eABDJi0lst+dXNaK3I9ub+sDyt3X+Zxg1gXlCZ5cW9ZZ4YMa89ve61i6zkvioSQdbq8kb4TxbV6ptWteaquX1qyNpMwq1MsG2jMMetIEmvzcDObzPxxfVh89TX+oeFEhIlrDRP3IzuffFWxEOvKOus9MDIPJLtU9Jpf7WV6t8H0mGLKKTd/wsLCCNfsE0lEZB453nfZsmQlwxc9wK+gStNQq0UBU4s8UBbA0z3rWDxtP/cSqhvvsSLW7yxg9qzhjDvVili/2LjOerHS1qiLyPI4ycYpQxmhu4FjtzwJFucP9/fEcv9qJuoMxGDbTWySq8QRqskKvMmpuf1YdqNRrCuNZfqbaxyc/me+GziA9iNEnjySm4/4SyQt0GoEtDAQr+tLmNBvKNOXH8DSwYPoqBgC3R5wxVSXHl9/yz/9wpjDDjFSrEs0aOerCvKjXnBqcm/0R/aj7eC1bLzsTdq7WKmIdT8erh7AGKPlbH7iI9pn5VsW9bE1PJzI/CKart6niPXbS/9At2XHf7xY3zSE6dOMOOrcUJqLyIk4y7ZJIzDZYIFjknLCGtI8r7B/7JdM3HKch0LoNov7sfHEK9Nt1WUUBl4VbfsQ+g+cztFrz0TbHkF4kBeO97cwX7cd//K/ejNh5UMCxVHTwx9wUvePdeusx9cJy9ocd6yPz2NIj1GYbLLAyUPEcXEuvyfi/IbjGTzKhF028WQpsUSIU9sdo1izcAnXGsS6Qlkar/frM2n4V/yuzzzmbLUlPiucROst6E/bzdFXdV871cRWTYwtIjvkAesHzmKT2UtiVVXEv9zLikk9mXj4AfbewURH1GmJkNRMsmvLyVTE+tRejDngxNvEMsp9zrBD+Kzj0DXseOlOoHK/RHwNDRUWkUVB8AseHl7BiPnmWMcVoVnhuOH8VQm4XNzDrG7GXHJLJe9dmVDE+hE2zelI/92tiPUHLddZr6Ek6iEHjUbSp+d09py1xy9Y8b8/ThdNMRk8hBFzTbkdUreKXVGSHeaG37L64B2cmnyjsjDKgStG39NnaBd+r7OB/df8f3Bb9xmLdTWqmgpy09LxjYzkrvUbDt0VvXCvAvKb9vqEsMrwduX5KzfsFbHzMWd9gKpkZ2w36fD9N1/TdcMrbBOa+lKI9fiXnND9Hd//6Te06aJDn9696NWrFzo9utFvjAEmN/wIz2tsUfK8r7HbuAt/XP0ID1Gofygl6S7cMOqC7lIzzP0au6uVqW95uaQ3Q/qvxvSl8iJmGdEvdrOsxy/4dZvv6dC9F71FvjR569qJIbPXcMg5k1LlK3KVqUQ+Fw3SzAEM1GmDTs+e9O/Tj+lTJrNy51qmdFrBbjN7YoVYT3Y9znY9HcYcbvIFU3UJ+aG23NlhzKRBXejVs7vmGJ37jmDSkhPcdEx+t55uebYH95bosHznJR41maStrikgJ8SMVUPb8q+/NmDZRWdCPC5wWFS0Ybsd8Epv+UxE+D7sBdfm98H4lA3Oqel4HJvK5Db/i9+27UyPnr3p3VMHnV596bX6AhYhCYQ/2sTqUd2YL3rG6flx2G0bTLv//Qv+7tft6NivD72Ue6fTg579BtF72kaWzRrN+LlLmX87gSad8noqiXywk+3zDVj6NJWMhq8nCLEeZWHEDMMhjD7h/Z5Y97gwn5l6k1nyIKn+C6aCqiwSHG5wYIEuQ3p2EPepJ9179qL7UAMW7HmEQ0Rh/TQv5XHjdU7M6sWS66LBbtJiqMqj8Xm4kOG/+5Lfd1nHVY8UKdYlH0U7UVVDdU6oCJ5bMRnfmX49O4q63Yth/Qcx33gWi5etZsJvVnDpVYTmHZOfK1Ksa4+2vlIVx+J/ajKdfvd/+GrqUW4Hl9cNxGgQYr3In/vLetL1z7/iN+16aGKXYj17dKf3ACGqj1vj0uRlxpIoW24t/g86LTnK05Affq9UldG82DCQKQZzMHNssnh6dQoeB6cypscMFp0TsUPkLdXnKnv6/x++/vpL2nbt2TzuT5zD2kfhIiaIfVW5pLne4cwyXUb1/V7UHR369u6L/rjxrNixkhkDVrBm6T3NNJi0sPscH/s7Jm26jl1cgxCtoizJi1fH1jBnlDiPTjd6itjWUWcgwww3c/ppGImlddFFXZOAzbbhrDJeyNWgur3rUFOYeIsD0zvzh38ZjO7W53j5P9Z8r2Xs2qu8inl/NnxFXihPl/TFZONhXqYWkvT6AAu6/oJ/+/p7OvcQ+RAxqqeODl3n7ubI22gyA26wb0oPRu534E1cMoGnpjD2d//A//dPbfhe8Y3GP2IfoQt6TlrKwpnjWTRzFFPP+pL47quIDdSQ6nie4/odWXbVk8gmC/Ok2ZuxYWZbeu98TmILsR52fz1rx+sw80IgMQ0jqqpCsnyfcW3DDMYN6CrO30PTfnXqN5ppay7wyDOTfE0RUnxky5Wpf2blfgscmiyNp64W8dltK0ZCG/3T7+ax/kaAFOs/hqqqYtGbjeK5fbCwIF7Y+/PUN5mowhoqa4txeuzCnedBRP+g+S9NqMojJ8ASc/NLPA3Iaf4RB+H9ysIE/B6f5dzBnezauYudO8XfXbvYsX0bew6f4qpzHOnFjU1QRUYo7rY3uegYRdq7z3RpT01pCmFi/6d23gRnNimslQXkBjzl5sWnvApKR5n5VxDngZ35IQ7uUfLVJG/btnDg/G2sQ/MbPxNemUvUm7tcOb6NHTu2s2fvIe48fE1ESiw+Tzzw80wgXzRSxSl+uD27zWPvNLKaPaqopiTRkxfX97N/z3bNm/S7zlpgE5zR7MlCdXkaEXa3sX8bJO5R/Y8alIykEPDwJmdPPuZlcCIpcW/F/bvFC/8s8t5vT6guTCHG7RqWnhHE5RWT4WfFk9N72Ldnt+Zad+7YwY6de9h13Q63hBzyolw1x3sVkkFJeTaRr29w5dgeTPfuYbfim/p9du4xZde525hfu8A9azveJFa9t16+QkmSB+5OD7AMyqO44cVU0SPMD3+FtdV9HikfkWn2jkQ5aYFim6Ul9lHFzaYcUVNMoo+4f6e3i7xsZ9vufZjdssE3pVx4toFaSrNC8bO+jV1oLpnNHi1WiW0B2J45x9lrDgSkK5/ukEg+zA8RoOqCWDyfn+PEwR1s274DM7NzvLDzICIqkjeXXQiLy/3oe0P/3ZFiXXu09pWqgrIYJ66eP84tEb+Tm8zyUGKrqiqLSBErzA/Xxy8RuzR/t29n1979nLMOILLJez5V+YmE2Z3nhp0P0Tk/YqiitoA4l7s8t3yJd1KTgKOqpTjagYeX7/PQKUqzckuJaIfdbx/l5P76PDWJ+3uPXeCuRyoF77JQRlaoHXfOiVikxNY9+7l89RkBsZEE2fvhZRdJpnLM3Eh8H1/gmWsoiXVfMqpHTW1OOC6PTmBmuk3E1p1sPXaZWy4R5DSJAWpVkRCVD3B89ZqQ93rO2UTbPuDqsVvcc4smMSUQ94fnsXSLRISK91BVlpLieZOXLq5EiuBbnOTNq8sHObBHxEjNfaiLldvOPcI6LIOyrDDRPtwW4jeJlII8kt4+4t4pEYtNRWwV6TWxdZcw5e8Jcy5eOc+jxxbYRRbQZHbQOyozQwl1vICVbyJZTRqWUpEPF+urWLyNpaiiaYSrIjfSGacnQtcEZlHQIjYWxL7h0eW97NkltMmuvey++ACH8OxmU18VLRf84jIOnuEkNfNJDbUVsXjdvsqJM1a8Dst+b5WaT/FFs7LdCp+DWH9HTTn5STE4vPHC4k0or3wjsH7rxgGLQB54FPy0A0l5EnHe1jy9cYObwm7cvMnNZnaDa1fv8Oj5G6JKK0XRkUgkkr8MKUC1R/pKe35SvqrOIjPcEevbN7l1vfXYev36be4+tCMgUwjH+t0kkr8mX3xqXPazEusa1EoflIryXEL9fLj2xIGzb9Pw+6FvA/xnUxSC39NTHFq7jnWKrWtpa1m1Ygt7j1rgkV8sGxSJRPIXIwWo9khfac9PyleV8cS5XOXkxvVsWLOWta3E1rWrN7J9z2VexaUj77Dkb8EX9X8/yOcn1htQ1jevpryyivIaFcq07J806hqqK8ooLS6m+INWQklZBdUqpUMikUgkfxlSgGqP9JX2/KR8pa6ltqqcslZjaqOVlJRTWav5TrlE8ldHinWJRCKR/CikANUe6Svtkb6SSJojxbpEIpFIfhRSVGmP9JX2SF9JJM2RYl0ikUgkPwopqrRH+kp7pK8kkuZ8UqwrIl0R69XVP3bdQolEIpH8HFEElTJfV/JppK+0R/pKImnOF+Xl5XzMlEqTmZmpqTitbZcmTZo0aZ+n5ebmkpeX1+o2ac1N8ZVirW2T1txkuZImrbl9oVSIj1lOTg7p6envKo80adKkSZOmmDKQo1hr26Q1N+kr7U3xU1ZWVqvbpEn7HO0LlUrFh0ytVlNRUaER7MrcdeX/W0snTZo0adI+P1PmFivW2jZpjabETukr7a1hzrrUHNKk1dkn56wrKJVGIpFIJJKmKIM5ykCO5NNIX2mP9JVE0pwv5s2dw8dszpzZzJwxg7nib2vbpUmTJk3a52mzZs1ktrDWtklrbtJX2pv0lTRpze2Lb9p8zcfs22/a8N23bTR/W9suTZo0adI+T1PigowN2pn0lfYmfSVNWnP7omuXzkiTJk2aNGnSpEmTJu2nZ1KsS5MmTZo0adKkSZP2EzUp1qVJkyZNmjRp0qRJ+4maFOvSpEmTJk2aNGnSpP1ETYp1adKkSZMmTZo0adJ+ktaZ/x8L8Iegcbg/UAAAAABJRU5ErkJggg==;" vertex="1" parent="1">
          <mxGeometry x="1290" y="759.5" width="747" height="187" as="geometry" />
        </mxCell>
        <mxCell id="24aQEjLsRdGv2GufV8f5-2" value="&lt;span style=&quot;text-align: left;&quot;&gt;ZCO_IKAR_SERVICE_PORT_TYPE&lt;/span&gt;" style="rounded=0;whiteSpace=wrap;html=1;fillColor=#dae8fc;strokeColor=#6c8ebf;" vertex="1" parent="1">
          <mxGeometry x="240" y="1340" width="290" height="34" as="geometry" />
        </mxCell>
        <mxCell id="8iE_GkxGKC7SEU9pdehu-5" style="edgeStyle=orthogonalEdgeStyle;rounded=0;orthogonalLoop=1;jettySize=auto;html=1;entryX=0;entryY=0.5;entryDx=0;entryDy=0;" edge="1" parent="1" source="24aQEjLsRdGv2GufV8f5-3" target="24aQEjLsRdGv2GufV8f5-2">
          <mxGeometry relative="1" as="geometry" />
        </mxCell>
        <mxCell id="24aQEjLsRdGv2GufV8f5-3" value="&lt;div style=&quot;font-size: 16px;&quot;&gt;&lt;span style=&quot;background-color: initial; font-size: 16px;&quot;&gt;IkarServicePortType&lt;/span&gt;&lt;/div&gt;" style="rounded=0;whiteSpace=wrap;html=1;fontSize=16;align=left;" vertex="1" parent="1">
          <mxGeometry x="-480" y="1340" width="590" height="34" as="geometry" />
        </mxCell>
        <mxCell id="24aQEjLsRdGv2GufV8f5-4" value="ZCL_VET_CHKSHIPREGIONALIZOPER&lt;div&gt;ВЕТИС. Регионализация&lt;/div&gt;" style="rounded=0;whiteSpace=wrap;html=1;align=left;" vertex="1" parent="1">
          <mxGeometry x="-40" y="400" width="250" height="40" as="geometry" />
        </mxCell>
        <mxCell id="24aQEjLsRdGv2GufV8f5-6" value="ZCL_VET_DISCREPANCYOPERATION&lt;div&gt;ВЕТИС. Оформление инвентаризации&lt;/div&gt;" style="rounded=0;whiteSpace=wrap;html=1;align=left;" vertex="1" parent="1">
          <mxGeometry x="-40" y="450" width="250" height="40" as="geometry" />
        </mxCell>
        <mxCell id="24aQEjLsRdGv2GufV8f5-7" value="ZCL_VET_GETSTOCKENTRY&lt;div&gt;ВЕТИС. Получение и обработка записей скл. журнала&lt;/div&gt;" style="rounded=0;whiteSpace=wrap;html=1;align=left;" vertex="1" parent="1">
          <mxGeometry x="-40" y="500" width="250" height="50" as="geometry" />
        </mxCell>
        <mxCell id="24aQEjLsRdGv2GufV8f5-8" style="edgeStyle=orthogonalEdgeStyle;rounded=0;orthogonalLoop=1;jettySize=auto;html=1;entryX=0;entryY=0.5;entryDx=0;entryDy=0;" edge="1" parent="1">
          <mxGeometry relative="1" as="geometry">
            <mxPoint x="110" y="-70" as="sourcePoint" />
            <mxPoint x="220" y="-70" as="targetPoint" />
          </mxGeometry>
        </mxCell>
        <mxCell id="24aQEjLsRdGv2GufV8f5-9" value="ZCL_VET_GETVETDOCUMENT&lt;div&gt;ВЕТИС. Получение и обработка ВСД&lt;/div&gt;" style="rounded=0;whiteSpace=wrap;html=1;align=left;" vertex="1" parent="1">
          <mxGeometry x="-40" y="560" width="250" height="40" as="geometry" />
        </mxCell>
        <mxCell id="24aQEjLsRdGv2GufV8f5-10" value="ZCL_VET_INCOMINGOPERATION&lt;div&gt;ВЕТИС. Оформление входящей партии&lt;br&gt;&lt;/div&gt;" style="rounded=0;whiteSpace=wrap;html=1;align=left;" vertex="1" parent="1">
          <mxGeometry x="-40" y="610" width="250" height="40" as="geometry" />
        </mxCell>
        <mxCell id="24aQEjLsRdGv2GufV8f5-11" value="ZCL_VET_MERGEOPERATION&lt;div&gt;ВЕТИС: Объединение записей складского журнала&lt;br&gt;&lt;/div&gt;" style="rounded=0;whiteSpace=wrap;html=1;align=left;" vertex="1" parent="1">
          <mxGeometry x="-40" y="740" width="250" height="56.5" as="geometry" />
        </mxCell>
        <mxCell id="24aQEjLsRdGv2GufV8f5-12" value="ZCL_VET_MODACTIVITYLOCATION&lt;div&gt;ВЕТИС. Создание/удаление связи между площадкой и хоз.субъек.&lt;br&gt;&lt;/div&gt;" style="rounded=0;whiteSpace=wrap;html=1;align=left;" vertex="1" parent="1">
          <mxGeometry x="-40" y="806.5" width="250" height="70" as="geometry" />
        </mxCell>
        <mxCell id="24aQEjLsRdGv2GufV8f5-13" value="ZCL_VET_MODBUSINESSENTITY&lt;div&gt;ВЕТИС. Создание/редактирование хозяйствующего субъекта&lt;/div&gt;" style="rounded=0;whiteSpace=wrap;html=1;align=left;" vertex="1" parent="1">
          <mxGeometry x="-40" y="886.5" width="250" height="50" as="geometry" />
        </mxCell>
        <mxCell id="24aQEjLsRdGv2GufV8f5-14" value="ZCL_VET_MODENTERPRISE&lt;div&gt;ВЕТИС. Создание/редактирование предприятия&lt;br&gt;&lt;/div&gt;" style="rounded=0;whiteSpace=wrap;html=1;align=left;" vertex="1" parent="1">
          <mxGeometry x="-40" y="946.5" width="250" height="60" as="geometry" />
        </mxCell>
        <mxCell id="24aQEjLsRdGv2GufV8f5-15" value="ZCL_VET_MODPRODUCERSTOCKLIST&lt;div&gt;ВЕТИС. Создание/редактирование номенклатуры предприятия&lt;/div&gt;" style="rounded=0;whiteSpace=wrap;html=1;align=left;" vertex="1" parent="1">
          <mxGeometry x="-40" y="1016.5" width="250" height="60" as="geometry" />
        </mxCell>
        <mxCell id="24aQEjLsRdGv2GufV8f5-16" value="ZCL_VET_PRODUCTIONOPERATION&lt;div&gt;ВЕТИС. Оформление производственной партии&lt;br&gt;&lt;/div&gt;" style="rounded=0;whiteSpace=wrap;html=1;align=left;" vertex="1" parent="1">
          <mxGeometry x="-40" y="1086.5" width="250" height="60" as="geometry" />
        </mxCell>
        <mxCell id="24aQEjLsRdGv2GufV8f5-17" value="ZCL_VET_TRANSPORTOPERATION&lt;div&gt;ВЕТИС. Оформление транспортной партии&lt;br&gt;&lt;/div&gt;" style="rounded=0;whiteSpace=wrap;html=1;align=left;" vertex="1" parent="1">
          <mxGeometry x="-40" y="1156.5" width="250" height="50" as="geometry" />
        </mxCell>
        <mxCell id="24aQEjLsRdGv2GufV8f5-18" value="ZCL_VET_WITHDRAWVSDOPERATION&lt;div&gt;ВЕТИС. Аннулирование ВСД&lt;br&gt;&lt;/div&gt;" style="rounded=0;whiteSpace=wrap;html=1;align=left;" vertex="1" parent="1">
          <mxGeometry x="-40" y="1216.5" width="250" height="40" as="geometry" />
        </mxCell>
        <mxCell id="8iE_GkxGKC7SEU9pdehu-2" value="BAL&lt;div&gt;&lt;div&gt;object = &#39;ZVET&#39;&lt;/div&gt;&lt;div&gt;subobject = ZVET_OPERSETUP-SUBLOGNAME&lt;/div&gt;&lt;div&gt;&lt;div&gt;&lt;br&gt;&lt;/div&gt;&lt;/div&gt;&lt;/div&gt;" style="shape=cylinder3;whiteSpace=wrap;html=1;boundedLbl=1;backgroundOutline=1;size=15;align=left;" vertex="1" parent="1">
          <mxGeometry x="90" y="280" width="280" height="100" as="geometry" />
        </mxCell>
        <mxCell id="8iE_GkxGKC7SEU9pdehu-6" style="edgeStyle=orthogonalEdgeStyle;rounded=0;orthogonalLoop=1;jettySize=auto;html=1;entryX=0;entryY=0.5;entryDx=0;entryDy=0;" edge="1" parent="1" source="8iE_GkxGKC7SEU9pdehu-3" target="8iE_GkxGKC7SEU9pdehu-4">
          <mxGeometry relative="1" as="geometry" />
        </mxCell>
        <mxCell id="8iE_GkxGKC7SEU9pdehu-3" value="&lt;div style=&quot;font-size: 16px;&quot;&gt;ApplicationManagementServicePortType&lt;br style=&quot;font-size: 16px;&quot;&gt;&lt;/div&gt;" style="rounded=0;whiteSpace=wrap;html=1;fontSize=16;align=left;" vertex="1" parent="1">
          <mxGeometry x="-480" y="1390" width="590" height="34" as="geometry" />
        </mxCell>
        <mxCell id="8iE_GkxGKC7SEU9pdehu-4" value="&lt;div style=&quot;text-align: left;&quot;&gt;&lt;span style=&quot;background-color: initial;&quot;&gt;ZCO_APPLICATION_MANAGEMENT_SER&lt;/span&gt;&lt;/div&gt;" style="rounded=0;whiteSpace=wrap;html=1;fillColor=#dae8fc;strokeColor=#6c8ebf;" vertex="1" parent="1">
          <mxGeometry x="240" y="1390" width="290" height="34" as="geometry" />
        </mxCell>
        <mxCell id="ufofs1mxvFfrFA7YMZg0-4" style="edgeStyle=orthogonalEdgeStyle;rounded=0;orthogonalLoop=1;jettySize=auto;html=1;entryX=0;entryY=0.5;entryDx=0;entryDy=0;" edge="1" parent="1" source="ufofs1mxvFfrFA7YMZg0-1" target="ufofs1mxvFfrFA7YMZg0-3">
          <mxGeometry relative="1" as="geometry" />
        </mxCell>
        <mxCell id="ufofs1mxvFfrFA7YMZg0-1" value="&lt;div style=&quot;font-size: 16px;&quot;&gt;DictionaryServicePortType&lt;br style=&quot;font-size: 16px;&quot;&gt;&lt;/div&gt;" style="rounded=0;whiteSpace=wrap;html=1;fontSize=16;align=left;fillColor=#f8cecc;strokeColor=#b85450;" vertex="1" parent="1">
          <mxGeometry x="-480" y="1450" width="590" height="34" as="geometry" />
        </mxCell>
        <mxCell id="ufofs1mxvFfrFA7YMZg0-3" value="&lt;div style=&quot;text-align: left;&quot;&gt;ZCO_DICTIONARY_SERVICE_PORT_T1&lt;br&gt;&lt;/div&gt;" style="rounded=0;whiteSpace=wrap;html=1;fillColor=#dae8fc;strokeColor=#6c8ebf;" vertex="1" parent="1">
          <mxGeometry x="240" y="1450" width="290" height="34" as="geometry" />
        </mxCell>
        <mxCell id="xJ3RLYCevfOH5oBdvzke-1" value="Z_VETIS_DICTIONARY" style="text;whiteSpace=wrap;" vertex="1" parent="1">
          <mxGeometry x="-640" y="1450" width="160" height="40" as="geometry" />
        </mxCell>
        <mxCell id="xJ3RLYCevfOH5oBdvzke-2" value="Z_VETIS_IKAR" style="text;whiteSpace=wrap;" vertex="1" parent="1">
          <mxGeometry x="-635" y="1340" width="120" height="40" as="geometry" />
        </mxCell>
        <mxCell id="xJ3RLYCevfOH5oBdvzke-3" value="Z_VETIS_APPLICATION" style="text;whiteSpace=wrap;" vertex="1" parent="1">
          <mxGeometry x="-635" y="1397" width="150" height="20" as="geometry" />
        </mxCell>
        <mxCell id="xJ3RLYCevfOH5oBdvzke-7" style="edgeStyle=orthogonalEdgeStyle;rounded=0;orthogonalLoop=1;jettySize=auto;html=1;entryX=0;entryY=0.5;entryDx=0;entryDy=0;" edge="1" parent="1" source="xJ3RLYCevfOH5oBdvzke-4" target="xJ3RLYCevfOH5oBdvzke-6">
          <mxGeometry relative="1" as="geometry" />
        </mxCell>
        <mxCell id="xJ3RLYCevfOH5oBdvzke-4" value="&lt;div style=&quot;font-size: 16px;&quot;&gt;DictionaryServicePortType&lt;br style=&quot;font-size: 16px;&quot;&gt;&lt;/div&gt;" style="rounded=0;whiteSpace=wrap;html=1;fontSize=16;align=left;" vertex="1" parent="1">
          <mxGeometry x="-480" y="1500" width="590" height="34" as="geometry" />
        </mxCell>
        <mxCell id="xJ3RLYCevfOH5oBdvzke-5" value="Z_VETIS_PRODUCT" style="text;whiteSpace=wrap;" vertex="1" parent="1">
          <mxGeometry x="-640" y="1500" width="150" height="40" as="geometry" />
        </mxCell>
        <mxCell id="xJ3RLYCevfOH5oBdvzke-6" value="&lt;div style=&quot;text-align: left;&quot;&gt;ZCO_DICTIONARY_SERVICE_PORT_TY&lt;br&gt;&lt;/div&gt;" style="rounded=0;whiteSpace=wrap;html=1;fillColor=#dae8fc;strokeColor=#6c8ebf;" vertex="1" parent="1">
          <mxGeometry x="240" y="1500" width="290" height="34" as="geometry" />
        </mxCell>
        <mxCell id="wOFMuXPOr8qMDEMKTF-a-5" style="edgeStyle=orthogonalEdgeStyle;rounded=0;orthogonalLoop=1;jettySize=auto;html=1;entryX=0;entryY=0.5;entryDx=0;entryDy=0;" edge="1" parent="1" source="xJ3RLYCevfOH5oBdvzke-8" target="wOFMuXPOr8qMDEMKTF-a-3">
          <mxGeometry relative="1" as="geometry" />
        </mxCell>
        <mxCell id="xJ3RLYCevfOH5oBdvzke-8" value="&lt;div style=&quot;font-size: 16px;&quot;&gt;EnterpriseServicePortType&lt;br style=&quot;font-size: 16px;&quot;&gt;&lt;/div&gt;" style="rounded=0;whiteSpace=wrap;html=1;fontSize=16;align=left;" vertex="1" parent="1">
          <mxGeometry x="-480" y="1550" width="590" height="34" as="geometry" />
        </mxCell>
        <mxCell id="xJ3RLYCevfOH5oBdvzke-9" value="Z_VETIS_PRODUCT" style="text;whiteSpace=wrap;" vertex="1" parent="1">
          <mxGeometry x="-645" y="1550" width="150" height="40" as="geometry" />
        </mxCell>
        <mxCell id="wOFMuXPOr8qMDEMKTF-a-6" style="edgeStyle=orthogonalEdgeStyle;rounded=0;orthogonalLoop=1;jettySize=auto;html=1;entryX=0;entryY=0.5;entryDx=0;entryDy=0;" edge="1" parent="1" source="wOFMuXPOr8qMDEMKTF-a-1" target="wOFMuXPOr8qMDEMKTF-a-4">
          <mxGeometry relative="1" as="geometry" />
        </mxCell>
        <mxCell id="wOFMuXPOr8qMDEMKTF-a-1" value="&lt;div style=&quot;font-size: 16px;&quot;&gt;ProductServicePortType&lt;br style=&quot;font-size: 16px;&quot;&gt;&lt;/div&gt;" style="rounded=0;whiteSpace=wrap;html=1;fontSize=16;align=left;" vertex="1" parent="1">
          <mxGeometry x="-480" y="1600" width="590" height="34" as="geometry" />
        </mxCell>
        <mxCell id="wOFMuXPOr8qMDEMKTF-a-2" value="Z_VETIS_PRODUCT" style="text;whiteSpace=wrap;" vertex="1" parent="1">
          <mxGeometry x="-640" y="1600" width="150" height="40" as="geometry" />
        </mxCell>
        <mxCell id="wOFMuXPOr8qMDEMKTF-a-3" value="&lt;div style=&quot;text-align: left;&quot;&gt;ZCO_ENTERPRISE_SERVICE_PORT_TY&lt;br&gt;&lt;/div&gt;" style="rounded=0;whiteSpace=wrap;html=1;fillColor=#dae8fc;strokeColor=#6c8ebf;" vertex="1" parent="1">
          <mxGeometry x="240" y="1550" width="290" height="34" as="geometry" />
        </mxCell>
        <mxCell id="wOFMuXPOr8qMDEMKTF-a-4" value="&lt;div style=&quot;text-align: left;&quot;&gt;ZCO_PRODUCT_SERVICE_PORT_TYPE&lt;br&gt;&lt;/div&gt;" style="rounded=0;whiteSpace=wrap;html=1;fillColor=#dae8fc;strokeColor=#6c8ebf;" vertex="1" parent="1">
          <mxGeometry x="240" y="1600" width="290" height="34" as="geometry" />
        </mxCell>
        <mxCell id="wOFMuXPOr8qMDEMKTF-a-18" style="edgeStyle=orthogonalEdgeStyle;rounded=0;orthogonalLoop=1;jettySize=auto;html=1;exitX=0.5;exitY=1;exitDx=0;exitDy=0;entryX=0.5;entryY=0;entryDx=0;entryDy=0;" edge="1" parent="1" source="wOFMuXPOr8qMDEMKTF-a-8" target="wOFMuXPOr8qMDEMKTF-a-15">
          <mxGeometry relative="1" as="geometry" />
        </mxCell>
        <mxCell id="wOFMuXPOr8qMDEMKTF-a-8" value="&lt;span style=&quot;text-align: left;&quot;&gt;FM&lt;/span&gt;&lt;div&gt;&lt;span style=&quot;text-align: left;&quot;&gt;ZVET_SEND_REQUEST&lt;/span&gt;&lt;/div&gt;" style="shape=process;whiteSpace=wrap;html=1;backgroundOutline=1;size=0.02857142857142857;fillColor=#d5e8d4;strokeColor=#82b366;" vertex="1" parent="1">
          <mxGeometry x="-508" y="1990" width="350" height="60" as="geometry" />
        </mxCell>
        <mxCell id="wOFMuXPOr8qMDEMKTF-a-9" value="&lt;span style=&quot;text-align: left;&quot;&gt;FM&lt;/span&gt;&lt;div style=&quot;text-align: left;&quot;&gt;ZVET_GET_RESPONSE&lt;br&gt;&lt;/div&gt;" style="shape=process;whiteSpace=wrap;html=1;backgroundOutline=1;size=0.02857142857142857;fillColor=#d5e8d4;strokeColor=#82b366;" vertex="1" parent="1">
          <mxGeometry x="540" y="1990" width="350" height="60" as="geometry" />
        </mxCell>
        <mxCell id="wOFMuXPOr8qMDEMKTF-a-16" style="edgeStyle=orthogonalEdgeStyle;rounded=0;orthogonalLoop=1;jettySize=auto;html=1;entryX=1;entryY=0.5;entryDx=0;entryDy=0;" edge="1" parent="1" source="wOFMuXPOr8qMDEMKTF-a-10" target="wOFMuXPOr8qMDEMKTF-a-15">
          <mxGeometry relative="1" as="geometry" />
        </mxCell>
        <mxCell id="wOFMuXPOr8qMDEMKTF-a-10" value="ZVET_OPERSETUP" style="shape=cylinder3;whiteSpace=wrap;html=1;boundedLbl=1;backgroundOutline=1;size=15;" vertex="1" parent="1">
          <mxGeometry x="-120" y="2080" width="150" height="60" as="geometry" />
        </mxCell>
        <mxCell id="wOFMuXPOr8qMDEMKTF-a-19" style="edgeStyle=orthogonalEdgeStyle;rounded=0;orthogonalLoop=1;jettySize=auto;html=1;entryX=0.5;entryY=0;entryDx=0;entryDy=0;" edge="1" parent="1" source="wOFMuXPOr8qMDEMKTF-a-15" target="wOFMuXPOr8qMDEMKTF-a-17">
          <mxGeometry relative="1" as="geometry" />
        </mxCell>
        <mxCell id="wOFMuXPOr8qMDEMKTF-a-15" value="Запрос имени класса по операции" style="rounded=0;whiteSpace=wrap;html=1;" vertex="1" parent="1">
          <mxGeometry x="-495" y="2090" width="325" height="40" as="geometry" />
        </mxCell>
        <mxCell id="wOFMuXPOr8qMDEMKTF-a-22" style="edgeStyle=orthogonalEdgeStyle;rounded=0;orthogonalLoop=1;jettySize=auto;html=1;entryX=0.5;entryY=0;entryDx=0;entryDy=0;" edge="1" parent="1" source="wOFMuXPOr8qMDEMKTF-a-17" target="wOFMuXPOr8qMDEMKTF-a-20">
          <mxGeometry relative="1" as="geometry" />
        </mxCell>
        <mxCell id="wOFMuXPOr8qMDEMKTF-a-17" value="&lt;span style=&quot;font-size: 10pt; background: rgb(255, 255, 255); text-align: start;&quot;&gt;lo_appl&lt;span class=&quot;L0S70&quot; style=&quot;font-size: 10pt; color: rgb(128, 128, 128); background-image: initial; background-position: initial; background-size: initial; background-repeat: initial; background-attachment: initial; background-origin: initial; background-clip: initial;&quot;&gt;-&amp;gt;&lt;/span&gt;constructor( )&lt;/span&gt;&lt;span style=&quot;font-size: medium; text-align: start;&quot;&gt;&lt;/span&gt;" style="rounded=0;whiteSpace=wrap;html=1;fontFamily=Helvetica;" vertex="1" parent="1">
          <mxGeometry x="-495.5" y="2180" width="325" height="30" as="geometry" />
        </mxCell>
        <mxCell id="wOFMuXPOr8qMDEMKTF-a-20" value="&lt;span style=&quot;font-size: 10pt; background: rgb(255, 255, 255); text-align: start;&quot;&gt;lo_appl&lt;span class=&quot;L0S70&quot; style=&quot;font-size: 10pt; color: rgb(128, 128, 128); background-image: initial; background-position: initial; background-size: initial; background-repeat: initial; background-attachment: initial; background-origin: initial; background-clip: initial;&quot;&gt;-&amp;gt;&lt;/span&gt;process_message_out&lt;span class=&quot;L0S55&quot; style=&quot;font-size: 10pt; color: rgb(128, 0, 128); background-image: initial; background-position: initial; background-size: initial; background-repeat: initial; background-attachment: initial; background-origin: initial; background-clip: initial;&quot;&gt;(&amp;nbsp;&lt;/span&gt;&lt;span class=&quot;L0S55&quot; style=&quot;font-size: 10pt; color: rgb(128, 0, 128); background-image: initial; background-position: initial; background-size: initial; background-repeat: initial; background-attachment: initial; background-origin: initial; background-clip: initial;&quot;&gt;)&lt;/span&gt;&lt;/span&gt;&lt;span style=&quot;font-size: medium; text-align: start;&quot;&gt;&lt;/span&gt;&lt;br&gt;&lt;span style=&quot;font-size: medium; text-align: start;&quot;&gt;&lt;/span&gt;" style="rounded=0;whiteSpace=wrap;html=1;fontFamily=Helvetica;" vertex="1" parent="1">
          <mxGeometry x="-495" y="2280" width="325" height="30" as="geometry" />
        </mxCell>
        <mxCell id="wOFMuXPOr8qMDEMKTF-a-25" style="edgeStyle=orthogonalEdgeStyle;rounded=0;orthogonalLoop=1;jettySize=auto;html=1;entryX=0.5;entryY=0;entryDx=0;entryDy=0;" edge="1" parent="1" source="wOFMuXPOr8qMDEMKTF-a-21" target="wOFMuXPOr8qMDEMKTF-a-24">
          <mxGeometry relative="1" as="geometry" />
        </mxCell>
        <mxCell id="wOFMuXPOr8qMDEMKTF-a-21" value="&lt;span style=&quot;font-size: 10pt; background: rgb(255, 255, 255); text-align: start;&quot;&gt;lo_appl&lt;span class=&quot;L0S70&quot; style=&quot;font-size: 10pt; color: rgb(128, 128, 128); background-image: initial; background-position: initial; background-size: initial; background-repeat: initial; background-attachment: initial; background-origin: initial; background-clip: initial;&quot;&gt;-&amp;gt;&lt;/span&gt;get_applid( )&lt;/span&gt;&lt;span style=&quot;font-size: medium; text-align: start;&quot;&gt;&lt;/span&gt;&lt;br&gt;&lt;span style=&quot;font-size: medium; text-align: start;&quot;&gt;&lt;/span&gt;" style="rounded=0;whiteSpace=wrap;html=1;fontFamily=Helvetica;" vertex="1" parent="1">
          <mxGeometry x="-495" y="2690" width="325" height="30" as="geometry" />
        </mxCell>
        <mxCell id="wOFMuXPOr8qMDEMKTF-a-23" style="edgeStyle=orthogonalEdgeStyle;rounded=0;orthogonalLoop=1;jettySize=auto;html=1;" edge="1" parent="1" source="wOFMuXPOr8qMDEMKTF-a-20" target="wOFMuXPOr8qMDEMKTF-a-21">
          <mxGeometry relative="1" as="geometry" />
        </mxCell>
        <mxCell id="wOFMuXPOr8qMDEMKTF-a-24" value="&lt;span style=&quot;font-size: 10pt; background: rgb(255, 255, 255); text-align: start;&quot;&gt;lo_appl&lt;span class=&quot;L0S70&quot; style=&quot;font-size: 10pt; color: rgb(128, 128, 128); background-image: initial; background-position: initial; background-size: initial; background-repeat: initial; background-attachment: initial; background-origin: initial; background-clip: initial;&quot;&gt;-&amp;gt;&lt;/span&gt;get_ext_applid ()&lt;/span&gt;&lt;span style=&quot;font-size: medium; text-align: start;&quot;&gt;&lt;/span&gt;&lt;br&gt;&lt;span style=&quot;font-size: medium; text-align: start;&quot;&gt;&lt;/span&gt;" style="rounded=0;whiteSpace=wrap;html=1;fontFamily=Helvetica;" vertex="1" parent="1">
          <mxGeometry x="-495" y="2750" width="325" height="30" as="geometry" />
        </mxCell>
        <mxCell id="wOFMuXPOr8qMDEMKTF-a-30" style="edgeStyle=orthogonalEdgeStyle;rounded=0;orthogonalLoop=1;jettySize=auto;html=1;entryX=1;entryY=0.5;entryDx=0;entryDy=0;" edge="1" parent="1" source="wOFMuXPOr8qMDEMKTF-a-27" target="wOFMuXPOr8qMDEMKTF-a-29">
          <mxGeometry relative="1" as="geometry" />
        </mxCell>
        <mxCell id="wOFMuXPOr8qMDEMKTF-a-27" value="ZVET_APPL" style="shape=cylinder3;whiteSpace=wrap;html=1;boundedLbl=1;backgroundOutline=1;size=15;" vertex="1" parent="1">
          <mxGeometry x="978" y="2070" width="150" height="60" as="geometry" />
        </mxCell>
        <mxCell id="wOFMuXPOr8qMDEMKTF-a-32" style="edgeStyle=orthogonalEdgeStyle;rounded=0;orthogonalLoop=1;jettySize=auto;html=1;entryX=1;entryY=0.5;entryDx=0;entryDy=0;" edge="1" parent="1" source="wOFMuXPOr8qMDEMKTF-a-28" target="wOFMuXPOr8qMDEMKTF-a-31">
          <mxGeometry relative="1" as="geometry" />
        </mxCell>
        <mxCell id="wOFMuXPOr8qMDEMKTF-a-28" value="ZVET_OPERSETUP" style="shape=cylinder3;whiteSpace=wrap;html=1;boundedLbl=1;backgroundOutline=1;size=15;" vertex="1" parent="1">
          <mxGeometry x="978" y="2140" width="150" height="60" as="geometry" />
        </mxCell>
        <mxCell id="wOFMuXPOr8qMDEMKTF-a-35" style="edgeStyle=orthogonalEdgeStyle;rounded=0;orthogonalLoop=1;jettySize=auto;html=1;entryX=0.5;entryY=0;entryDx=0;entryDy=0;" edge="1" parent="1" source="wOFMuXPOr8qMDEMKTF-a-29" target="wOFMuXPOr8qMDEMKTF-a-31">
          <mxGeometry relative="1" as="geometry" />
        </mxCell>
        <mxCell id="wOFMuXPOr8qMDEMKTF-a-29" value="получить&amp;nbsp;&lt;span style=&quot;font-size: 10pt; background: rgb(255, 255, 255); text-align: start;&quot;&gt;&lt;span style=&quot;font-size: 12px; text-align: center; background-color: rgb(251, 251, 251);&quot;&gt;ZVET_APPL-&lt;/span&gt;appltype&lt;/span&gt;&lt;span style=&quot;font-size: medium; text-align: start;&quot;&gt;&lt;/span&gt;" style="rounded=0;whiteSpace=wrap;html=1;fontFamily=Helvetica;" vertex="1" parent="1">
          <mxGeometry x="548" y="2080" width="325" height="40" as="geometry" />
        </mxCell>
        <mxCell id="wOFMuXPOr8qMDEMKTF-a-36" style="edgeStyle=orthogonalEdgeStyle;rounded=0;orthogonalLoop=1;jettySize=auto;html=1;entryX=0.5;entryY=0;entryDx=0;entryDy=0;" edge="1" parent="1" source="wOFMuXPOr8qMDEMKTF-a-31" target="wOFMuXPOr8qMDEMKTF-a-33">
          <mxGeometry relative="1" as="geometry" />
        </mxCell>
        <mxCell id="wOFMuXPOr8qMDEMKTF-a-31" value="получить&amp;nbsp;&lt;span style=&quot;font-size: 10pt; background: rgb(255, 255, 255); text-align: start;&quot;&gt;&lt;span style=&quot;font-size: 10pt; background-image: initial; background-position: initial; background-size: initial; background-repeat: initial; background-attachment: initial; background-origin: initial; background-clip: initial;&quot;&gt;&lt;span style=&quot;font-size: 12px; text-align: center; background-color: rgb(251, 251, 251);&quot;&gt;ZVET_OPERSETUP-&lt;/span&gt;classname по&amp;nbsp;&lt;/span&gt;&lt;span style=&quot;font-size: medium;&quot;&gt;&lt;/span&gt;&lt;span style=&quot;font-size: 12px; text-align: center; background-color: rgb(251, 251, 251);&quot;&gt;ZVET_APPL-&lt;/span&gt;appltype&lt;/span&gt;&lt;span style=&quot;font-size: medium; text-align: start;&quot;&gt;&lt;/span&gt;" style="rounded=0;whiteSpace=wrap;html=1;fontFamily=Helvetica;" vertex="1" parent="1">
          <mxGeometry x="548" y="2150" width="325" height="40" as="geometry" />
        </mxCell>
        <mxCell id="wOFMuXPOr8qMDEMKTF-a-33" value="&lt;span style=&quot;font-size: 10pt; background: rgb(255, 255, 255); text-align: start;&quot;&gt;lo_appl&lt;span class=&quot;L0S70&quot; style=&quot;font-size: 10pt; color: rgb(128, 128, 128); background-image: initial; background-position: initial; background-size: initial; background-repeat: initial; background-attachment: initial; background-origin: initial; background-clip: initial;&quot;&gt;-&amp;gt;&lt;/span&gt;process_message_in&lt;span class=&quot;L0S55&quot; style=&quot;font-size: 10pt; color: rgb(128, 0, 128); background-image: initial; background-position: initial; background-size: initial; background-repeat: initial; background-attachment: initial; background-origin: initial; background-clip: initial;&quot;&gt;(&amp;nbsp;&lt;/span&gt;&lt;span class=&quot;L0S55&quot; style=&quot;font-size: 10pt; color: rgb(128, 0, 128); background-image: initial; background-position: initial; background-size: initial; background-repeat: initial; background-attachment: initial; background-origin: initial; background-clip: initial;&quot;&gt;)&lt;/span&gt;&lt;/span&gt;&lt;span style=&quot;font-size: medium; text-align: start;&quot;&gt;&lt;/span&gt;&lt;br&gt;&lt;span style=&quot;font-size: medium; text-align: start;&quot;&gt;&lt;/span&gt;" style="rounded=0;whiteSpace=wrap;html=1;fontFamily=Helvetica;" vertex="1" parent="1">
          <mxGeometry x="548" y="2220" width="325" height="40" as="geometry" />
        </mxCell>
        <mxCell id="wOFMuXPOr8qMDEMKTF-a-34" style="edgeStyle=orthogonalEdgeStyle;rounded=0;orthogonalLoop=1;jettySize=auto;html=1;entryX=0.514;entryY=0.048;entryDx=0;entryDy=0;entryPerimeter=0;" edge="1" parent="1" source="wOFMuXPOr8qMDEMKTF-a-9" target="wOFMuXPOr8qMDEMKTF-a-29">
          <mxGeometry relative="1" as="geometry" />
        </mxCell>
        <mxCell id="wOFMuXPOr8qMDEMKTF-a-61" value="ZCL_VET_INCOMINGOPERATION_PACK&lt;div&gt;ВЕТИС. Оформление входяшей партии (пакетное)&lt;br&gt;&lt;/div&gt;" style="rounded=0;whiteSpace=wrap;html=1;align=left;" vertex="1" parent="1">
          <mxGeometry x="163" y="660" width="250" height="60" as="geometry" />
        </mxCell>
        <mxCell id="wOFMuXPOr8qMDEMKTF-a-64" value="" style="endArrow=block;endSize=16;endFill=0;html=1;rounded=0;entryX=0.5;entryY=1;entryDx=0;entryDy=0;exitX=0;exitY=0.5;exitDx=0;exitDy=0;edgeStyle=orthogonalEdgeStyle;" edge="1" parent="1" source="24aQEjLsRdGv2GufV8f5-4" target="B8nlWepwXldUqVJ7dMo1-5">
          <mxGeometry width="160" relative="1" as="geometry">
            <mxPoint x="-290" y="469.57" as="sourcePoint" />
            <mxPoint x="-130" y="469.57" as="targetPoint" />
          </mxGeometry>
        </mxCell>
        <mxCell id="wOFMuXPOr8qMDEMKTF-a-65" value="" style="endArrow=block;endSize=16;endFill=0;html=1;rounded=0;exitX=0;exitY=0.5;exitDx=0;exitDy=0;edgeStyle=orthogonalEdgeStyle;" edge="1" parent="1" source="24aQEjLsRdGv2GufV8f5-6" target="B8nlWepwXldUqVJ7dMo1-5">
          <mxGeometry width="160" relative="1" as="geometry">
            <mxPoint x="-40" y="420" as="sourcePoint" />
            <mxPoint x="-155" y="380" as="targetPoint" />
          </mxGeometry>
        </mxCell>
        <mxCell id="wOFMuXPOr8qMDEMKTF-a-66" value="" style="endArrow=block;endSize=16;endFill=0;html=1;rounded=0;exitX=0;exitY=0.5;exitDx=0;exitDy=0;edgeStyle=orthogonalEdgeStyle;" edge="1" parent="1" source="24aQEjLsRdGv2GufV8f5-7" target="B8nlWepwXldUqVJ7dMo1-5">
          <mxGeometry width="160" relative="1" as="geometry">
            <mxPoint x="-65" y="580" as="sourcePoint" />
            <mxPoint x="-180" y="490" as="targetPoint" />
          </mxGeometry>
        </mxCell>
        <mxCell id="wOFMuXPOr8qMDEMKTF-a-67" value="" style="endArrow=block;endSize=16;endFill=0;html=1;rounded=0;exitX=0;exitY=0.5;exitDx=0;exitDy=0;edgeStyle=orthogonalEdgeStyle;" edge="1" parent="1" source="24aQEjLsRdGv2GufV8f5-9" target="B8nlWepwXldUqVJ7dMo1-5">
          <mxGeometry width="160" relative="1" as="geometry">
            <mxPoint x="-30" y="535" as="sourcePoint" />
            <mxPoint x="-145" y="390" as="targetPoint" />
          </mxGeometry>
        </mxCell>
        <mxCell id="wOFMuXPOr8qMDEMKTF-a-68" value="" style="endArrow=block;endSize=16;endFill=0;html=1;rounded=0;edgeStyle=orthogonalEdgeStyle;exitX=0;exitY=0.5;exitDx=0;exitDy=0;" edge="1" parent="1" source="24aQEjLsRdGv2GufV8f5-10" target="B8nlWepwXldUqVJ7dMo1-5">
          <mxGeometry width="160" relative="1" as="geometry">
            <mxPoint x="-30" y="590" as="sourcePoint" />
            <mxPoint x="-145" y="390" as="targetPoint" />
          </mxGeometry>
        </mxCell>
        <mxCell id="wOFMuXPOr8qMDEMKTF-a-69" value="" style="endArrow=block;endSize=16;endFill=0;html=1;rounded=0;exitX=0;exitY=0.5;exitDx=0;exitDy=0;edgeStyle=orthogonalEdgeStyle;entryX=0.5;entryY=1;entryDx=0;entryDy=0;" edge="1" parent="1" source="wOFMuXPOr8qMDEMKTF-a-61" target="24aQEjLsRdGv2GufV8f5-10">
          <mxGeometry width="160" relative="1" as="geometry">
            <mxPoint x="-20" y="600" as="sourcePoint" />
            <mxPoint x="-135" y="400" as="targetPoint" />
          </mxGeometry>
        </mxCell>
        <mxCell id="wOFMuXPOr8qMDEMKTF-a-70" value="" style="endArrow=block;endSize=16;endFill=0;html=1;rounded=0;edgeStyle=orthogonalEdgeStyle;exitX=0;exitY=0.5;exitDx=0;exitDy=0;entryX=0.5;entryY=1;entryDx=0;entryDy=0;" edge="1" parent="1" source="24aQEjLsRdGv2GufV8f5-11" target="B8nlWepwXldUqVJ7dMo1-5">
          <mxGeometry width="160" relative="1" as="geometry">
            <mxPoint x="-30" y="640" as="sourcePoint" />
            <mxPoint x="-145" y="390" as="targetPoint" />
          </mxGeometry>
        </mxCell>
        <mxCell id="wOFMuXPOr8qMDEMKTF-a-71" value="" style="endArrow=block;endSize=16;endFill=0;html=1;rounded=0;edgeStyle=orthogonalEdgeStyle;exitX=0;exitY=0.5;exitDx=0;exitDy=0;entryX=0.5;entryY=1;entryDx=0;entryDy=0;" edge="1" parent="1" source="24aQEjLsRdGv2GufV8f5-12" target="B8nlWepwXldUqVJ7dMo1-5">
          <mxGeometry width="160" relative="1" as="geometry">
            <mxPoint x="-20" y="650" as="sourcePoint" />
            <mxPoint x="-135" y="400" as="targetPoint" />
          </mxGeometry>
        </mxCell>
        <mxCell id="wOFMuXPOr8qMDEMKTF-a-72" value="" style="endArrow=block;endSize=16;endFill=0;html=1;rounded=0;edgeStyle=orthogonalEdgeStyle;exitX=0;exitY=0.5;exitDx=0;exitDy=0;" edge="1" parent="1" source="24aQEjLsRdGv2GufV8f5-13" target="B8nlWepwXldUqVJ7dMo1-5">
          <mxGeometry width="160" relative="1" as="geometry">
            <mxPoint x="-10" y="660" as="sourcePoint" />
            <mxPoint x="-125" y="410" as="targetPoint" />
          </mxGeometry>
        </mxCell>
        <mxCell id="wOFMuXPOr8qMDEMKTF-a-73" value="" style="endArrow=block;endSize=16;endFill=0;html=1;rounded=0;exitX=0;exitY=0.5;exitDx=0;exitDy=0;edgeStyle=orthogonalEdgeStyle;" edge="1" parent="1" source="24aQEjLsRdGv2GufV8f5-18" target="B8nlWepwXldUqVJ7dMo1-5">
          <mxGeometry width="160" relative="1" as="geometry">
            <mxPoint x="-107.5" y="1246.5" as="sourcePoint" />
            <mxPoint x="-262.5" y="1206.5" as="targetPoint" />
          </mxGeometry>
        </mxCell>
        <mxCell id="wOFMuXPOr8qMDEMKTF-a-74" value="" style="endArrow=block;endSize=16;endFill=0;html=1;rounded=0;exitX=0;exitY=0.5;exitDx=0;exitDy=0;edgeStyle=orthogonalEdgeStyle;" edge="1" parent="1" source="24aQEjLsRdGv2GufV8f5-17" target="B8nlWepwXldUqVJ7dMo1-5">
          <mxGeometry width="160" relative="1" as="geometry">
            <mxPoint x="-185" y="1186.5" as="sourcePoint" />
            <mxPoint x="-340" y="1146.5" as="targetPoint" />
          </mxGeometry>
        </mxCell>
        <mxCell id="wOFMuXPOr8qMDEMKTF-a-75" value="" style="endArrow=block;endSize=16;endFill=0;html=1;rounded=0;exitX=0;exitY=0.5;exitDx=0;exitDy=0;edgeStyle=orthogonalEdgeStyle;" edge="1" parent="1" source="24aQEjLsRdGv2GufV8f5-16" target="B8nlWepwXldUqVJ7dMo1-5">
          <mxGeometry width="160" relative="1" as="geometry">
            <mxPoint x="-415" y="720" as="sourcePoint" />
            <mxPoint x="-570" y="680" as="targetPoint" />
          </mxGeometry>
        </mxCell>
        <mxCell id="wOFMuXPOr8qMDEMKTF-a-76" value="" style="endArrow=block;endSize=16;endFill=0;html=1;rounded=0;exitX=0;exitY=0.5;exitDx=0;exitDy=0;edgeStyle=orthogonalEdgeStyle;" edge="1" parent="1" source="24aQEjLsRdGv2GufV8f5-15" target="B8nlWepwXldUqVJ7dMo1-5">
          <mxGeometry width="160" relative="1" as="geometry">
            <mxPoint x="-405" y="730" as="sourcePoint" />
            <mxPoint x="-560" y="690" as="targetPoint" />
          </mxGeometry>
        </mxCell>
        <mxCell id="wOFMuXPOr8qMDEMKTF-a-77" value="" style="endArrow=block;endSize=16;endFill=0;html=1;rounded=0;exitX=0;exitY=0.5;exitDx=0;exitDy=0;edgeStyle=orthogonalEdgeStyle;entryX=0.5;entryY=1;entryDx=0;entryDy=0;" edge="1" parent="1" source="24aQEjLsRdGv2GufV8f5-14" target="B8nlWepwXldUqVJ7dMo1-5">
          <mxGeometry width="160" relative="1" as="geometry">
            <mxPoint x="-395" y="740" as="sourcePoint" />
            <mxPoint x="-550" y="700" as="targetPoint" />
          </mxGeometry>
        </mxCell>
        <mxCell id="wOFMuXPOr8qMDEMKTF-a-80" value="&lt;span style=&quot;font-size: 10pt; background: rgb(255, 255, 255);&quot;&gt;load_vet_settings&lt;/span&gt;&lt;div&gt;&lt;span style=&quot;font-size: medium;&quot;&gt;&lt;/span&gt;&lt;div&gt;&lt;span style=&quot;font-size: 10pt; background: rgb(255, 255, 255);&quot;&gt;Заполнение&amp;nbsp;&lt;/span&gt;&lt;span style=&quot;background-color: rgb(255, 255, 255); font-size: 10pt;&quot;&gt;ms_params&lt;/span&gt;&lt;/div&gt;&lt;span style=&quot;font-size: medium;&quot;&gt;&lt;/span&gt;&lt;/div&gt;" style="rounded=0;whiteSpace=wrap;html=1;fontFamily=Helvetica;align=left;verticalAlign=top;" vertex="1" parent="1">
          <mxGeometry x="-260" y="2215" width="220" height="50" as="geometry" />
        </mxCell>
        <mxCell id="wOFMuXPOr8qMDEMKTF-a-82" value="&lt;span style=&quot;font-size: 10px;&quot;&gt;LOAD_FROM_DB&lt;/span&gt;&lt;br style=&quot;font-size: 10px;&quot;&gt;&lt;div style=&quot;font-size: 10px;&quot;&gt;&lt;span style=&quot;font-size: 10px;&quot;&gt;&lt;/span&gt;&lt;/div&gt;&lt;div style=&quot;font-size: 10px;&quot;&gt;&lt;span style=&quot;font-size: 10px;&quot;&gt;появляется&amp;nbsp;&lt;/span&gt;&lt;span style=&quot;background-color: rgb(255, 255, 255); font-size: 10px;&quot;&gt;&lt;b&gt;applid &lt;/b&gt;для исходящих&lt;/span&gt;&lt;/div&gt;&lt;span style=&quot;font-size: 10px;&quot;&gt;&lt;/span&gt;" style="rounded=0;whiteSpace=wrap;html=1;fontFamily=Helvetica;align=left;verticalAlign=top;fontSize=10;" vertex="1" parent="1">
          <mxGeometry x="-260" y="2330" width="220" height="40" as="geometry" />
        </mxCell>
        <mxCell id="wOFMuXPOr8qMDEMKTF-a-84" style="edgeStyle=orthogonalEdgeStyle;rounded=0;orthogonalLoop=1;jettySize=auto;html=1;entryX=1;entryY=0.5;entryDx=0;entryDy=0;" edge="1" parent="1" source="wOFMuXPOr8qMDEMKTF-a-83" target="wOFMuXPOr8qMDEMKTF-a-82">
          <mxGeometry relative="1" as="geometry" />
        </mxCell>
        <mxCell id="wOFMuXPOr8qMDEMKTF-a-83" value="ZVET_APPL" style="shape=cylinder3;whiteSpace=wrap;html=1;boundedLbl=1;backgroundOutline=1;size=15;" vertex="1" parent="1">
          <mxGeometry x="20" y="2320" width="150" height="60" as="geometry" />
        </mxCell>
        <mxCell id="wOFMuXPOr8qMDEMKTF-a-85" value="&lt;span style=&quot;font-size: 10px;&quot;&gt;LOAD_DOCUMENT&lt;/span&gt;&lt;br style=&quot;font-size: 10px;&quot;&gt;&lt;div style=&quot;font-size: 10px;&quot;&gt;&lt;span style=&quot;font-size: 10px;&quot;&gt;&lt;/span&gt;&lt;/div&gt;&lt;div style=&quot;font-size: 10px;&quot;&gt;&lt;span style=&quot;font-size: 10px;&quot;&gt;Переопределяется для подклассов&lt;/span&gt;&lt;/div&gt;&lt;span style=&quot;font-size: 10px;&quot;&gt;&lt;/span&gt;" style="rounded=0;whiteSpace=wrap;html=1;fontFamily=Helvetica;align=left;verticalAlign=top;fontSize=10;" vertex="1" parent="1">
          <mxGeometry x="-170.5" y="2400" width="220" height="40" as="geometry" />
        </mxCell>
        <mxCell id="wOFMuXPOr8qMDEMKTF-a-87" style="edgeStyle=orthogonalEdgeStyle;rounded=0;orthogonalLoop=1;jettySize=auto;html=1;entryX=1;entryY=0.5;entryDx=0;entryDy=0;fontSize=11;" edge="1" parent="1" source="wOFMuXPOr8qMDEMKTF-a-86" target="wOFMuXPOr8qMDEMKTF-a-85">
          <mxGeometry relative="1" as="geometry" />
        </mxCell>
        <mxCell id="wOFMuXPOr8qMDEMKTF-a-86" value="Разные" style="shape=cylinder3;whiteSpace=wrap;html=1;boundedLbl=1;backgroundOutline=1;size=15;fontSize=11;" vertex="1" parent="1">
          <mxGeometry x="109.5" y="2390" width="150" height="60" as="geometry" />
        </mxCell>
        <mxCell id="wOFMuXPOr8qMDEMKTF-a-88" value="&lt;div style=&quot;&quot;&gt;DATA_PREPARATION Переопределяется&lt;/div&gt;&lt;span style=&quot;font-size: 10px;&quot;&gt;&lt;/span&gt;" style="rounded=0;whiteSpace=wrap;html=1;fontFamily=Helvetica;align=left;verticalAlign=top;fontSize=10;" vertex="1" parent="1">
          <mxGeometry x="-265" y="2450" width="285" height="20" as="geometry" />
        </mxCell>
        <mxCell id="wOFMuXPOr8qMDEMKTF-a-89" value="&lt;div style=&quot;&quot;&gt;ADDITIONAL_PREPARATION Переопределяется&lt;/div&gt;&lt;span style=&quot;font-size: 10px;&quot;&gt;&lt;/span&gt;" style="rounded=0;whiteSpace=wrap;html=1;fontFamily=Helvetica;align=left;verticalAlign=top;fontSize=10;" vertex="1" parent="1">
          <mxGeometry x="-265" y="2473" width="285" height="20" as="geometry" />
        </mxCell>
        <mxCell id="wOFMuXPOr8qMDEMKTF-a-90" value="&lt;div style=&quot;&quot;&gt;SERIALIZATION_MESSAGE&lt;/div&gt;&lt;div style=&quot;&quot;&gt;&lt;span style=&quot;background-color: initial;&quot;&gt;&lt;span style=&quot;white-space: pre;&quot;&gt;&#x9;&lt;/span&gt;CALL TRANSFORMATION zvet_message_out_v2&lt;/span&gt;&lt;br&gt;&lt;/div&gt;&lt;span style=&quot;font-size: 10px;&quot;&gt;&lt;/span&gt;" style="rounded=0;whiteSpace=wrap;html=1;fontFamily=Helvetica;align=left;verticalAlign=top;fontSize=10;" vertex="1" parent="1">
          <mxGeometry x="-265" y="2500" width="285" height="40" as="geometry" />
        </mxCell>
        <mxCell id="wOFMuXPOr8qMDEMKTF-a-91" value="&lt;div style=&quot;font-size: 11px;&quot;&gt;&lt;span style=&quot;background-color: initial; font-size: 11px;&quot;&gt;SEND_MESSAGE&lt;/span&gt;&lt;/div&gt;&lt;div style=&quot;font-size: 11px;&quot;&gt;&lt;span style=&quot;background-color: initial; font-size: 11px;&quot;&gt;&lt;br&gt;&lt;/span&gt;&lt;/div&gt;&lt;div style=&quot;font-size: 11px;&quot;&gt;&lt;span style=&quot;font-size: 11px;&quot;&gt;&lt;span style=&quot;white-space: pre;&quot;&gt;&#x9;&lt;/span&gt;ZCO_APPLICATION_MANAGEMENT_SER-&amp;gt;&lt;/span&gt;&lt;span style=&quot;background-color: rgb(255, 255, 255);&quot;&gt;submit_application_request&lt;/span&gt;&lt;/div&gt;&lt;div style=&quot;font-size: 11px;&quot;&gt;&lt;span style=&quot;font-size: 11px; background-color: rgb(255, 255, 255);&quot;&gt;появляется&amp;nbsp;&lt;/span&gt;&lt;span style=&quot;background-color: rgb(255, 255, 255); font-size: 11px;&quot;&gt;&lt;b style=&quot;font-size: 11px;&quot;&gt;ext_applid&lt;/b&gt;&lt;/span&gt;&lt;/div&gt;&lt;span style=&quot;font-size: 11px;&quot;&gt;&lt;/span&gt;&lt;span style=&quot;font-size: 11px;&quot;&gt;&lt;/span&gt;" style="rounded=0;whiteSpace=wrap;html=1;fontFamily=Helvetica;align=left;verticalAlign=top;fontSize=11;" vertex="1" parent="1">
          <mxGeometry x="-265" y="2540" width="485" height="60" as="geometry" />
        </mxCell>
        <mxCell id="wOFMuXPOr8qMDEMKTF-a-92" value="&lt;div style=&quot;&quot;&gt;SAVE_TO_DB&lt;br&gt;&lt;/div&gt;&lt;div style=&quot;font-size: 11px;&quot;&gt;&lt;span style=&quot;background-color: initial; font-size: 11px;&quot;&gt;&lt;br&gt;&lt;/span&gt;&lt;/div&gt;&lt;div style=&quot;font-size: 11px;&quot;&gt;&lt;span style=&quot;font-size: 11px;&quot;&gt;&lt;span style=&quot;white-space: pre;&quot;&gt;&#x9;&lt;/span&gt;&lt;br&gt;&lt;/span&gt;&lt;/div&gt;&lt;span style=&quot;font-size: 11px;&quot;&gt;&lt;/span&gt;&lt;span style=&quot;font-size: 11px;&quot;&gt;&lt;/span&gt;" style="rounded=0;whiteSpace=wrap;html=1;fontFamily=Helvetica;align=left;verticalAlign=top;fontSize=11;" vertex="1" parent="1">
          <mxGeometry x="-265" y="2630" width="285" height="40" as="geometry" />
        </mxCell>
        <mxCell id="wOFMuXPOr8qMDEMKTF-a-93" value="ZCL_VET_SAVER&lt;br&gt;&lt;div&gt;ВЕТИС. Сохранение&lt;br&gt;&lt;/div&gt;" style="rounded=0;whiteSpace=wrap;html=1;align=left;fillColor=#dae8fc;strokeColor=#6c8ebf;" vertex="1" parent="1">
          <mxGeometry x="30" y="2630" width="250" height="40" as="geometry" />
        </mxCell>
        <mxCell id="wOFMuXPOr8qMDEMKTF-a-95" value="&lt;div style=&quot;font-size: 11px;&quot;&gt;&lt;span style=&quot;font-size: 13.3333px; background-color: rgb(255, 255, 255);&quot;&gt;receive_message&lt;/span&gt;&lt;span style=&quot;font-size: 10pt; color: rgb(128, 0, 128); background-image: initial; background-position: initial; background-size: initial; background-repeat: initial; background-attachment: initial; background-origin: initial; background-clip: initial;&quot; class=&quot;L0S55&quot;&gt;(&amp;nbsp;&lt;/span&gt;&lt;span style=&quot;font-size: 10pt; color: rgb(128, 0, 128); background-image: initial; background-position: initial; background-size: initial; background-repeat: initial; background-attachment: initial; background-origin: initial; background-clip: initial;&quot; class=&quot;L0S55&quot;&gt;)&lt;/span&gt;&lt;br&gt;&lt;/div&gt;&lt;div style=&quot;font-size: 11px;&quot;&gt;&lt;span style=&quot;background-color: initial; font-size: 11px;&quot;&gt;&lt;br&gt;&lt;/span&gt;&lt;/div&gt;&lt;div style=&quot;font-size: 11px;&quot;&gt;&lt;span style=&quot;font-size: 11px;&quot;&gt;&lt;span style=&quot;white-space: pre;&quot;&gt;&#x9;&lt;/span&gt;ZCO_APPLICATION_MANAGEMENT_SER-&amp;gt;&lt;/span&gt;&lt;span style=&quot;background-color: rgb(255, 255, 255); font-size: 10pt;&quot;&gt;receive_application_result&lt;/span&gt;&lt;/div&gt;&lt;div style=&quot;font-size: 11px;&quot;&gt;&lt;br&gt;&lt;/div&gt;&lt;span style=&quot;font-size: 11px;&quot;&gt;&lt;/span&gt;&lt;span style=&quot;font-size: 11px;&quot;&gt;&lt;/span&gt;" style="rounded=0;whiteSpace=wrap;html=1;fontFamily=Helvetica;align=left;verticalAlign=top;fontSize=11;" vertex="1" parent="1">
          <mxGeometry x="730" y="2270" width="420" height="60" as="geometry" />
        </mxCell>
        <mxCell id="wOFMuXPOr8qMDEMKTF-a-98" value="&lt;span style=&quot;text-align: left;&quot;&gt;ZCO_IKAR_SERVICE_PORT_TYPE&lt;/span&gt;" style="rounded=0;whiteSpace=wrap;html=1;fillColor=#dae8fc;strokeColor=#6c8ebf;" vertex="1" parent="1">
          <mxGeometry x="-520" y="2960" width="290" height="34" as="geometry" />
        </mxCell>
        <mxCell id="wOFMuXPOr8qMDEMKTF-a-99" value="&lt;div style=&quot;text-align: left;&quot;&gt;&lt;span style=&quot;background-color: initial;&quot;&gt;ZCL_VET_ERP_039&lt;/span&gt;&lt;/div&gt;" style="rounded=0;whiteSpace=wrap;html=1;fillColor=#dae8fc;strokeColor=#6c8ebf;" vertex="1" parent="1">
          <mxGeometry x="-720" y="3073" width="290" height="34" as="geometry" />
        </mxCell>
        <mxCell id="wOFMuXPOr8qMDEMKTF-a-100" value="Use" style="endArrow=open;endSize=12;dashed=1;html=1;rounded=0;" edge="1" parent="1" source="wOFMuXPOr8qMDEMKTF-a-99" target="wOFMuXPOr8qMDEMKTF-a-98">
          <mxGeometry width="160" relative="1" as="geometry">
            <mxPoint x="-290" y="3070" as="sourcePoint" />
            <mxPoint x="-170" y="3076.85" as="targetPoint" />
          </mxGeometry>
        </mxCell>
        <mxCell id="W41qRRoJGIIhXBY_PSEU-1" value="Report &lt;b&gt;ZVET_MASTERDATA&lt;/b&gt;&lt;div&gt;tcode ZVETISDATA&lt;br&gt;&lt;/div&gt;&lt;div&gt;ВЕТИС. Запросы справочников&lt;br&gt;&lt;/div&gt;" style="shape=process;whiteSpace=wrap;html=1;backgroundOutline=1;size=0.03333333333333333;" vertex="1" parent="1">
          <mxGeometry x="-360" y="3060" width="300" height="60" as="geometry" />
        </mxCell>
        <mxCell id="W41qRRoJGIIhXBY_PSEU-2" value="Use" style="endArrow=open;endSize=12;dashed=1;html=1;rounded=0;" edge="1" parent="1" source="W41qRRoJGIIhXBY_PSEU-1" target="wOFMuXPOr8qMDEMKTF-a-98">
          <mxGeometry x="-0.2821" y="-1" width="160" relative="1" as="geometry">
            <mxPoint x="-300" y="3087" as="sourcePoint" />
            <mxPoint x="-180" y="3130" as="targetPoint" />
            <mxPoint as="offset" />
          </mxGeometry>
        </mxCell>
        <mxCell id="W41qRRoJGIIhXBY_PSEU-3" value="&lt;div style=&quot;text-align: left;&quot;&gt;ZCO_DICTIONARY_SERVICE_PORT_TY&lt;br&gt;&lt;/div&gt;" style="rounded=0;whiteSpace=wrap;html=1;fillColor=#dae8fc;strokeColor=#6c8ebf;" vertex="1" parent="1">
          <mxGeometry x="259.5" y="2960" width="290" height="34" as="geometry" />
        </mxCell>
        <mxCell id="W41qRRoJGIIhXBY_PSEU-4" value="&lt;div style=&quot;text-align: left;&quot;&gt;ZCL_DICTIONARY_HELPER&lt;br&gt;&lt;/div&gt;" style="rounded=0;whiteSpace=wrap;html=1;fillColor=#dae8fc;strokeColor=#6c8ebf;" vertex="1" parent="1">
          <mxGeometry x="80" y="3070" width="290" height="34" as="geometry" />
        </mxCell>
        <mxCell id="W41qRRoJGIIhXBY_PSEU-5" value="Use" style="endArrow=open;endSize=12;dashed=1;html=1;rounded=0;" edge="1" parent="1" source="W41qRRoJGIIhXBY_PSEU-4" target="W41qRRoJGIIhXBY_PSEU-3">
          <mxGeometry width="160" relative="1" as="geometry">
            <mxPoint x="20" y="3289" as="sourcePoint" />
            <mxPoint x="160" y="3210" as="targetPoint" />
          </mxGeometry>
        </mxCell>
        <mxCell id="W41qRRoJGIIhXBY_PSEU-6" value="Report &lt;b&gt;ZVET_MASTERDATA&lt;/b&gt;&lt;div&gt;tcode ZVETISDATA&lt;br&gt;&lt;/div&gt;&lt;div&gt;ВЕТИС. Запросы справочников&lt;br&gt;&lt;/div&gt;" style="shape=process;whiteSpace=wrap;html=1;backgroundOutline=1;size=0.03333333333333333;" vertex="1" parent="1">
          <mxGeometry x="254.5" y="3210" width="300" height="60" as="geometry" />
        </mxCell>
        <mxCell id="W41qRRoJGIIhXBY_PSEU-7" value="Use" style="endArrow=open;endSize=12;dashed=1;html=1;rounded=0;" edge="1" parent="1" source="W41qRRoJGIIhXBY_PSEU-6" target="W41qRRoJGIIhXBY_PSEU-4">
          <mxGeometry width="160" relative="1" as="geometry">
            <mxPoint x="232" y="3070" as="sourcePoint" />
            <mxPoint x="280" y="3190" as="targetPoint" />
          </mxGeometry>
        </mxCell>
        <mxCell id="W41qRRoJGIIhXBY_PSEU-9" value="Use" style="endArrow=open;endSize=12;dashed=1;html=1;rounded=0;" edge="1" parent="1" source="W41qRRoJGIIhXBY_PSEU-6" target="W41qRRoJGIIhXBY_PSEU-3">
          <mxGeometry width="160" relative="1" as="geometry">
            <mxPoint x="232" y="3070" as="sourcePoint" />
            <mxPoint x="377" y="3004" as="targetPoint" />
          </mxGeometry>
        </mxCell>
        <mxCell id="GciwDZbk6Rl86_-18jYc-1" value="ZVET_OPERSETUP" style="shape=cylinder3;whiteSpace=wrap;html=1;boundedLbl=1;backgroundOutline=1;size=25.545454545454277;align=center;verticalAlign=top;" vertex="1" parent="1">
          <mxGeometry x="580" y="490" width="487" height="515" as="geometry" />
        </mxCell>
        <mxCell id="wOFMuXPOr8qMDEMKTF-a-37" value="01    ZCL_VET_PRODUCTIONOPERATION&#xa;02    ZCL_VET_TRANSPORTOPERATION&#xa;03    ZCL_VET_INCOMINGOPERATION&#xa;04    ZCL_VET_DISCREPANCYOPERATION&#xa;05    ZCL_VET_MERGEOPERATION&#xa;06    ZCL_VET_GETVETDOCUMENT&#xa;07    ZCL_VET_GETVETDOCUMENT&#xa;08    ZCL_VET_GETVETDOCUMENT&#xa;09    ZCL_VET_GETSTOCKENTRY&#xa;10    ZCL_VET_GETSTOCKENTRY&#xa;11    ZCL_VET_GETSTOCKENTRY&#xa;12    ZCL_VET_GETSTOCKENTRY&#xa;13    ZCL_VET_GETSTOCKENTRY&#xa;14    ZCL_VET_MODBUSINESSENTITY&#xa;15    ZCL_VET_MODENTERPRISE&#xa;16    ZCL_VET_WITHDRAWVSDOPERATION&#xa;17    ZCL_VET_MODACTIVITYLOCATION&#xa;18    ZCL_VET_MODPRODUCERSTOCKLIST&#xa;21    ZCL_VET_CHKSHIPREGIONALIZOPER&#xa;29    ZCL_VET_INCOMINGOPERATION_PACK" style="text;whiteSpace=wrap;fontSize=15;" vertex="1" parent="1">
          <mxGeometry x="648.5" y="580" width="350" height="390" as="geometry" />
        </mxCell>
        <mxCell id="GciwDZbk6Rl86_-18jYc-2" value="&lt;div style=&quot;text-align: left;&quot;&gt;ZCO_ENTERPRISE_SERVICE_PORT_TY&lt;br&gt;&lt;/div&gt;" style="rounded=0;whiteSpace=wrap;html=1;fillColor=#dae8fc;strokeColor=#6c8ebf;" vertex="1" parent="1">
          <mxGeometry x="860" y="2960" width="290" height="34" as="geometry" />
        </mxCell>
        <mxCell id="GciwDZbk6Rl86_-18jYc-3" value="Report &lt;b&gt;ZVET_MASTERDATA&lt;/b&gt;&lt;div&gt;tcode ZVETISDATA&lt;br&gt;&lt;/div&gt;&lt;div&gt;ВЕТИС. Запросы справочников&lt;br&gt;&lt;/div&gt;" style="shape=process;whiteSpace=wrap;html=1;backgroundOutline=1;size=0.03333333333333333;" vertex="1" parent="1">
          <mxGeometry x="700" y="3140" width="300" height="60" as="geometry" />
        </mxCell>
        <mxCell id="GciwDZbk6Rl86_-18jYc-4" value="Use" style="endArrow=open;endSize=12;dashed=1;html=1;rounded=0;" edge="1" parent="1" source="GciwDZbk6Rl86_-18jYc-3" target="GciwDZbk6Rl86_-18jYc-2">
          <mxGeometry width="160" relative="1" as="geometry">
            <mxPoint x="415" y="3220" as="sourcePoint" />
            <mxPoint x="415" y="3004" as="targetPoint" />
          </mxGeometry>
        </mxCell>
        <mxCell id="GciwDZbk6Rl86_-18jYc-5" value="Report &lt;b&gt;ZRE_PROD_GUID&lt;/b&gt;&lt;div&gt;tcode&amp;nbsp;ZVET_GUIDPROD&lt;br&gt;&lt;/div&gt;&lt;div&gt;Обновление данных Производителя по его GUID&lt;br&gt;&lt;/div&gt;" style="shape=process;whiteSpace=wrap;html=1;backgroundOutline=1;size=0.03333333333333333;" vertex="1" parent="1">
          <mxGeometry x="700" y="3200" width="300" height="60" as="geometry" />
        </mxCell>
        <mxCell id="GciwDZbk6Rl86_-18jYc-6" value="&lt;div style=&quot;text-align: left;&quot;&gt;FM&amp;nbsp;ZSH_VET_ENTERPRISE_PROXY&lt;/div&gt;" style="rounded=0;whiteSpace=wrap;html=1;fillColor=#d5e8d4;strokeColor=#82b366;" vertex="1" parent="1">
          <mxGeometry x="1030" y="3140" width="290" height="34" as="geometry" />
        </mxCell>
        <mxCell id="GciwDZbk6Rl86_-18jYc-7" value="&lt;div style=&quot;text-align: left;&quot;&gt;FM&amp;nbsp;ZVET_GET_BUENT_AND_ENTERPR&lt;/div&gt;" style="rounded=0;whiteSpace=wrap;html=1;fillColor=#d5e8d4;strokeColor=#82b366;" vertex="1" parent="1">
          <mxGeometry x="1030" y="3180" width="290" height="34" as="geometry" />
        </mxCell>
        <mxCell id="GciwDZbk6Rl86_-18jYc-8" value="Use" style="endArrow=open;endSize=12;dashed=1;html=1;rounded=0;" edge="1" parent="1" source="GciwDZbk6Rl86_-18jYc-6" target="GciwDZbk6Rl86_-18jYc-2">
          <mxGeometry width="160" relative="1" as="geometry">
            <mxPoint x="876" y="3150" as="sourcePoint" />
            <mxPoint x="956" y="3004" as="targetPoint" />
          </mxGeometry>
        </mxCell>
        <mxCell id="GciwDZbk6Rl86_-18jYc-9" value="&lt;div style=&quot;text-align: left;&quot;&gt;ZCL_VET_FILL_ENTERPR&lt;br&gt;&lt;/div&gt;" style="rounded=0;whiteSpace=wrap;html=1;" vertex="1" parent="1">
          <mxGeometry x="1330" y="3143" width="290" height="34" as="geometry" />
        </mxCell>
        <mxCell id="GciwDZbk6Rl86_-18jYc-10" value="&lt;div style=&quot;text-align: left;&quot;&gt;ZCL_VET_GETVETDOCUMENT&lt;br&gt;&lt;/div&gt;" style="rounded=0;whiteSpace=wrap;html=1;" vertex="1" parent="1">
          <mxGeometry x="1330" y="3177" width="290" height="34" as="geometry" />
        </mxCell>
        <mxCell id="GciwDZbk6Rl86_-18jYc-11" value="&lt;div style=&quot;text-align: left;&quot;&gt;ZCL_VET_MODENTERPRISE&lt;br&gt;&lt;/div&gt;" style="rounded=0;whiteSpace=wrap;html=1;" vertex="1" parent="1">
          <mxGeometry x="1330" y="3211" width="290" height="34" as="geometry" />
        </mxCell>
        <mxCell id="GciwDZbk6Rl86_-18jYc-12" value="&lt;div style=&quot;text-align: left;&quot;&gt;&amp;nbsp; ZCL_VET_WERKS_EXT_DATA&lt;br&gt;&lt;/div&gt;" style="rounded=0;whiteSpace=wrap;html=1;" vertex="1" parent="1">
          <mxGeometry x="1330" y="3245" width="290" height="34" as="geometry" />
        </mxCell>
        <mxCell id="GciwDZbk6Rl86_-18jYc-13" value="Use" style="endArrow=open;endSize=12;dashed=1;html=1;rounded=0;" edge="1" parent="1" source="GciwDZbk6Rl86_-18jYc-9" target="GciwDZbk6Rl86_-18jYc-2">
          <mxGeometry width="160" relative="1" as="geometry">
            <mxPoint x="1169" y="3150" as="sourcePoint" />
            <mxPoint x="1031" y="3004" as="targetPoint" />
          </mxGeometry>
        </mxCell>
        <mxCell id="GciwDZbk6Rl86_-18jYc-14" value="&lt;div style=&quot;text-align: left;&quot;&gt;ZCO_PRODUCT_SERVICE_PORT_TYPE&lt;br&gt;&lt;/div&gt;" style="rounded=0;whiteSpace=wrap;html=1;fillColor=#dae8fc;strokeColor=#6c8ebf;" vertex="1" parent="1">
          <mxGeometry x="1850" y="2960" width="290" height="34" as="geometry" />
        </mxCell>
        <mxCell id="GciwDZbk6Rl86_-18jYc-15" value="Report &lt;b&gt;ZVET_MASTERDATA&lt;/b&gt;&lt;div&gt;tcode ZVETISDATA&lt;br&gt;&lt;/div&gt;&lt;div&gt;ВЕТИС. Запросы справочников&lt;br&gt;&lt;/div&gt;" style="shape=process;whiteSpace=wrap;html=1;backgroundOutline=1;size=0.03333333333333333;" vertex="1" parent="1">
          <mxGeometry x="1700" y="3140" width="300" height="60" as="geometry" />
        </mxCell>
        <mxCell id="GciwDZbk6Rl86_-18jYc-16" value="Use" style="endArrow=open;endSize=12;dashed=1;html=1;rounded=0;" edge="1" parent="1" source="GciwDZbk6Rl86_-18jYc-15" target="GciwDZbk6Rl86_-18jYc-14">
          <mxGeometry width="160" relative="1" as="geometry">
            <mxPoint x="1441" y="3153" as="sourcePoint" />
            <mxPoint x="1059" y="3004" as="targetPoint" />
          </mxGeometry>
        </mxCell>
        <mxCell id="1wjes_tDfHZx8ARN4dcU-1" value="Report &lt;b&gt;ZVET_GET_ALL_PROD_HIER&lt;/b&gt;&lt;div&gt;tcode&amp;nbsp;&lt;br&gt;&lt;/div&gt;&lt;div&gt;Получение и запись 3 уровней иерархии Меркурий&lt;br&gt;&lt;/div&gt;" style="shape=process;whiteSpace=wrap;html=1;backgroundOutline=1;size=0.03333333333333333;" vertex="1" parent="1">
          <mxGeometry x="1700" y="3200" width="300" height="60" as="geometry" />
        </mxCell>
        <mxCell id="1wjes_tDfHZx8ARN4dcU-2" value="&lt;div style=&quot;text-align: left;&quot;&gt;&amp;nbsp;ZCL_VET_MATNR_CHECKS&lt;br&gt;&lt;/div&gt;" style="rounded=0;whiteSpace=wrap;html=1;fillColor=#dae8fc;strokeColor=#6c8ebf;" vertex="1" parent="1">
          <mxGeometry x="2020" y="3140" width="290" height="34" as="geometry" />
        </mxCell>
        <mxCell id="1wjes_tDfHZx8ARN4dcU-3" value="&lt;div style=&quot;text-align: left;&quot;&gt;ZCL_VET_MATNR_EXT_DATA&lt;br&gt;&lt;/div&gt;" style="rounded=0;whiteSpace=wrap;html=1;fillColor=#dae8fc;strokeColor=#6c8ebf;" vertex="1" parent="1">
          <mxGeometry x="2020" y="3174" width="290" height="34" as="geometry" />
        </mxCell>
        <mxCell id="1wjes_tDfHZx8ARN4dcU-4" value="&lt;div style=&quot;text-align: left;&quot;&gt;ZCL_VET_PURPOSE&lt;br&gt;&lt;/div&gt;" style="rounded=0;whiteSpace=wrap;html=1;fillColor=#dae8fc;strokeColor=#6c8ebf;" vertex="1" parent="1">
          <mxGeometry x="2020" y="3208" width="290" height="34" as="geometry" />
        </mxCell>
        <mxCell id="1wjes_tDfHZx8ARN4dcU-5" value="&lt;div style=&quot;text-align: left;&quot;&gt;ZCL_VET_WERKS_EXT_DATA&lt;br&gt;&lt;/div&gt;" style="rounded=0;whiteSpace=wrap;html=1;fillColor=#dae8fc;strokeColor=#6c8ebf;" vertex="1" parent="1">
          <mxGeometry x="2020" y="3242" width="290" height="34" as="geometry" />
        </mxCell>
        <mxCell id="1wjes_tDfHZx8ARN4dcU-6" value="Use" style="endArrow=open;endSize=12;dashed=1;html=1;rounded=0;" edge="1" parent="1" source="1wjes_tDfHZx8ARN4dcU-2" target="GciwDZbk6Rl86_-18jYc-14">
          <mxGeometry width="160" relative="1" as="geometry">
            <mxPoint x="1887" y="3150" as="sourcePoint" />
            <mxPoint x="2020" y="3004" as="targetPoint" />
          </mxGeometry>
        </mxCell>
        <mxCell id="1wjes_tDfHZx8ARN4dcU-7" value="Report &lt;b&gt;ZVET_FILL_REGION&lt;/b&gt;&lt;div&gt;tcode&amp;nbsp;&lt;br&gt;&lt;/div&gt;&lt;div&gt;Заполнение таблицы регионов&lt;br&gt;&lt;/div&gt;" style="shape=process;whiteSpace=wrap;html=1;backgroundOutline=1;size=0.03333333333333333;" vertex="1" parent="1">
          <mxGeometry x="-360" y="3117" width="300" height="60" as="geometry" />
        </mxCell>
        <mxCell id="1wjes_tDfHZx8ARN4dcU-8" value="&lt;div style=&quot;text-align: left;&quot;&gt;ZCO_DEBTOR_MERCURY_OUT&lt;br&gt;&lt;/div&gt;" style="rounded=0;whiteSpace=wrap;html=1;fillColor=#dae8fc;strokeColor=#6c8ebf;" vertex="1" parent="1">
          <mxGeometry x="240" y="1650" width="290" height="34" as="geometry" />
        </mxCell>
        <mxCell id="1wjes_tDfHZx8ARN4dcU-9" value="Z_VET" style="text;whiteSpace=wrap;" vertex="1" parent="1">
          <mxGeometry x="-640" y="1650" width="120" height="40" as="geometry" />
        </mxCell>
        <mxCell id="1wjes_tDfHZx8ARN4dcU-11" style="edgeStyle=orthogonalEdgeStyle;rounded=0;orthogonalLoop=1;jettySize=auto;html=1;entryX=0;entryY=0.5;entryDx=0;entryDy=0;" edge="1" parent="1" source="1wjes_tDfHZx8ARN4dcU-10" target="1wjes_tDfHZx8ARN4dcU-8">
          <mxGeometry relative="1" as="geometry" />
        </mxCell>
        <mxCell id="1wjes_tDfHZx8ARN4dcU-10" value="&lt;div style=&quot;font-size: 16px;&quot;&gt;DebtorMercury_Out&lt;br style=&quot;font-size: 16px;&quot;&gt;&lt;/div&gt;" style="rounded=0;whiteSpace=wrap;html=1;fontSize=16;align=left;" vertex="1" parent="1">
          <mxGeometry x="-480.5" y="1651" width="590" height="34" as="geometry" />
        </mxCell>
        <mxCell id="1wjes_tDfHZx8ARN4dcU-12" value="&lt;div style=&quot;text-align: left;&quot;&gt;&lt;span style=&quot;background-color: initial;&quot;&gt;ZCO_DEBTOR_MERCURY_OUT&lt;/span&gt;&lt;/div&gt;" style="rounded=0;whiteSpace=wrap;html=1;fillColor=#dae8fc;strokeColor=#6c8ebf;" vertex="1" parent="1">
          <mxGeometry x="-515" y="3330" width="290" height="34" as="geometry" />
        </mxCell>
        <mxCell id="1wjes_tDfHZx8ARN4dcU-13" value="&lt;div style=&quot;&quot;&gt;FM&amp;nbsp;ZVET_DEB_MERCURY_SIEBEL&lt;/div&gt;&lt;div style=&quot;&quot;&gt;Отправка признака «Зарегистрирован в Меркурий» в систему Siebel CRM&lt;br&gt;&lt;/div&gt;" style="rounded=0;whiteSpace=wrap;html=1;fillColor=#d5e8d4;strokeColor=#82b366;align=center;" vertex="1" parent="1">
          <mxGeometry x="-715" y="3430" width="290" height="60" as="geometry" />
        </mxCell>
        <mxCell id="1wjes_tDfHZx8ARN4dcU-14" value="Use" style="endArrow=open;endSize=12;dashed=1;html=1;rounded=0;" edge="1" parent="1" source="1wjes_tDfHZx8ARN4dcU-13" target="1wjes_tDfHZx8ARN4dcU-12">
          <mxGeometry width="160" relative="1" as="geometry">
            <mxPoint x="-654.91" y="3369" as="sourcePoint" />
            <mxPoint x="-514.91" y="3290" as="targetPoint" />
          </mxGeometry>
        </mxCell>
        <mxCell id="1wjes_tDfHZx8ARN4dcU-15" value="Include&amp;nbsp;&lt;b&gt;ZXF04U01&lt;br&gt;&lt;/b&gt;&lt;div&gt;&lt;span style=&quot;background-color: initial;&quot;&gt;EXIT_SAPMF02D_001&lt;/span&gt;&lt;/div&gt;&lt;div&gt;User Exit: Customer Master Data&lt;br&gt;&lt;/div&gt;&lt;div&gt;Customers: User Exit for Checks prior to Saving&lt;br&gt;&lt;/div&gt;" style="shape=process;whiteSpace=wrap;html=1;backgroundOutline=1;size=0.03333333333333333;" vertex="1" parent="1">
          <mxGeometry x="-370" y="3430" width="300" height="60" as="geometry" />
        </mxCell>
        <mxCell id="1wjes_tDfHZx8ARN4dcU-16" value="Use" style="endArrow=open;endSize=12;dashed=1;html=1;rounded=0;" edge="1" parent="1" source="1wjes_tDfHZx8ARN4dcU-15" target="1wjes_tDfHZx8ARN4dcU-12">
          <mxGeometry width="160" relative="1" as="geometry">
            <mxPoint x="-428.5" y="3406" as="sourcePoint" />
            <mxPoint x="-311.5" y="3340" as="targetPoint" />
          </mxGeometry>
        </mxCell>
        <mxCell id="e2D8NdHKC8ZAYVq9lkD1-1" value="ZCL_VET_CHKSHIPREGIONALIZOPER&#xa;ZCO_REGIONALIZATION_SERVICE_PO" style="text;whiteSpace=wrap;" vertex="1" parent="1">
          <mxGeometry x="860" y="1480" width="260" height="50" as="geometry" />
        </mxCell>
        <mxCell id="e2D8NdHKC8ZAYVq9lkD1-2" value="&lt;div style=&quot;text-align: left;&quot;&gt;ZCO_REGIONALIZATION_SERVICE_PO&lt;br&gt;&lt;/div&gt;" style="rounded=0;whiteSpace=wrap;html=1;fillColor=#dae8fc;strokeColor=#6c8ebf;" vertex="1" parent="1">
          <mxGeometry x="240" y="1700" width="290" height="34" as="geometry" />
        </mxCell>
        <mxCell id="e2D8NdHKC8ZAYVq9lkD1-3" value="Z_VETIS_REGIONALIZATION" style="text;whiteSpace=wrap;" vertex="1" parent="1">
          <mxGeometry x="-660" y="1700" width="170" height="40" as="geometry" />
        </mxCell>
        <mxCell id="e2D8NdHKC8ZAYVq9lkD1-5" style="edgeStyle=orthogonalEdgeStyle;rounded=0;orthogonalLoop=1;jettySize=auto;html=1;entryX=0;entryY=0.5;entryDx=0;entryDy=0;" edge="1" parent="1" source="e2D8NdHKC8ZAYVq9lkD1-4" target="e2D8NdHKC8ZAYVq9lkD1-2">
          <mxGeometry relative="1" as="geometry" />
        </mxCell>
        <mxCell id="e2D8NdHKC8ZAYVq9lkD1-4" value="&lt;div style=&quot;font-size: 16px;&quot;&gt;RegionalizationServicePortType&lt;br style=&quot;font-size: 16px;&quot;&gt;&lt;/div&gt;" style="rounded=0;whiteSpace=wrap;html=1;fontSize=16;align=left;" vertex="1" parent="1">
          <mxGeometry x="-480" y="1700" width="590" height="34" as="geometry" />
        </mxCell>
        <mxCell id="e2D8NdHKC8ZAYVq9lkD1-6" value="&lt;div style=&quot;text-align: left;&quot;&gt;ZCO_REGIONALIZATION_SERVICE_PO&lt;br&gt;&lt;/div&gt;" style="rounded=0;whiteSpace=wrap;html=1;fillColor=#dae8fc;strokeColor=#6c8ebf;" vertex="1" parent="1">
          <mxGeometry x="-510" y="3630" width="290" height="34" as="geometry" />
        </mxCell>
        <mxCell id="e2D8NdHKC8ZAYVq9lkD1-7" value="Report &lt;b&gt;ZVET_MASTERDATA&lt;/b&gt;&lt;div&gt;tcode ZVETISDATA&lt;br&gt;&lt;/div&gt;&lt;div&gt;ВЕТИС. Запросы справочников&lt;br&gt;&lt;/div&gt;" style="shape=process;whiteSpace=wrap;html=1;backgroundOutline=1;size=0.03333333333333333;" vertex="1" parent="1">
          <mxGeometry x="-515" y="3720" width="300" height="60" as="geometry" />
        </mxCell>
        <mxCell id="e2D8NdHKC8ZAYVq9lkD1-8" value="Use" style="endArrow=open;endSize=12;dashed=1;html=1;rounded=0;" edge="1" parent="1" source="e2D8NdHKC8ZAYVq9lkD1-7" target="e2D8NdHKC8ZAYVq9lkD1-6">
          <mxGeometry width="160" relative="1" as="geometry">
            <mxPoint x="-580.1800000000001" y="3706" as="sourcePoint" />
            <mxPoint x="-667.1800000000001" y="3640" as="targetPoint" />
          </mxGeometry>
        </mxCell>
      </root>
    </mxGraphModel>
  </diagram>
  <diagram id="Q-1RfSFddYgBeaaVDhVf" name="Разное">
    <mxGraphModel dx="1434" dy="844" grid="1" gridSize="10" guides="1" tooltips="1" connect="1" arrows="1" fold="1" page="1" pageScale="1" pageWidth="827" pageHeight="1169" math="0" shadow="0">
      <root>
        <mxCell id="0" />
        <mxCell id="1" parent="0" />
        <mxCell id="q1O9A4kF24YhyxzllFuP-1" value="Report &lt;b&gt;ZVET_MASTERDATA&lt;/b&gt;&lt;div&gt;tcode ZVETISDATA&lt;br&gt;&lt;/div&gt;&lt;div&gt;ВЕТИС. Запросы справочников&lt;br&gt;&lt;/div&gt;" style="shape=process;whiteSpace=wrap;html=1;backgroundOutline=1;size=0.03333333333333333;" vertex="1" parent="1">
          <mxGeometry x="130" y="220" width="300" height="60" as="geometry" />
        </mxCell>
        <mxCell id="q1O9A4kF24YhyxzllFuP-2" value="ZCO_IKAR_SERVICE_PORT_TYPE" style="text;whiteSpace=wrap;" vertex="1" parent="1">
          <mxGeometry x="530" y="430" width="230" height="40" as="geometry" />
        </mxCell>
        <mxCell id="Gr7ZTSjA_mOXEkFLqB1m-1" value="&lt;b&gt;Tcode ZVETARCHIVE&lt;/b&gt;&lt;div&gt;&lt;br&gt;&lt;/div&gt;" style="shape=process;whiteSpace=wrap;html=1;backgroundOutline=1;size=0.03333333333333333;" vertex="1" parent="1">
          <mxGeometry x="140" y="630" width="300" height="60" as="geometry" />
        </mxCell>
        <mxCell id="RzL-ZmA5WFTvxj3tK-Dh-1" value="&lt;b&gt;Tcode ZVETJOURNAL&lt;/b&gt;&lt;div&gt;&lt;br&gt;&lt;/div&gt;" style="shape=process;whiteSpace=wrap;html=1;backgroundOutline=1;size=0.03333333333333333;" vertex="1" parent="1">
          <mxGeometry x="140" y="550" width="300" height="60" as="geometry" />
        </mxCell>
        <mxCell id="Tl_alQh1MOWPWMabdDkM-1" value="Report&amp;nbsp;&lt;span style=&quot;font-family: &amp;quot;Courier New&amp;quot;; font-size: 10pt; background: rgb(255, 255, 255); text-align: start;&quot;&gt;zvet_get_response&lt;/span&gt;" style="shape=process;whiteSpace=wrap;html=1;backgroundOutline=1;size=0.03333333333333333;" vertex="1" parent="1">
          <mxGeometry x="130" y="50" width="300" height="40" as="geometry" />
        </mxCell>
        <mxCell id="Tl_alQh1MOWPWMabdDkM-2" value="Report&amp;nbsp;&lt;span style=&quot;font-family: &amp;quot;Courier New&amp;quot;; font-size: 10pt; background: rgb(255, 255, 255); text-align: start;&quot;&gt;zvet_send_request&lt;/span&gt;" style="shape=process;whiteSpace=wrap;html=1;backgroundOutline=1;size=0.03333333333333333;" vertex="1" parent="1">
          <mxGeometry x="130" y="120" width="300" height="40" as="geometry" />
        </mxCell>
      </root>
    </mxGraphModel>
  </diagram>
</mxfile>
